G04 #@! TF.GenerationSoftware,KiCad,Pcbnew,5.0.1*
G04 #@! TF.CreationDate,2018-10-26T18:06:02+02:00*
G04 #@! TF.ProjectId,combine,636F6D62696E652E6B696361645F7063,rev?*
G04 #@! TF.SameCoordinates,Original*
G04 #@! TF.FileFunction,Legend,Bot*
G04 #@! TF.FilePolarity,Positive*
%FSLAX46Y46*%
G04 Gerber Fmt 4.6, Leading zero omitted, Abs format (unit mm)*
G04 Created by KiCad (PCBNEW 5.0.1) date Fri 26 Oct 2018 06:06:02 PM CEST*
%MOMM*%
%LPD*%
G01*
G04 APERTURE LIST*
%ADD10C,0.120000*%
%ADD11C,0.150000*%
G04 APERTURE END LIST*
D10*
G04 #@! TO.C,J18*
X54550000Y-52130000D02*
X55880000Y-52130000D01*
X54550000Y-50800000D02*
X54550000Y-52130000D01*
X54550000Y-49530000D02*
X57210000Y-49530000D01*
X57210000Y-49530000D02*
X57210000Y-49470000D01*
X54550000Y-49530000D02*
X54550000Y-49470000D01*
X54550000Y-49470000D02*
X57210000Y-49470000D01*
G04 #@! TO.C,J17*
X52010000Y-49470000D02*
X54670000Y-49470000D01*
X52010000Y-49530000D02*
X52010000Y-49470000D01*
X54670000Y-49530000D02*
X54670000Y-49470000D01*
X52010000Y-49530000D02*
X54670000Y-49530000D01*
X52010000Y-50800000D02*
X52010000Y-52130000D01*
X52010000Y-52130000D02*
X53340000Y-52130000D01*
G04 #@! TO.C,J16*
X52010000Y-87690000D02*
X53340000Y-87690000D01*
X52010000Y-86360000D02*
X52010000Y-87690000D01*
X52010000Y-85090000D02*
X54670000Y-85090000D01*
X54670000Y-85090000D02*
X54670000Y-85030000D01*
X52010000Y-85090000D02*
X52010000Y-85030000D01*
X52010000Y-85030000D02*
X54670000Y-85030000D01*
G04 #@! TO.C,J14*
X54670000Y-64830000D02*
X52010000Y-64830000D01*
X54670000Y-64770000D02*
X54670000Y-64830000D01*
X52010000Y-64770000D02*
X52010000Y-64830000D01*
X54670000Y-64770000D02*
X52010000Y-64770000D01*
X54670000Y-63500000D02*
X54670000Y-62170000D01*
X54670000Y-62170000D02*
X53340000Y-62170000D01*
G04 #@! TO.C,J15*
X46295000Y-62170000D02*
X46295000Y-63500000D01*
X47625000Y-62170000D02*
X46295000Y-62170000D01*
X48895000Y-62170000D02*
X48895000Y-64830000D01*
X48895000Y-64830000D02*
X51495000Y-64830000D01*
X48895000Y-62170000D02*
X51495000Y-62170000D01*
X51495000Y-62170000D02*
X51495000Y-64830000D01*
G04 #@! TO.C,J13*
X72450000Y-62170000D02*
X72450000Y-64830000D01*
X69850000Y-62170000D02*
X72450000Y-62170000D01*
X69850000Y-64830000D02*
X72450000Y-64830000D01*
X69850000Y-62170000D02*
X69850000Y-64830000D01*
X68580000Y-62170000D02*
X67250000Y-62170000D01*
X67250000Y-62170000D02*
X67250000Y-63500000D01*
G04 #@! TO.C,J18*
X62170000Y-108010000D02*
X63500000Y-108010000D01*
X62170000Y-106680000D02*
X62170000Y-108010000D01*
X62170000Y-105410000D02*
X64830000Y-105410000D01*
X64830000Y-105410000D02*
X64830000Y-105350000D01*
X62170000Y-105410000D02*
X62170000Y-105350000D01*
X62170000Y-105350000D02*
X64830000Y-105350000D01*
G04 #@! TO.C,J17*
X59630000Y-105350000D02*
X62290000Y-105350000D01*
X59630000Y-105410000D02*
X59630000Y-105350000D01*
X62290000Y-105410000D02*
X62290000Y-105350000D01*
X59630000Y-105410000D02*
X62290000Y-105410000D01*
X59630000Y-106680000D02*
X59630000Y-108010000D01*
X59630000Y-108010000D02*
X60960000Y-108010000D01*
G04 #@! TO.C,J16*
X59630000Y-143570000D02*
X60960000Y-143570000D01*
X59630000Y-142240000D02*
X59630000Y-143570000D01*
X59630000Y-140970000D02*
X62290000Y-140970000D01*
X62290000Y-140970000D02*
X62290000Y-140910000D01*
X59630000Y-140970000D02*
X59630000Y-140910000D01*
X59630000Y-140910000D02*
X62290000Y-140910000D01*
G04 #@! TO.C,J14*
X62290000Y-120710000D02*
X59630000Y-120710000D01*
X62290000Y-120650000D02*
X62290000Y-120710000D01*
X59630000Y-120650000D02*
X59630000Y-120710000D01*
X62290000Y-120650000D02*
X59630000Y-120650000D01*
X62290000Y-119380000D02*
X62290000Y-118050000D01*
X62290000Y-118050000D02*
X60960000Y-118050000D01*
G04 #@! TO.C,J15*
X53915000Y-118050000D02*
X53915000Y-119380000D01*
X55245000Y-118050000D02*
X53915000Y-118050000D01*
X56515000Y-118050000D02*
X56515000Y-120710000D01*
X56515000Y-120710000D02*
X59115000Y-120710000D01*
X56515000Y-118050000D02*
X59115000Y-118050000D01*
X59115000Y-118050000D02*
X59115000Y-120710000D01*
G04 #@! TO.C,J13*
X80070000Y-118050000D02*
X80070000Y-120710000D01*
X77470000Y-118050000D02*
X80070000Y-118050000D01*
X77470000Y-120710000D02*
X80070000Y-120710000D01*
X77470000Y-118050000D02*
X77470000Y-120710000D01*
X76200000Y-118050000D02*
X74870000Y-118050000D01*
X74870000Y-118050000D02*
X74870000Y-119380000D01*
G04 #@! TO.C,J16*
D11*
X54149523Y-88142380D02*
X54149523Y-88856666D01*
X54197142Y-88999523D01*
X54292380Y-89094761D01*
X54435238Y-89142380D01*
X54530476Y-89142380D01*
X53149523Y-89142380D02*
X53720952Y-89142380D01*
X53435238Y-89142380D02*
X53435238Y-88142380D01*
X53530476Y-88285238D01*
X53625714Y-88380476D01*
X53720952Y-88428095D01*
X52292380Y-88142380D02*
X52482857Y-88142380D01*
X52578095Y-88190000D01*
X52625714Y-88237619D01*
X52720952Y-88380476D01*
X52768571Y-88570952D01*
X52768571Y-88951904D01*
X52720952Y-89047142D01*
X52673333Y-89094761D01*
X52578095Y-89142380D01*
X52387619Y-89142380D01*
X52292380Y-89094761D01*
X52244761Y-89047142D01*
X52197142Y-88951904D01*
X52197142Y-88713809D01*
X52244761Y-88618571D01*
X52292380Y-88570952D01*
X52387619Y-88523333D01*
X52578095Y-88523333D01*
X52673333Y-88570952D01*
X52720952Y-88618571D01*
X52768571Y-88713809D01*
G04 #@! TO.C,J14*
X54149523Y-60622380D02*
X54149523Y-61336666D01*
X54197142Y-61479523D01*
X54292380Y-61574761D01*
X54435238Y-61622380D01*
X54530476Y-61622380D01*
X53149523Y-61622380D02*
X53720952Y-61622380D01*
X53435238Y-61622380D02*
X53435238Y-60622380D01*
X53530476Y-60765238D01*
X53625714Y-60860476D01*
X53720952Y-60908095D01*
X52292380Y-60955714D02*
X52292380Y-61622380D01*
X52530476Y-60574761D02*
X52768571Y-61289047D01*
X52149523Y-61289047D01*
G04 #@! TO.C,J15*
X44747380Y-62690476D02*
X45461666Y-62690476D01*
X45604523Y-62642857D01*
X45699761Y-62547619D01*
X45747380Y-62404761D01*
X45747380Y-62309523D01*
X45747380Y-63690476D02*
X45747380Y-63119047D01*
X45747380Y-63404761D02*
X44747380Y-63404761D01*
X44890238Y-63309523D01*
X44985476Y-63214285D01*
X45033095Y-63119047D01*
X44747380Y-64595238D02*
X44747380Y-64119047D01*
X45223571Y-64071428D01*
X45175952Y-64119047D01*
X45128333Y-64214285D01*
X45128333Y-64452380D01*
X45175952Y-64547619D01*
X45223571Y-64595238D01*
X45318809Y-64642857D01*
X45556904Y-64642857D01*
X45652142Y-64595238D01*
X45699761Y-64547619D01*
X45747380Y-64452380D01*
X45747380Y-64214285D01*
X45699761Y-64119047D01*
X45652142Y-64071428D01*
G04 #@! TO.C,J13*
X65702380Y-62690476D02*
X66416666Y-62690476D01*
X66559523Y-62642857D01*
X66654761Y-62547619D01*
X66702380Y-62404761D01*
X66702380Y-62309523D01*
X66702380Y-63690476D02*
X66702380Y-63119047D01*
X66702380Y-63404761D02*
X65702380Y-63404761D01*
X65845238Y-63309523D01*
X65940476Y-63214285D01*
X65988095Y-63119047D01*
X65702380Y-64023809D02*
X65702380Y-64642857D01*
X66083333Y-64309523D01*
X66083333Y-64452380D01*
X66130952Y-64547619D01*
X66178571Y-64595238D01*
X66273809Y-64642857D01*
X66511904Y-64642857D01*
X66607142Y-64595238D01*
X66654761Y-64547619D01*
X66702380Y-64452380D01*
X66702380Y-64166666D01*
X66654761Y-64071428D01*
X66607142Y-64023809D01*
G04 #@! TO.C,J16*
X61769523Y-144022380D02*
X61769523Y-144736666D01*
X61817142Y-144879523D01*
X61912380Y-144974761D01*
X62055238Y-145022380D01*
X62150476Y-145022380D01*
X60769523Y-145022380D02*
X61340952Y-145022380D01*
X61055238Y-145022380D02*
X61055238Y-144022380D01*
X61150476Y-144165238D01*
X61245714Y-144260476D01*
X61340952Y-144308095D01*
X59912380Y-144022380D02*
X60102857Y-144022380D01*
X60198095Y-144070000D01*
X60245714Y-144117619D01*
X60340952Y-144260476D01*
X60388571Y-144450952D01*
X60388571Y-144831904D01*
X60340952Y-144927142D01*
X60293333Y-144974761D01*
X60198095Y-145022380D01*
X60007619Y-145022380D01*
X59912380Y-144974761D01*
X59864761Y-144927142D01*
X59817142Y-144831904D01*
X59817142Y-144593809D01*
X59864761Y-144498571D01*
X59912380Y-144450952D01*
X60007619Y-144403333D01*
X60198095Y-144403333D01*
X60293333Y-144450952D01*
X60340952Y-144498571D01*
X60388571Y-144593809D01*
G04 #@! TO.C,J14*
X61769523Y-116502380D02*
X61769523Y-117216666D01*
X61817142Y-117359523D01*
X61912380Y-117454761D01*
X62055238Y-117502380D01*
X62150476Y-117502380D01*
X60769523Y-117502380D02*
X61340952Y-117502380D01*
X61055238Y-117502380D02*
X61055238Y-116502380D01*
X61150476Y-116645238D01*
X61245714Y-116740476D01*
X61340952Y-116788095D01*
X59912380Y-116835714D02*
X59912380Y-117502380D01*
X60150476Y-116454761D02*
X60388571Y-117169047D01*
X59769523Y-117169047D01*
G04 #@! TO.C,J15*
X52367380Y-118570476D02*
X53081666Y-118570476D01*
X53224523Y-118522857D01*
X53319761Y-118427619D01*
X53367380Y-118284761D01*
X53367380Y-118189523D01*
X53367380Y-119570476D02*
X53367380Y-118999047D01*
X53367380Y-119284761D02*
X52367380Y-119284761D01*
X52510238Y-119189523D01*
X52605476Y-119094285D01*
X52653095Y-118999047D01*
X52367380Y-120475238D02*
X52367380Y-119999047D01*
X52843571Y-119951428D01*
X52795952Y-119999047D01*
X52748333Y-120094285D01*
X52748333Y-120332380D01*
X52795952Y-120427619D01*
X52843571Y-120475238D01*
X52938809Y-120522857D01*
X53176904Y-120522857D01*
X53272142Y-120475238D01*
X53319761Y-120427619D01*
X53367380Y-120332380D01*
X53367380Y-120094285D01*
X53319761Y-119999047D01*
X53272142Y-119951428D01*
G04 #@! TO.C,J13*
X73322380Y-118570476D02*
X74036666Y-118570476D01*
X74179523Y-118522857D01*
X74274761Y-118427619D01*
X74322380Y-118284761D01*
X74322380Y-118189523D01*
X74322380Y-119570476D02*
X74322380Y-118999047D01*
X74322380Y-119284761D02*
X73322380Y-119284761D01*
X73465238Y-119189523D01*
X73560476Y-119094285D01*
X73608095Y-118999047D01*
X73322380Y-119903809D02*
X73322380Y-120522857D01*
X73703333Y-120189523D01*
X73703333Y-120332380D01*
X73750952Y-120427619D01*
X73798571Y-120475238D01*
X73893809Y-120522857D01*
X74131904Y-120522857D01*
X74227142Y-120475238D01*
X74274761Y-120427619D01*
X74322380Y-120332380D01*
X74322380Y-120046666D01*
X74274761Y-119951428D01*
X74227142Y-119903809D01*
G04 #@! TD*
M02*
