M48
;DRILL file {KiCad 5.0.1} date Fri 26 Oct 2018 06:06:00 PM CEST
;FORMAT={-:-/ absolute / inch / decimal}
FMAT,2
INCH,TZ
T1C0.0157
T2C0.0394
%
G90
G05
M72
T1
X1.9531Y-2.9998
X2.2531Y-5.1998
T2
X2.5992Y-3.6996
X2.6992Y-3.6996
X2.7992Y-3.6996
X2.8992Y-3.6996
X2.9992Y-3.6996
X3.0992Y-3.6996
X3.1992Y-3.6996
X3.2992Y-3.6996
X3.3992Y-3.6996
X3.4992Y-3.6996
X3.5992Y-3.6996
X3.6992Y-3.6996
X3.7992Y-3.6996
X3.8992Y-3.6996
X2.9Y-2.
X2.9Y-2.1
X2.9Y-2.2
X2.9Y-2.3
X2.4Y-4.7
X3.3Y-4.
X3.4Y-4.
X3.5Y-4.
X3.6Y-4.
X3.7Y-4.
X3.8Y-4.
X2.3Y-2.
X2.3Y-2.1
X2.3Y-2.2
X2.3Y-2.3
X1.9Y-2.7
X2.Y-2.7
X2.1Y-2.7
X2.2Y-2.7
X2.5Y-4.2
X2.2Y-5.1
X2.3Y-5.1
X2.4Y-5.1
X2.5Y-5.1
X3.Y-4.2
X3.Y-4.3
X3.Y-4.4
X3.Y-4.5
X2.1Y-4.5
X2.2Y-4.5
X2.3Y-4.5
X2.4Y-4.5
X2.2Y-2.5
X2.3Y-2.5
X2.4Y-2.5
X2.5Y-2.5
X1.7Y-5.1
X1.8Y-5.1
X1.9Y-5.1
X3.6Y-4.2
X3.6Y-4.3
X3.6Y-4.4
X3.6Y-4.5
X1.875Y-2.5
X1.975Y-2.5
X2.8Y-4.2
X2.8Y-4.3
X2.8Y-4.4
X2.8Y-4.5
X3.3Y-2.
X3.3Y-2.1
X3.3Y-2.2
X3.3Y-2.3
X1.9Y-2.9
X2.Y-2.9
X2.1Y-2.9
X2.2Y-2.9
X1.4Y-3.1
X1.5Y-3.1
X1.6Y-3.1
X2.5Y-4.7
X2.6Y-4.7
X2.7Y-4.7
X2.8Y-4.7
X3.Y-4.7
X3.1Y-4.7
X3.4Y-4.2
X3.4Y-4.3
X3.4Y-4.4
X3.4Y-4.5
X2.24Y-1.8
X2.34Y-1.8
X2.44Y-1.8
X2.54Y-1.8
X2.64Y-1.8
X2.74Y-1.8
X2.84Y-1.8
X1.4Y-2.7
X1.5Y-2.7
X1.6Y-2.7
X2.175Y-4.7
X2.275Y-4.7
X1.7Y-5.3
X1.8Y-5.3
X1.9Y-5.3
X3.8Y-4.2
X3.8Y-4.3
X3.8Y-4.4
X3.8Y-4.5
X2.6Y-4.2
X2.6Y-4.3
X2.6Y-4.4
X2.6Y-4.5
X3.1Y-2.
X3.1Y-2.1
X3.1Y-2.2
X3.1Y-2.3
X2.2Y-4.2
X2.3Y-4.2
X3.2Y-4.2
X3.2Y-4.3
X3.2Y-4.4
X3.2Y-4.5
X3.Y-1.8
X3.1Y-1.8
X3.2Y-1.8
X3.3Y-1.8
X3.4Y-1.8
X3.5Y-1.8
X2.1Y-2.5
X1.9Y-3.1
X2.Y-3.1
X2.1Y-3.1
X2.2Y-3.1
X2.54Y-4.
X2.64Y-4.
X2.74Y-4.
X2.84Y-4.
X2.94Y-4.
X3.04Y-4.
X3.14Y-4.
X2.7Y-2.5
X2.8Y-2.5
X3.2024Y-3.1469
X3.2024Y-3.2469
X3.3024Y-3.1469
X3.3024Y-3.2469
X3.4024Y-3.1469
X3.4024Y-3.2469
X3.5024Y-3.1469
X3.5024Y-3.2469
X3.6024Y-3.1469
X3.6024Y-3.2469
X3.7024Y-3.1469
X3.7024Y-3.2469
X3.8024Y-3.1469
X3.8024Y-3.2469
X3.9024Y-3.1469
X3.9024Y-3.2469
X1.8Y-2.3
X1.9Y-2.3
X2.Y-2.3
X2.1Y-2.3
X1.4Y-2.9
X1.5Y-2.9
X1.6Y-2.9
X1.9Y-2.
X2.Y-2.
X2.6323Y-2.798
X2.6323Y-2.898
X2.7323Y-2.798
X2.7323Y-2.898
X2.8323Y-2.798
X2.8323Y-2.898
X2.9323Y-2.798
X2.9323Y-2.898
X3.0323Y-2.798
X3.0323Y-2.898
X1.9Y-3.3
X2.Y-3.3
X2.1Y-3.3
X2.2Y-3.3
X2.5Y-2.
X2.5Y-2.1
X2.5Y-2.2
X2.5Y-2.3
X2.2Y-5.3
X2.3Y-5.3
X2.4Y-5.3
X2.5Y-5.3
X3.5Y-2.
X3.5Y-2.1
X3.5Y-2.2
X3.5Y-2.3
X2.4Y-4.2
X2.2Y-2.
X2.4Y-5.6
X1.7Y-4.9
X1.8Y-4.9
X1.9Y-4.9
X2.2Y-4.9
X2.3Y-4.9
X2.4Y-4.9
X2.5Y-4.9
X2.2Y-5.5
X2.3Y-5.5
X2.4Y-5.5
X2.5Y-5.5
X2.1Y-2.
X2.1Y-3.4
X2.7Y-2.
X2.7Y-2.1
X2.7Y-2.2
X2.7Y-2.3
T0
M30
