G04 #@! TF.GenerationSoftware,KiCad,Pcbnew,5.0.1*
G04 #@! TF.CreationDate,2018-10-26T18:06:03+02:00*
G04 #@! TF.ProjectId,combine,636F6D62696E652E6B696361645F7063,rev?*
G04 #@! TF.SameCoordinates,Original*
G04 #@! TF.FileFunction,Profile,NP*
%FSLAX46Y46*%
G04 Gerber Fmt 4.6, Leading zero omitted, Abs format (unit mm)*
G04 Created by KiCad (PCBNEW 5.0.1) date Fri 26 Oct 2018 06:06:03 PM CEST*
%MOMM*%
%LPD*%
G01*
G04 APERTURE LIST*
%ADD10C,0.150000*%
%ADD11C,0.200000*%
G04 APERTURE END LIST*
D10*
X60960000Y-99060000D02*
X60960000Y-96520000D01*
X91440000Y-99060000D02*
X60960000Y-99060000D01*
X91440000Y-96520000D02*
X91440000Y-99060000D01*
X60960000Y-96520000D02*
X91440000Y-96520000D01*
X55880000Y-99060000D02*
X48260000Y-99060000D01*
X55880000Y-96520000D02*
X55880000Y-99060000D01*
X50800000Y-96520000D02*
X55880000Y-96520000D01*
X96520000Y-96520000D02*
X101600000Y-96520000D01*
X96520000Y-99060000D02*
X96520000Y-96520000D01*
X101600000Y-99060000D02*
X96520000Y-99060000D01*
D11*
X50800000Y-88900000D02*
X43180000Y-88900000D01*
X50800000Y-96520000D02*
X50800000Y-88900000D01*
X101600000Y-73660000D02*
X101600000Y-96520000D01*
X93980000Y-43180000D02*
X101600000Y-73660000D01*
D10*
X40640000Y-43180000D02*
X93980000Y-43180000D01*
X43180000Y-83820000D02*
X43180000Y-88900000D01*
X30480000Y-83820000D02*
X43180000Y-83820000D01*
X30480000Y-66040000D02*
X30480000Y-83820000D01*
X38100000Y-66040000D02*
X30480000Y-66040000D01*
X40640000Y-63500000D02*
X38100000Y-66040000D01*
X40640000Y-43180000D02*
X40640000Y-63500000D01*
X101600000Y-99060000D02*
X101600000Y-116840000D01*
X71120000Y-121920000D02*
X71120000Y-124460000D01*
X83820000Y-121920000D02*
X71120000Y-121920000D01*
X71120000Y-144780000D02*
X71120000Y-124460000D01*
X50800000Y-144780000D02*
X71120000Y-144780000D01*
X50800000Y-139700000D02*
X50800000Y-144780000D01*
X38100000Y-139700000D02*
X50800000Y-139700000D01*
X38100000Y-121920000D02*
X38100000Y-139700000D01*
X45720000Y-121920000D02*
X38100000Y-121920000D01*
X48260000Y-119380000D02*
X45720000Y-121920000D01*
X48260000Y-99060000D02*
X48260000Y-119380000D01*
X83820000Y-121920000D02*
X83820000Y-116840000D01*
X83820000Y-116840000D02*
X101600000Y-116840000D01*
M02*
