G04 #@! TF.GenerationSoftware,KiCad,Pcbnew,5.0.1*
G04 #@! TF.CreationDate,2018-10-26T18:06:02+02:00*
G04 #@! TF.ProjectId,combine,636F6D62696E652E6B696361645F7063,rev?*
G04 #@! TF.SameCoordinates,Original*
G04 #@! TF.FileFunction,Paste,Top*
G04 #@! TF.FilePolarity,Positive*
%FSLAX46Y46*%
G04 Gerber Fmt 4.6, Leading zero omitted, Abs format (unit mm)*
G04 Created by KiCad (PCBNEW 5.0.1) date Fri 26 Oct 2018 06:06:02 PM CEST*
%MOMM*%
%LPD*%
G01*
G04 APERTURE LIST*
%ADD10C,0.100000*%
%ADD11C,1.150000*%
G04 APERTURE END LIST*
D10*
G04 #@! TO.C,C2*
G36*
X84194505Y-89071204D02*
X84218773Y-89074804D01*
X84242572Y-89080765D01*
X84265671Y-89089030D01*
X84287850Y-89099520D01*
X84308893Y-89112132D01*
X84328599Y-89126747D01*
X84346777Y-89143223D01*
X84363253Y-89161401D01*
X84377868Y-89181107D01*
X84390480Y-89202150D01*
X84400970Y-89224329D01*
X84409235Y-89247428D01*
X84415196Y-89271227D01*
X84418796Y-89295495D01*
X84420000Y-89319999D01*
X84420000Y-89970001D01*
X84418796Y-89994505D01*
X84415196Y-90018773D01*
X84409235Y-90042572D01*
X84400970Y-90065671D01*
X84390480Y-90087850D01*
X84377868Y-90108893D01*
X84363253Y-90128599D01*
X84346777Y-90146777D01*
X84328599Y-90163253D01*
X84308893Y-90177868D01*
X84287850Y-90190480D01*
X84265671Y-90200970D01*
X84242572Y-90209235D01*
X84218773Y-90215196D01*
X84194505Y-90218796D01*
X84170001Y-90220000D01*
X83269999Y-90220000D01*
X83245495Y-90218796D01*
X83221227Y-90215196D01*
X83197428Y-90209235D01*
X83174329Y-90200970D01*
X83152150Y-90190480D01*
X83131107Y-90177868D01*
X83111401Y-90163253D01*
X83093223Y-90146777D01*
X83076747Y-90128599D01*
X83062132Y-90108893D01*
X83049520Y-90087850D01*
X83039030Y-90065671D01*
X83030765Y-90042572D01*
X83024804Y-90018773D01*
X83021204Y-89994505D01*
X83020000Y-89970001D01*
X83020000Y-89319999D01*
X83021204Y-89295495D01*
X83024804Y-89271227D01*
X83030765Y-89247428D01*
X83039030Y-89224329D01*
X83049520Y-89202150D01*
X83062132Y-89181107D01*
X83076747Y-89161401D01*
X83093223Y-89143223D01*
X83111401Y-89126747D01*
X83131107Y-89112132D01*
X83152150Y-89099520D01*
X83174329Y-89089030D01*
X83197428Y-89080765D01*
X83221227Y-89074804D01*
X83245495Y-89071204D01*
X83269999Y-89070000D01*
X84170001Y-89070000D01*
X84194505Y-89071204D01*
X84194505Y-89071204D01*
G37*
D11*
X83720000Y-89645000D03*
D10*
G36*
X84194505Y-91121204D02*
X84218773Y-91124804D01*
X84242572Y-91130765D01*
X84265671Y-91139030D01*
X84287850Y-91149520D01*
X84308893Y-91162132D01*
X84328599Y-91176747D01*
X84346777Y-91193223D01*
X84363253Y-91211401D01*
X84377868Y-91231107D01*
X84390480Y-91252150D01*
X84400970Y-91274329D01*
X84409235Y-91297428D01*
X84415196Y-91321227D01*
X84418796Y-91345495D01*
X84420000Y-91369999D01*
X84420000Y-92020001D01*
X84418796Y-92044505D01*
X84415196Y-92068773D01*
X84409235Y-92092572D01*
X84400970Y-92115671D01*
X84390480Y-92137850D01*
X84377868Y-92158893D01*
X84363253Y-92178599D01*
X84346777Y-92196777D01*
X84328599Y-92213253D01*
X84308893Y-92227868D01*
X84287850Y-92240480D01*
X84265671Y-92250970D01*
X84242572Y-92259235D01*
X84218773Y-92265196D01*
X84194505Y-92268796D01*
X84170001Y-92270000D01*
X83269999Y-92270000D01*
X83245495Y-92268796D01*
X83221227Y-92265196D01*
X83197428Y-92259235D01*
X83174329Y-92250970D01*
X83152150Y-92240480D01*
X83131107Y-92227868D01*
X83111401Y-92213253D01*
X83093223Y-92196777D01*
X83076747Y-92178599D01*
X83062132Y-92158893D01*
X83049520Y-92137850D01*
X83039030Y-92115671D01*
X83030765Y-92092572D01*
X83024804Y-92068773D01*
X83021204Y-92044505D01*
X83020000Y-92020001D01*
X83020000Y-91369999D01*
X83021204Y-91345495D01*
X83024804Y-91321227D01*
X83030765Y-91297428D01*
X83039030Y-91274329D01*
X83049520Y-91252150D01*
X83062132Y-91231107D01*
X83076747Y-91211401D01*
X83093223Y-91193223D01*
X83111401Y-91176747D01*
X83131107Y-91162132D01*
X83152150Y-91149520D01*
X83174329Y-91139030D01*
X83197428Y-91130765D01*
X83221227Y-91124804D01*
X83245495Y-91121204D01*
X83269999Y-91120000D01*
X84170001Y-91120000D01*
X84194505Y-91121204D01*
X84194505Y-91121204D01*
G37*
D11*
X83720000Y-91695000D03*
G04 #@! TD*
D10*
G04 #@! TO.C,C3*
G36*
X86744505Y-91121204D02*
X86768773Y-91124804D01*
X86792572Y-91130765D01*
X86815671Y-91139030D01*
X86837850Y-91149520D01*
X86858893Y-91162132D01*
X86878599Y-91176747D01*
X86896777Y-91193223D01*
X86913253Y-91211401D01*
X86927868Y-91231107D01*
X86940480Y-91252150D01*
X86950970Y-91274329D01*
X86959235Y-91297428D01*
X86965196Y-91321227D01*
X86968796Y-91345495D01*
X86970000Y-91369999D01*
X86970000Y-92020001D01*
X86968796Y-92044505D01*
X86965196Y-92068773D01*
X86959235Y-92092572D01*
X86950970Y-92115671D01*
X86940480Y-92137850D01*
X86927868Y-92158893D01*
X86913253Y-92178599D01*
X86896777Y-92196777D01*
X86878599Y-92213253D01*
X86858893Y-92227868D01*
X86837850Y-92240480D01*
X86815671Y-92250970D01*
X86792572Y-92259235D01*
X86768773Y-92265196D01*
X86744505Y-92268796D01*
X86720001Y-92270000D01*
X85819999Y-92270000D01*
X85795495Y-92268796D01*
X85771227Y-92265196D01*
X85747428Y-92259235D01*
X85724329Y-92250970D01*
X85702150Y-92240480D01*
X85681107Y-92227868D01*
X85661401Y-92213253D01*
X85643223Y-92196777D01*
X85626747Y-92178599D01*
X85612132Y-92158893D01*
X85599520Y-92137850D01*
X85589030Y-92115671D01*
X85580765Y-92092572D01*
X85574804Y-92068773D01*
X85571204Y-92044505D01*
X85570000Y-92020001D01*
X85570000Y-91369999D01*
X85571204Y-91345495D01*
X85574804Y-91321227D01*
X85580765Y-91297428D01*
X85589030Y-91274329D01*
X85599520Y-91252150D01*
X85612132Y-91231107D01*
X85626747Y-91211401D01*
X85643223Y-91193223D01*
X85661401Y-91176747D01*
X85681107Y-91162132D01*
X85702150Y-91149520D01*
X85724329Y-91139030D01*
X85747428Y-91130765D01*
X85771227Y-91124804D01*
X85795495Y-91121204D01*
X85819999Y-91120000D01*
X86720001Y-91120000D01*
X86744505Y-91121204D01*
X86744505Y-91121204D01*
G37*
D11*
X86270000Y-91695000D03*
D10*
G36*
X86744505Y-89071204D02*
X86768773Y-89074804D01*
X86792572Y-89080765D01*
X86815671Y-89089030D01*
X86837850Y-89099520D01*
X86858893Y-89112132D01*
X86878599Y-89126747D01*
X86896777Y-89143223D01*
X86913253Y-89161401D01*
X86927868Y-89181107D01*
X86940480Y-89202150D01*
X86950970Y-89224329D01*
X86959235Y-89247428D01*
X86965196Y-89271227D01*
X86968796Y-89295495D01*
X86970000Y-89319999D01*
X86970000Y-89970001D01*
X86968796Y-89994505D01*
X86965196Y-90018773D01*
X86959235Y-90042572D01*
X86950970Y-90065671D01*
X86940480Y-90087850D01*
X86927868Y-90108893D01*
X86913253Y-90128599D01*
X86896777Y-90146777D01*
X86878599Y-90163253D01*
X86858893Y-90177868D01*
X86837850Y-90190480D01*
X86815671Y-90200970D01*
X86792572Y-90209235D01*
X86768773Y-90215196D01*
X86744505Y-90218796D01*
X86720001Y-90220000D01*
X85819999Y-90220000D01*
X85795495Y-90218796D01*
X85771227Y-90215196D01*
X85747428Y-90209235D01*
X85724329Y-90200970D01*
X85702150Y-90190480D01*
X85681107Y-90177868D01*
X85661401Y-90163253D01*
X85643223Y-90146777D01*
X85626747Y-90128599D01*
X85612132Y-90108893D01*
X85599520Y-90087850D01*
X85589030Y-90065671D01*
X85580765Y-90042572D01*
X85574804Y-90018773D01*
X85571204Y-89994505D01*
X85570000Y-89970001D01*
X85570000Y-89319999D01*
X85571204Y-89295495D01*
X85574804Y-89271227D01*
X85580765Y-89247428D01*
X85589030Y-89224329D01*
X85599520Y-89202150D01*
X85612132Y-89181107D01*
X85626747Y-89161401D01*
X85643223Y-89143223D01*
X85661401Y-89126747D01*
X85681107Y-89112132D01*
X85702150Y-89099520D01*
X85724329Y-89089030D01*
X85747428Y-89080765D01*
X85771227Y-89074804D01*
X85795495Y-89071204D01*
X85819999Y-89070000D01*
X86720001Y-89070000D01*
X86744505Y-89071204D01*
X86744505Y-89071204D01*
G37*
D11*
X86270000Y-89645000D03*
G04 #@! TD*
D10*
G04 #@! TO.C,C4*
G36*
X89294505Y-89071204D02*
X89318773Y-89074804D01*
X89342572Y-89080765D01*
X89365671Y-89089030D01*
X89387850Y-89099520D01*
X89408893Y-89112132D01*
X89428599Y-89126747D01*
X89446777Y-89143223D01*
X89463253Y-89161401D01*
X89477868Y-89181107D01*
X89490480Y-89202150D01*
X89500970Y-89224329D01*
X89509235Y-89247428D01*
X89515196Y-89271227D01*
X89518796Y-89295495D01*
X89520000Y-89319999D01*
X89520000Y-89970001D01*
X89518796Y-89994505D01*
X89515196Y-90018773D01*
X89509235Y-90042572D01*
X89500970Y-90065671D01*
X89490480Y-90087850D01*
X89477868Y-90108893D01*
X89463253Y-90128599D01*
X89446777Y-90146777D01*
X89428599Y-90163253D01*
X89408893Y-90177868D01*
X89387850Y-90190480D01*
X89365671Y-90200970D01*
X89342572Y-90209235D01*
X89318773Y-90215196D01*
X89294505Y-90218796D01*
X89270001Y-90220000D01*
X88369999Y-90220000D01*
X88345495Y-90218796D01*
X88321227Y-90215196D01*
X88297428Y-90209235D01*
X88274329Y-90200970D01*
X88252150Y-90190480D01*
X88231107Y-90177868D01*
X88211401Y-90163253D01*
X88193223Y-90146777D01*
X88176747Y-90128599D01*
X88162132Y-90108893D01*
X88149520Y-90087850D01*
X88139030Y-90065671D01*
X88130765Y-90042572D01*
X88124804Y-90018773D01*
X88121204Y-89994505D01*
X88120000Y-89970001D01*
X88120000Y-89319999D01*
X88121204Y-89295495D01*
X88124804Y-89271227D01*
X88130765Y-89247428D01*
X88139030Y-89224329D01*
X88149520Y-89202150D01*
X88162132Y-89181107D01*
X88176747Y-89161401D01*
X88193223Y-89143223D01*
X88211401Y-89126747D01*
X88231107Y-89112132D01*
X88252150Y-89099520D01*
X88274329Y-89089030D01*
X88297428Y-89080765D01*
X88321227Y-89074804D01*
X88345495Y-89071204D01*
X88369999Y-89070000D01*
X89270001Y-89070000D01*
X89294505Y-89071204D01*
X89294505Y-89071204D01*
G37*
D11*
X88820000Y-89645000D03*
D10*
G36*
X89294505Y-91121204D02*
X89318773Y-91124804D01*
X89342572Y-91130765D01*
X89365671Y-91139030D01*
X89387850Y-91149520D01*
X89408893Y-91162132D01*
X89428599Y-91176747D01*
X89446777Y-91193223D01*
X89463253Y-91211401D01*
X89477868Y-91231107D01*
X89490480Y-91252150D01*
X89500970Y-91274329D01*
X89509235Y-91297428D01*
X89515196Y-91321227D01*
X89518796Y-91345495D01*
X89520000Y-91369999D01*
X89520000Y-92020001D01*
X89518796Y-92044505D01*
X89515196Y-92068773D01*
X89509235Y-92092572D01*
X89500970Y-92115671D01*
X89490480Y-92137850D01*
X89477868Y-92158893D01*
X89463253Y-92178599D01*
X89446777Y-92196777D01*
X89428599Y-92213253D01*
X89408893Y-92227868D01*
X89387850Y-92240480D01*
X89365671Y-92250970D01*
X89342572Y-92259235D01*
X89318773Y-92265196D01*
X89294505Y-92268796D01*
X89270001Y-92270000D01*
X88369999Y-92270000D01*
X88345495Y-92268796D01*
X88321227Y-92265196D01*
X88297428Y-92259235D01*
X88274329Y-92250970D01*
X88252150Y-92240480D01*
X88231107Y-92227868D01*
X88211401Y-92213253D01*
X88193223Y-92196777D01*
X88176747Y-92178599D01*
X88162132Y-92158893D01*
X88149520Y-92137850D01*
X88139030Y-92115671D01*
X88130765Y-92092572D01*
X88124804Y-92068773D01*
X88121204Y-92044505D01*
X88120000Y-92020001D01*
X88120000Y-91369999D01*
X88121204Y-91345495D01*
X88124804Y-91321227D01*
X88130765Y-91297428D01*
X88139030Y-91274329D01*
X88149520Y-91252150D01*
X88162132Y-91231107D01*
X88176747Y-91211401D01*
X88193223Y-91193223D01*
X88211401Y-91176747D01*
X88231107Y-91162132D01*
X88252150Y-91149520D01*
X88274329Y-91139030D01*
X88297428Y-91130765D01*
X88321227Y-91124804D01*
X88345495Y-91121204D01*
X88369999Y-91120000D01*
X89270001Y-91120000D01*
X89294505Y-91121204D01*
X89294505Y-91121204D01*
G37*
D11*
X88820000Y-91695000D03*
G04 #@! TD*
D10*
G04 #@! TO.C,C5*
G36*
X91944505Y-91121204D02*
X91968773Y-91124804D01*
X91992572Y-91130765D01*
X92015671Y-91139030D01*
X92037850Y-91149520D01*
X92058893Y-91162132D01*
X92078599Y-91176747D01*
X92096777Y-91193223D01*
X92113253Y-91211401D01*
X92127868Y-91231107D01*
X92140480Y-91252150D01*
X92150970Y-91274329D01*
X92159235Y-91297428D01*
X92165196Y-91321227D01*
X92168796Y-91345495D01*
X92170000Y-91369999D01*
X92170000Y-92020001D01*
X92168796Y-92044505D01*
X92165196Y-92068773D01*
X92159235Y-92092572D01*
X92150970Y-92115671D01*
X92140480Y-92137850D01*
X92127868Y-92158893D01*
X92113253Y-92178599D01*
X92096777Y-92196777D01*
X92078599Y-92213253D01*
X92058893Y-92227868D01*
X92037850Y-92240480D01*
X92015671Y-92250970D01*
X91992572Y-92259235D01*
X91968773Y-92265196D01*
X91944505Y-92268796D01*
X91920001Y-92270000D01*
X91019999Y-92270000D01*
X90995495Y-92268796D01*
X90971227Y-92265196D01*
X90947428Y-92259235D01*
X90924329Y-92250970D01*
X90902150Y-92240480D01*
X90881107Y-92227868D01*
X90861401Y-92213253D01*
X90843223Y-92196777D01*
X90826747Y-92178599D01*
X90812132Y-92158893D01*
X90799520Y-92137850D01*
X90789030Y-92115671D01*
X90780765Y-92092572D01*
X90774804Y-92068773D01*
X90771204Y-92044505D01*
X90770000Y-92020001D01*
X90770000Y-91369999D01*
X90771204Y-91345495D01*
X90774804Y-91321227D01*
X90780765Y-91297428D01*
X90789030Y-91274329D01*
X90799520Y-91252150D01*
X90812132Y-91231107D01*
X90826747Y-91211401D01*
X90843223Y-91193223D01*
X90861401Y-91176747D01*
X90881107Y-91162132D01*
X90902150Y-91149520D01*
X90924329Y-91139030D01*
X90947428Y-91130765D01*
X90971227Y-91124804D01*
X90995495Y-91121204D01*
X91019999Y-91120000D01*
X91920001Y-91120000D01*
X91944505Y-91121204D01*
X91944505Y-91121204D01*
G37*
D11*
X91470000Y-91695000D03*
D10*
G36*
X91944505Y-89071204D02*
X91968773Y-89074804D01*
X91992572Y-89080765D01*
X92015671Y-89089030D01*
X92037850Y-89099520D01*
X92058893Y-89112132D01*
X92078599Y-89126747D01*
X92096777Y-89143223D01*
X92113253Y-89161401D01*
X92127868Y-89181107D01*
X92140480Y-89202150D01*
X92150970Y-89224329D01*
X92159235Y-89247428D01*
X92165196Y-89271227D01*
X92168796Y-89295495D01*
X92170000Y-89319999D01*
X92170000Y-89970001D01*
X92168796Y-89994505D01*
X92165196Y-90018773D01*
X92159235Y-90042572D01*
X92150970Y-90065671D01*
X92140480Y-90087850D01*
X92127868Y-90108893D01*
X92113253Y-90128599D01*
X92096777Y-90146777D01*
X92078599Y-90163253D01*
X92058893Y-90177868D01*
X92037850Y-90190480D01*
X92015671Y-90200970D01*
X91992572Y-90209235D01*
X91968773Y-90215196D01*
X91944505Y-90218796D01*
X91920001Y-90220000D01*
X91019999Y-90220000D01*
X90995495Y-90218796D01*
X90971227Y-90215196D01*
X90947428Y-90209235D01*
X90924329Y-90200970D01*
X90902150Y-90190480D01*
X90881107Y-90177868D01*
X90861401Y-90163253D01*
X90843223Y-90146777D01*
X90826747Y-90128599D01*
X90812132Y-90108893D01*
X90799520Y-90087850D01*
X90789030Y-90065671D01*
X90780765Y-90042572D01*
X90774804Y-90018773D01*
X90771204Y-89994505D01*
X90770000Y-89970001D01*
X90770000Y-89319999D01*
X90771204Y-89295495D01*
X90774804Y-89271227D01*
X90780765Y-89247428D01*
X90789030Y-89224329D01*
X90799520Y-89202150D01*
X90812132Y-89181107D01*
X90826747Y-89161401D01*
X90843223Y-89143223D01*
X90861401Y-89126747D01*
X90881107Y-89112132D01*
X90902150Y-89099520D01*
X90924329Y-89089030D01*
X90947428Y-89080765D01*
X90971227Y-89074804D01*
X90995495Y-89071204D01*
X91019999Y-89070000D01*
X91920001Y-89070000D01*
X91944505Y-89071204D01*
X91944505Y-89071204D01*
G37*
D11*
X91470000Y-89645000D03*
G04 #@! TD*
D10*
G04 #@! TO.C,C6*
G36*
X94394505Y-89071204D02*
X94418773Y-89074804D01*
X94442572Y-89080765D01*
X94465671Y-89089030D01*
X94487850Y-89099520D01*
X94508893Y-89112132D01*
X94528599Y-89126747D01*
X94546777Y-89143223D01*
X94563253Y-89161401D01*
X94577868Y-89181107D01*
X94590480Y-89202150D01*
X94600970Y-89224329D01*
X94609235Y-89247428D01*
X94615196Y-89271227D01*
X94618796Y-89295495D01*
X94620000Y-89319999D01*
X94620000Y-89970001D01*
X94618796Y-89994505D01*
X94615196Y-90018773D01*
X94609235Y-90042572D01*
X94600970Y-90065671D01*
X94590480Y-90087850D01*
X94577868Y-90108893D01*
X94563253Y-90128599D01*
X94546777Y-90146777D01*
X94528599Y-90163253D01*
X94508893Y-90177868D01*
X94487850Y-90190480D01*
X94465671Y-90200970D01*
X94442572Y-90209235D01*
X94418773Y-90215196D01*
X94394505Y-90218796D01*
X94370001Y-90220000D01*
X93469999Y-90220000D01*
X93445495Y-90218796D01*
X93421227Y-90215196D01*
X93397428Y-90209235D01*
X93374329Y-90200970D01*
X93352150Y-90190480D01*
X93331107Y-90177868D01*
X93311401Y-90163253D01*
X93293223Y-90146777D01*
X93276747Y-90128599D01*
X93262132Y-90108893D01*
X93249520Y-90087850D01*
X93239030Y-90065671D01*
X93230765Y-90042572D01*
X93224804Y-90018773D01*
X93221204Y-89994505D01*
X93220000Y-89970001D01*
X93220000Y-89319999D01*
X93221204Y-89295495D01*
X93224804Y-89271227D01*
X93230765Y-89247428D01*
X93239030Y-89224329D01*
X93249520Y-89202150D01*
X93262132Y-89181107D01*
X93276747Y-89161401D01*
X93293223Y-89143223D01*
X93311401Y-89126747D01*
X93331107Y-89112132D01*
X93352150Y-89099520D01*
X93374329Y-89089030D01*
X93397428Y-89080765D01*
X93421227Y-89074804D01*
X93445495Y-89071204D01*
X93469999Y-89070000D01*
X94370001Y-89070000D01*
X94394505Y-89071204D01*
X94394505Y-89071204D01*
G37*
D11*
X93920000Y-89645000D03*
D10*
G36*
X94394505Y-91121204D02*
X94418773Y-91124804D01*
X94442572Y-91130765D01*
X94465671Y-91139030D01*
X94487850Y-91149520D01*
X94508893Y-91162132D01*
X94528599Y-91176747D01*
X94546777Y-91193223D01*
X94563253Y-91211401D01*
X94577868Y-91231107D01*
X94590480Y-91252150D01*
X94600970Y-91274329D01*
X94609235Y-91297428D01*
X94615196Y-91321227D01*
X94618796Y-91345495D01*
X94620000Y-91369999D01*
X94620000Y-92020001D01*
X94618796Y-92044505D01*
X94615196Y-92068773D01*
X94609235Y-92092572D01*
X94600970Y-92115671D01*
X94590480Y-92137850D01*
X94577868Y-92158893D01*
X94563253Y-92178599D01*
X94546777Y-92196777D01*
X94528599Y-92213253D01*
X94508893Y-92227868D01*
X94487850Y-92240480D01*
X94465671Y-92250970D01*
X94442572Y-92259235D01*
X94418773Y-92265196D01*
X94394505Y-92268796D01*
X94370001Y-92270000D01*
X93469999Y-92270000D01*
X93445495Y-92268796D01*
X93421227Y-92265196D01*
X93397428Y-92259235D01*
X93374329Y-92250970D01*
X93352150Y-92240480D01*
X93331107Y-92227868D01*
X93311401Y-92213253D01*
X93293223Y-92196777D01*
X93276747Y-92178599D01*
X93262132Y-92158893D01*
X93249520Y-92137850D01*
X93239030Y-92115671D01*
X93230765Y-92092572D01*
X93224804Y-92068773D01*
X93221204Y-92044505D01*
X93220000Y-92020001D01*
X93220000Y-91369999D01*
X93221204Y-91345495D01*
X93224804Y-91321227D01*
X93230765Y-91297428D01*
X93239030Y-91274329D01*
X93249520Y-91252150D01*
X93262132Y-91231107D01*
X93276747Y-91211401D01*
X93293223Y-91193223D01*
X93311401Y-91176747D01*
X93331107Y-91162132D01*
X93352150Y-91149520D01*
X93374329Y-91139030D01*
X93397428Y-91130765D01*
X93421227Y-91124804D01*
X93445495Y-91121204D01*
X93469999Y-91120000D01*
X94370001Y-91120000D01*
X94394505Y-91121204D01*
X94394505Y-91121204D01*
G37*
D11*
X93920000Y-91695000D03*
G04 #@! TD*
D10*
G04 #@! TO.C,C7*
G36*
X96944505Y-91121204D02*
X96968773Y-91124804D01*
X96992572Y-91130765D01*
X97015671Y-91139030D01*
X97037850Y-91149520D01*
X97058893Y-91162132D01*
X97078599Y-91176747D01*
X97096777Y-91193223D01*
X97113253Y-91211401D01*
X97127868Y-91231107D01*
X97140480Y-91252150D01*
X97150970Y-91274329D01*
X97159235Y-91297428D01*
X97165196Y-91321227D01*
X97168796Y-91345495D01*
X97170000Y-91369999D01*
X97170000Y-92020001D01*
X97168796Y-92044505D01*
X97165196Y-92068773D01*
X97159235Y-92092572D01*
X97150970Y-92115671D01*
X97140480Y-92137850D01*
X97127868Y-92158893D01*
X97113253Y-92178599D01*
X97096777Y-92196777D01*
X97078599Y-92213253D01*
X97058893Y-92227868D01*
X97037850Y-92240480D01*
X97015671Y-92250970D01*
X96992572Y-92259235D01*
X96968773Y-92265196D01*
X96944505Y-92268796D01*
X96920001Y-92270000D01*
X96019999Y-92270000D01*
X95995495Y-92268796D01*
X95971227Y-92265196D01*
X95947428Y-92259235D01*
X95924329Y-92250970D01*
X95902150Y-92240480D01*
X95881107Y-92227868D01*
X95861401Y-92213253D01*
X95843223Y-92196777D01*
X95826747Y-92178599D01*
X95812132Y-92158893D01*
X95799520Y-92137850D01*
X95789030Y-92115671D01*
X95780765Y-92092572D01*
X95774804Y-92068773D01*
X95771204Y-92044505D01*
X95770000Y-92020001D01*
X95770000Y-91369999D01*
X95771204Y-91345495D01*
X95774804Y-91321227D01*
X95780765Y-91297428D01*
X95789030Y-91274329D01*
X95799520Y-91252150D01*
X95812132Y-91231107D01*
X95826747Y-91211401D01*
X95843223Y-91193223D01*
X95861401Y-91176747D01*
X95881107Y-91162132D01*
X95902150Y-91149520D01*
X95924329Y-91139030D01*
X95947428Y-91130765D01*
X95971227Y-91124804D01*
X95995495Y-91121204D01*
X96019999Y-91120000D01*
X96920001Y-91120000D01*
X96944505Y-91121204D01*
X96944505Y-91121204D01*
G37*
D11*
X96470000Y-91695000D03*
D10*
G36*
X96944505Y-89071204D02*
X96968773Y-89074804D01*
X96992572Y-89080765D01*
X97015671Y-89089030D01*
X97037850Y-89099520D01*
X97058893Y-89112132D01*
X97078599Y-89126747D01*
X97096777Y-89143223D01*
X97113253Y-89161401D01*
X97127868Y-89181107D01*
X97140480Y-89202150D01*
X97150970Y-89224329D01*
X97159235Y-89247428D01*
X97165196Y-89271227D01*
X97168796Y-89295495D01*
X97170000Y-89319999D01*
X97170000Y-89970001D01*
X97168796Y-89994505D01*
X97165196Y-90018773D01*
X97159235Y-90042572D01*
X97150970Y-90065671D01*
X97140480Y-90087850D01*
X97127868Y-90108893D01*
X97113253Y-90128599D01*
X97096777Y-90146777D01*
X97078599Y-90163253D01*
X97058893Y-90177868D01*
X97037850Y-90190480D01*
X97015671Y-90200970D01*
X96992572Y-90209235D01*
X96968773Y-90215196D01*
X96944505Y-90218796D01*
X96920001Y-90220000D01*
X96019999Y-90220000D01*
X95995495Y-90218796D01*
X95971227Y-90215196D01*
X95947428Y-90209235D01*
X95924329Y-90200970D01*
X95902150Y-90190480D01*
X95881107Y-90177868D01*
X95861401Y-90163253D01*
X95843223Y-90146777D01*
X95826747Y-90128599D01*
X95812132Y-90108893D01*
X95799520Y-90087850D01*
X95789030Y-90065671D01*
X95780765Y-90042572D01*
X95774804Y-90018773D01*
X95771204Y-89994505D01*
X95770000Y-89970001D01*
X95770000Y-89319999D01*
X95771204Y-89295495D01*
X95774804Y-89271227D01*
X95780765Y-89247428D01*
X95789030Y-89224329D01*
X95799520Y-89202150D01*
X95812132Y-89181107D01*
X95826747Y-89161401D01*
X95843223Y-89143223D01*
X95861401Y-89126747D01*
X95881107Y-89112132D01*
X95902150Y-89099520D01*
X95924329Y-89089030D01*
X95947428Y-89080765D01*
X95971227Y-89074804D01*
X95995495Y-89071204D01*
X96019999Y-89070000D01*
X96920001Y-89070000D01*
X96944505Y-89071204D01*
X96944505Y-89071204D01*
G37*
D11*
X96470000Y-89645000D03*
G04 #@! TD*
D10*
G04 #@! TO.C,C8*
G36*
X99494505Y-89071204D02*
X99518773Y-89074804D01*
X99542572Y-89080765D01*
X99565671Y-89089030D01*
X99587850Y-89099520D01*
X99608893Y-89112132D01*
X99628599Y-89126747D01*
X99646777Y-89143223D01*
X99663253Y-89161401D01*
X99677868Y-89181107D01*
X99690480Y-89202150D01*
X99700970Y-89224329D01*
X99709235Y-89247428D01*
X99715196Y-89271227D01*
X99718796Y-89295495D01*
X99720000Y-89319999D01*
X99720000Y-89970001D01*
X99718796Y-89994505D01*
X99715196Y-90018773D01*
X99709235Y-90042572D01*
X99700970Y-90065671D01*
X99690480Y-90087850D01*
X99677868Y-90108893D01*
X99663253Y-90128599D01*
X99646777Y-90146777D01*
X99628599Y-90163253D01*
X99608893Y-90177868D01*
X99587850Y-90190480D01*
X99565671Y-90200970D01*
X99542572Y-90209235D01*
X99518773Y-90215196D01*
X99494505Y-90218796D01*
X99470001Y-90220000D01*
X98569999Y-90220000D01*
X98545495Y-90218796D01*
X98521227Y-90215196D01*
X98497428Y-90209235D01*
X98474329Y-90200970D01*
X98452150Y-90190480D01*
X98431107Y-90177868D01*
X98411401Y-90163253D01*
X98393223Y-90146777D01*
X98376747Y-90128599D01*
X98362132Y-90108893D01*
X98349520Y-90087850D01*
X98339030Y-90065671D01*
X98330765Y-90042572D01*
X98324804Y-90018773D01*
X98321204Y-89994505D01*
X98320000Y-89970001D01*
X98320000Y-89319999D01*
X98321204Y-89295495D01*
X98324804Y-89271227D01*
X98330765Y-89247428D01*
X98339030Y-89224329D01*
X98349520Y-89202150D01*
X98362132Y-89181107D01*
X98376747Y-89161401D01*
X98393223Y-89143223D01*
X98411401Y-89126747D01*
X98431107Y-89112132D01*
X98452150Y-89099520D01*
X98474329Y-89089030D01*
X98497428Y-89080765D01*
X98521227Y-89074804D01*
X98545495Y-89071204D01*
X98569999Y-89070000D01*
X99470001Y-89070000D01*
X99494505Y-89071204D01*
X99494505Y-89071204D01*
G37*
D11*
X99020000Y-89645000D03*
D10*
G36*
X99494505Y-91121204D02*
X99518773Y-91124804D01*
X99542572Y-91130765D01*
X99565671Y-91139030D01*
X99587850Y-91149520D01*
X99608893Y-91162132D01*
X99628599Y-91176747D01*
X99646777Y-91193223D01*
X99663253Y-91211401D01*
X99677868Y-91231107D01*
X99690480Y-91252150D01*
X99700970Y-91274329D01*
X99709235Y-91297428D01*
X99715196Y-91321227D01*
X99718796Y-91345495D01*
X99720000Y-91369999D01*
X99720000Y-92020001D01*
X99718796Y-92044505D01*
X99715196Y-92068773D01*
X99709235Y-92092572D01*
X99700970Y-92115671D01*
X99690480Y-92137850D01*
X99677868Y-92158893D01*
X99663253Y-92178599D01*
X99646777Y-92196777D01*
X99628599Y-92213253D01*
X99608893Y-92227868D01*
X99587850Y-92240480D01*
X99565671Y-92250970D01*
X99542572Y-92259235D01*
X99518773Y-92265196D01*
X99494505Y-92268796D01*
X99470001Y-92270000D01*
X98569999Y-92270000D01*
X98545495Y-92268796D01*
X98521227Y-92265196D01*
X98497428Y-92259235D01*
X98474329Y-92250970D01*
X98452150Y-92240480D01*
X98431107Y-92227868D01*
X98411401Y-92213253D01*
X98393223Y-92196777D01*
X98376747Y-92178599D01*
X98362132Y-92158893D01*
X98349520Y-92137850D01*
X98339030Y-92115671D01*
X98330765Y-92092572D01*
X98324804Y-92068773D01*
X98321204Y-92044505D01*
X98320000Y-92020001D01*
X98320000Y-91369999D01*
X98321204Y-91345495D01*
X98324804Y-91321227D01*
X98330765Y-91297428D01*
X98339030Y-91274329D01*
X98349520Y-91252150D01*
X98362132Y-91231107D01*
X98376747Y-91211401D01*
X98393223Y-91193223D01*
X98411401Y-91176747D01*
X98431107Y-91162132D01*
X98452150Y-91149520D01*
X98474329Y-91139030D01*
X98497428Y-91130765D01*
X98521227Y-91124804D01*
X98545495Y-91121204D01*
X98569999Y-91120000D01*
X99470001Y-91120000D01*
X99494505Y-91121204D01*
X99494505Y-91121204D01*
G37*
D11*
X99020000Y-91695000D03*
G04 #@! TD*
D10*
G04 #@! TO.C,C1*
G36*
X81794505Y-91121204D02*
X81818773Y-91124804D01*
X81842572Y-91130765D01*
X81865671Y-91139030D01*
X81887850Y-91149520D01*
X81908893Y-91162132D01*
X81928599Y-91176747D01*
X81946777Y-91193223D01*
X81963253Y-91211401D01*
X81977868Y-91231107D01*
X81990480Y-91252150D01*
X82000970Y-91274329D01*
X82009235Y-91297428D01*
X82015196Y-91321227D01*
X82018796Y-91345495D01*
X82020000Y-91369999D01*
X82020000Y-92020001D01*
X82018796Y-92044505D01*
X82015196Y-92068773D01*
X82009235Y-92092572D01*
X82000970Y-92115671D01*
X81990480Y-92137850D01*
X81977868Y-92158893D01*
X81963253Y-92178599D01*
X81946777Y-92196777D01*
X81928599Y-92213253D01*
X81908893Y-92227868D01*
X81887850Y-92240480D01*
X81865671Y-92250970D01*
X81842572Y-92259235D01*
X81818773Y-92265196D01*
X81794505Y-92268796D01*
X81770001Y-92270000D01*
X80869999Y-92270000D01*
X80845495Y-92268796D01*
X80821227Y-92265196D01*
X80797428Y-92259235D01*
X80774329Y-92250970D01*
X80752150Y-92240480D01*
X80731107Y-92227868D01*
X80711401Y-92213253D01*
X80693223Y-92196777D01*
X80676747Y-92178599D01*
X80662132Y-92158893D01*
X80649520Y-92137850D01*
X80639030Y-92115671D01*
X80630765Y-92092572D01*
X80624804Y-92068773D01*
X80621204Y-92044505D01*
X80620000Y-92020001D01*
X80620000Y-91369999D01*
X80621204Y-91345495D01*
X80624804Y-91321227D01*
X80630765Y-91297428D01*
X80639030Y-91274329D01*
X80649520Y-91252150D01*
X80662132Y-91231107D01*
X80676747Y-91211401D01*
X80693223Y-91193223D01*
X80711401Y-91176747D01*
X80731107Y-91162132D01*
X80752150Y-91149520D01*
X80774329Y-91139030D01*
X80797428Y-91130765D01*
X80821227Y-91124804D01*
X80845495Y-91121204D01*
X80869999Y-91120000D01*
X81770001Y-91120000D01*
X81794505Y-91121204D01*
X81794505Y-91121204D01*
G37*
D11*
X81320000Y-91695000D03*
D10*
G36*
X81794505Y-89071204D02*
X81818773Y-89074804D01*
X81842572Y-89080765D01*
X81865671Y-89089030D01*
X81887850Y-89099520D01*
X81908893Y-89112132D01*
X81928599Y-89126747D01*
X81946777Y-89143223D01*
X81963253Y-89161401D01*
X81977868Y-89181107D01*
X81990480Y-89202150D01*
X82000970Y-89224329D01*
X82009235Y-89247428D01*
X82015196Y-89271227D01*
X82018796Y-89295495D01*
X82020000Y-89319999D01*
X82020000Y-89970001D01*
X82018796Y-89994505D01*
X82015196Y-90018773D01*
X82009235Y-90042572D01*
X82000970Y-90065671D01*
X81990480Y-90087850D01*
X81977868Y-90108893D01*
X81963253Y-90128599D01*
X81946777Y-90146777D01*
X81928599Y-90163253D01*
X81908893Y-90177868D01*
X81887850Y-90190480D01*
X81865671Y-90200970D01*
X81842572Y-90209235D01*
X81818773Y-90215196D01*
X81794505Y-90218796D01*
X81770001Y-90220000D01*
X80869999Y-90220000D01*
X80845495Y-90218796D01*
X80821227Y-90215196D01*
X80797428Y-90209235D01*
X80774329Y-90200970D01*
X80752150Y-90190480D01*
X80731107Y-90177868D01*
X80711401Y-90163253D01*
X80693223Y-90146777D01*
X80676747Y-90128599D01*
X80662132Y-90108893D01*
X80649520Y-90087850D01*
X80639030Y-90065671D01*
X80630765Y-90042572D01*
X80624804Y-90018773D01*
X80621204Y-89994505D01*
X80620000Y-89970001D01*
X80620000Y-89319999D01*
X80621204Y-89295495D01*
X80624804Y-89271227D01*
X80630765Y-89247428D01*
X80639030Y-89224329D01*
X80649520Y-89202150D01*
X80662132Y-89181107D01*
X80676747Y-89161401D01*
X80693223Y-89143223D01*
X80711401Y-89126747D01*
X80731107Y-89112132D01*
X80752150Y-89099520D01*
X80774329Y-89089030D01*
X80797428Y-89080765D01*
X80821227Y-89074804D01*
X80845495Y-89071204D01*
X80869999Y-89070000D01*
X81770001Y-89070000D01*
X81794505Y-89071204D01*
X81794505Y-89071204D01*
G37*
D11*
X81320000Y-89645000D03*
G04 #@! TD*
D10*
G04 #@! TO.C,R8*
G36*
X99594505Y-86721204D02*
X99618773Y-86724804D01*
X99642572Y-86730765D01*
X99665671Y-86739030D01*
X99687850Y-86749520D01*
X99708893Y-86762132D01*
X99728599Y-86776747D01*
X99746777Y-86793223D01*
X99763253Y-86811401D01*
X99777868Y-86831107D01*
X99790480Y-86852150D01*
X99800970Y-86874329D01*
X99809235Y-86897428D01*
X99815196Y-86921227D01*
X99818796Y-86945495D01*
X99820000Y-86969999D01*
X99820000Y-87620001D01*
X99818796Y-87644505D01*
X99815196Y-87668773D01*
X99809235Y-87692572D01*
X99800970Y-87715671D01*
X99790480Y-87737850D01*
X99777868Y-87758893D01*
X99763253Y-87778599D01*
X99746777Y-87796777D01*
X99728599Y-87813253D01*
X99708893Y-87827868D01*
X99687850Y-87840480D01*
X99665671Y-87850970D01*
X99642572Y-87859235D01*
X99618773Y-87865196D01*
X99594505Y-87868796D01*
X99570001Y-87870000D01*
X98669999Y-87870000D01*
X98645495Y-87868796D01*
X98621227Y-87865196D01*
X98597428Y-87859235D01*
X98574329Y-87850970D01*
X98552150Y-87840480D01*
X98531107Y-87827868D01*
X98511401Y-87813253D01*
X98493223Y-87796777D01*
X98476747Y-87778599D01*
X98462132Y-87758893D01*
X98449520Y-87737850D01*
X98439030Y-87715671D01*
X98430765Y-87692572D01*
X98424804Y-87668773D01*
X98421204Y-87644505D01*
X98420000Y-87620001D01*
X98420000Y-86969999D01*
X98421204Y-86945495D01*
X98424804Y-86921227D01*
X98430765Y-86897428D01*
X98439030Y-86874329D01*
X98449520Y-86852150D01*
X98462132Y-86831107D01*
X98476747Y-86811401D01*
X98493223Y-86793223D01*
X98511401Y-86776747D01*
X98531107Y-86762132D01*
X98552150Y-86749520D01*
X98574329Y-86739030D01*
X98597428Y-86730765D01*
X98621227Y-86724804D01*
X98645495Y-86721204D01*
X98669999Y-86720000D01*
X99570001Y-86720000D01*
X99594505Y-86721204D01*
X99594505Y-86721204D01*
G37*
D11*
X99120000Y-87295000D03*
D10*
G36*
X99594505Y-84671204D02*
X99618773Y-84674804D01*
X99642572Y-84680765D01*
X99665671Y-84689030D01*
X99687850Y-84699520D01*
X99708893Y-84712132D01*
X99728599Y-84726747D01*
X99746777Y-84743223D01*
X99763253Y-84761401D01*
X99777868Y-84781107D01*
X99790480Y-84802150D01*
X99800970Y-84824329D01*
X99809235Y-84847428D01*
X99815196Y-84871227D01*
X99818796Y-84895495D01*
X99820000Y-84919999D01*
X99820000Y-85570001D01*
X99818796Y-85594505D01*
X99815196Y-85618773D01*
X99809235Y-85642572D01*
X99800970Y-85665671D01*
X99790480Y-85687850D01*
X99777868Y-85708893D01*
X99763253Y-85728599D01*
X99746777Y-85746777D01*
X99728599Y-85763253D01*
X99708893Y-85777868D01*
X99687850Y-85790480D01*
X99665671Y-85800970D01*
X99642572Y-85809235D01*
X99618773Y-85815196D01*
X99594505Y-85818796D01*
X99570001Y-85820000D01*
X98669999Y-85820000D01*
X98645495Y-85818796D01*
X98621227Y-85815196D01*
X98597428Y-85809235D01*
X98574329Y-85800970D01*
X98552150Y-85790480D01*
X98531107Y-85777868D01*
X98511401Y-85763253D01*
X98493223Y-85746777D01*
X98476747Y-85728599D01*
X98462132Y-85708893D01*
X98449520Y-85687850D01*
X98439030Y-85665671D01*
X98430765Y-85642572D01*
X98424804Y-85618773D01*
X98421204Y-85594505D01*
X98420000Y-85570001D01*
X98420000Y-84919999D01*
X98421204Y-84895495D01*
X98424804Y-84871227D01*
X98430765Y-84847428D01*
X98439030Y-84824329D01*
X98449520Y-84802150D01*
X98462132Y-84781107D01*
X98476747Y-84761401D01*
X98493223Y-84743223D01*
X98511401Y-84726747D01*
X98531107Y-84712132D01*
X98552150Y-84699520D01*
X98574329Y-84689030D01*
X98597428Y-84680765D01*
X98621227Y-84674804D01*
X98645495Y-84671204D01*
X98669999Y-84670000D01*
X99570001Y-84670000D01*
X99594505Y-84671204D01*
X99594505Y-84671204D01*
G37*
D11*
X99120000Y-85245000D03*
G04 #@! TD*
D10*
G04 #@! TO.C,R1*
G36*
X81794505Y-84671204D02*
X81818773Y-84674804D01*
X81842572Y-84680765D01*
X81865671Y-84689030D01*
X81887850Y-84699520D01*
X81908893Y-84712132D01*
X81928599Y-84726747D01*
X81946777Y-84743223D01*
X81963253Y-84761401D01*
X81977868Y-84781107D01*
X81990480Y-84802150D01*
X82000970Y-84824329D01*
X82009235Y-84847428D01*
X82015196Y-84871227D01*
X82018796Y-84895495D01*
X82020000Y-84919999D01*
X82020000Y-85570001D01*
X82018796Y-85594505D01*
X82015196Y-85618773D01*
X82009235Y-85642572D01*
X82000970Y-85665671D01*
X81990480Y-85687850D01*
X81977868Y-85708893D01*
X81963253Y-85728599D01*
X81946777Y-85746777D01*
X81928599Y-85763253D01*
X81908893Y-85777868D01*
X81887850Y-85790480D01*
X81865671Y-85800970D01*
X81842572Y-85809235D01*
X81818773Y-85815196D01*
X81794505Y-85818796D01*
X81770001Y-85820000D01*
X80869999Y-85820000D01*
X80845495Y-85818796D01*
X80821227Y-85815196D01*
X80797428Y-85809235D01*
X80774329Y-85800970D01*
X80752150Y-85790480D01*
X80731107Y-85777868D01*
X80711401Y-85763253D01*
X80693223Y-85746777D01*
X80676747Y-85728599D01*
X80662132Y-85708893D01*
X80649520Y-85687850D01*
X80639030Y-85665671D01*
X80630765Y-85642572D01*
X80624804Y-85618773D01*
X80621204Y-85594505D01*
X80620000Y-85570001D01*
X80620000Y-84919999D01*
X80621204Y-84895495D01*
X80624804Y-84871227D01*
X80630765Y-84847428D01*
X80639030Y-84824329D01*
X80649520Y-84802150D01*
X80662132Y-84781107D01*
X80676747Y-84761401D01*
X80693223Y-84743223D01*
X80711401Y-84726747D01*
X80731107Y-84712132D01*
X80752150Y-84699520D01*
X80774329Y-84689030D01*
X80797428Y-84680765D01*
X80821227Y-84674804D01*
X80845495Y-84671204D01*
X80869999Y-84670000D01*
X81770001Y-84670000D01*
X81794505Y-84671204D01*
X81794505Y-84671204D01*
G37*
D11*
X81320000Y-85245000D03*
D10*
G36*
X81794505Y-86721204D02*
X81818773Y-86724804D01*
X81842572Y-86730765D01*
X81865671Y-86739030D01*
X81887850Y-86749520D01*
X81908893Y-86762132D01*
X81928599Y-86776747D01*
X81946777Y-86793223D01*
X81963253Y-86811401D01*
X81977868Y-86831107D01*
X81990480Y-86852150D01*
X82000970Y-86874329D01*
X82009235Y-86897428D01*
X82015196Y-86921227D01*
X82018796Y-86945495D01*
X82020000Y-86969999D01*
X82020000Y-87620001D01*
X82018796Y-87644505D01*
X82015196Y-87668773D01*
X82009235Y-87692572D01*
X82000970Y-87715671D01*
X81990480Y-87737850D01*
X81977868Y-87758893D01*
X81963253Y-87778599D01*
X81946777Y-87796777D01*
X81928599Y-87813253D01*
X81908893Y-87827868D01*
X81887850Y-87840480D01*
X81865671Y-87850970D01*
X81842572Y-87859235D01*
X81818773Y-87865196D01*
X81794505Y-87868796D01*
X81770001Y-87870000D01*
X80869999Y-87870000D01*
X80845495Y-87868796D01*
X80821227Y-87865196D01*
X80797428Y-87859235D01*
X80774329Y-87850970D01*
X80752150Y-87840480D01*
X80731107Y-87827868D01*
X80711401Y-87813253D01*
X80693223Y-87796777D01*
X80676747Y-87778599D01*
X80662132Y-87758893D01*
X80649520Y-87737850D01*
X80639030Y-87715671D01*
X80630765Y-87692572D01*
X80624804Y-87668773D01*
X80621204Y-87644505D01*
X80620000Y-87620001D01*
X80620000Y-86969999D01*
X80621204Y-86945495D01*
X80624804Y-86921227D01*
X80630765Y-86897428D01*
X80639030Y-86874329D01*
X80649520Y-86852150D01*
X80662132Y-86831107D01*
X80676747Y-86811401D01*
X80693223Y-86793223D01*
X80711401Y-86776747D01*
X80731107Y-86762132D01*
X80752150Y-86749520D01*
X80774329Y-86739030D01*
X80797428Y-86730765D01*
X80821227Y-86724804D01*
X80845495Y-86721204D01*
X80869999Y-86720000D01*
X81770001Y-86720000D01*
X81794505Y-86721204D01*
X81794505Y-86721204D01*
G37*
D11*
X81320000Y-87295000D03*
G04 #@! TD*
D10*
G04 #@! TO.C,R2*
G36*
X84394505Y-86721204D02*
X84418773Y-86724804D01*
X84442572Y-86730765D01*
X84465671Y-86739030D01*
X84487850Y-86749520D01*
X84508893Y-86762132D01*
X84528599Y-86776747D01*
X84546777Y-86793223D01*
X84563253Y-86811401D01*
X84577868Y-86831107D01*
X84590480Y-86852150D01*
X84600970Y-86874329D01*
X84609235Y-86897428D01*
X84615196Y-86921227D01*
X84618796Y-86945495D01*
X84620000Y-86969999D01*
X84620000Y-87620001D01*
X84618796Y-87644505D01*
X84615196Y-87668773D01*
X84609235Y-87692572D01*
X84600970Y-87715671D01*
X84590480Y-87737850D01*
X84577868Y-87758893D01*
X84563253Y-87778599D01*
X84546777Y-87796777D01*
X84528599Y-87813253D01*
X84508893Y-87827868D01*
X84487850Y-87840480D01*
X84465671Y-87850970D01*
X84442572Y-87859235D01*
X84418773Y-87865196D01*
X84394505Y-87868796D01*
X84370001Y-87870000D01*
X83469999Y-87870000D01*
X83445495Y-87868796D01*
X83421227Y-87865196D01*
X83397428Y-87859235D01*
X83374329Y-87850970D01*
X83352150Y-87840480D01*
X83331107Y-87827868D01*
X83311401Y-87813253D01*
X83293223Y-87796777D01*
X83276747Y-87778599D01*
X83262132Y-87758893D01*
X83249520Y-87737850D01*
X83239030Y-87715671D01*
X83230765Y-87692572D01*
X83224804Y-87668773D01*
X83221204Y-87644505D01*
X83220000Y-87620001D01*
X83220000Y-86969999D01*
X83221204Y-86945495D01*
X83224804Y-86921227D01*
X83230765Y-86897428D01*
X83239030Y-86874329D01*
X83249520Y-86852150D01*
X83262132Y-86831107D01*
X83276747Y-86811401D01*
X83293223Y-86793223D01*
X83311401Y-86776747D01*
X83331107Y-86762132D01*
X83352150Y-86749520D01*
X83374329Y-86739030D01*
X83397428Y-86730765D01*
X83421227Y-86724804D01*
X83445495Y-86721204D01*
X83469999Y-86720000D01*
X84370001Y-86720000D01*
X84394505Y-86721204D01*
X84394505Y-86721204D01*
G37*
D11*
X83920000Y-87295000D03*
D10*
G36*
X84394505Y-84671204D02*
X84418773Y-84674804D01*
X84442572Y-84680765D01*
X84465671Y-84689030D01*
X84487850Y-84699520D01*
X84508893Y-84712132D01*
X84528599Y-84726747D01*
X84546777Y-84743223D01*
X84563253Y-84761401D01*
X84577868Y-84781107D01*
X84590480Y-84802150D01*
X84600970Y-84824329D01*
X84609235Y-84847428D01*
X84615196Y-84871227D01*
X84618796Y-84895495D01*
X84620000Y-84919999D01*
X84620000Y-85570001D01*
X84618796Y-85594505D01*
X84615196Y-85618773D01*
X84609235Y-85642572D01*
X84600970Y-85665671D01*
X84590480Y-85687850D01*
X84577868Y-85708893D01*
X84563253Y-85728599D01*
X84546777Y-85746777D01*
X84528599Y-85763253D01*
X84508893Y-85777868D01*
X84487850Y-85790480D01*
X84465671Y-85800970D01*
X84442572Y-85809235D01*
X84418773Y-85815196D01*
X84394505Y-85818796D01*
X84370001Y-85820000D01*
X83469999Y-85820000D01*
X83445495Y-85818796D01*
X83421227Y-85815196D01*
X83397428Y-85809235D01*
X83374329Y-85800970D01*
X83352150Y-85790480D01*
X83331107Y-85777868D01*
X83311401Y-85763253D01*
X83293223Y-85746777D01*
X83276747Y-85728599D01*
X83262132Y-85708893D01*
X83249520Y-85687850D01*
X83239030Y-85665671D01*
X83230765Y-85642572D01*
X83224804Y-85618773D01*
X83221204Y-85594505D01*
X83220000Y-85570001D01*
X83220000Y-84919999D01*
X83221204Y-84895495D01*
X83224804Y-84871227D01*
X83230765Y-84847428D01*
X83239030Y-84824329D01*
X83249520Y-84802150D01*
X83262132Y-84781107D01*
X83276747Y-84761401D01*
X83293223Y-84743223D01*
X83311401Y-84726747D01*
X83331107Y-84712132D01*
X83352150Y-84699520D01*
X83374329Y-84689030D01*
X83397428Y-84680765D01*
X83421227Y-84674804D01*
X83445495Y-84671204D01*
X83469999Y-84670000D01*
X84370001Y-84670000D01*
X84394505Y-84671204D01*
X84394505Y-84671204D01*
G37*
D11*
X83920000Y-85245000D03*
G04 #@! TD*
D10*
G04 #@! TO.C,R3*
G36*
X86944505Y-84671204D02*
X86968773Y-84674804D01*
X86992572Y-84680765D01*
X87015671Y-84689030D01*
X87037850Y-84699520D01*
X87058893Y-84712132D01*
X87078599Y-84726747D01*
X87096777Y-84743223D01*
X87113253Y-84761401D01*
X87127868Y-84781107D01*
X87140480Y-84802150D01*
X87150970Y-84824329D01*
X87159235Y-84847428D01*
X87165196Y-84871227D01*
X87168796Y-84895495D01*
X87170000Y-84919999D01*
X87170000Y-85570001D01*
X87168796Y-85594505D01*
X87165196Y-85618773D01*
X87159235Y-85642572D01*
X87150970Y-85665671D01*
X87140480Y-85687850D01*
X87127868Y-85708893D01*
X87113253Y-85728599D01*
X87096777Y-85746777D01*
X87078599Y-85763253D01*
X87058893Y-85777868D01*
X87037850Y-85790480D01*
X87015671Y-85800970D01*
X86992572Y-85809235D01*
X86968773Y-85815196D01*
X86944505Y-85818796D01*
X86920001Y-85820000D01*
X86019999Y-85820000D01*
X85995495Y-85818796D01*
X85971227Y-85815196D01*
X85947428Y-85809235D01*
X85924329Y-85800970D01*
X85902150Y-85790480D01*
X85881107Y-85777868D01*
X85861401Y-85763253D01*
X85843223Y-85746777D01*
X85826747Y-85728599D01*
X85812132Y-85708893D01*
X85799520Y-85687850D01*
X85789030Y-85665671D01*
X85780765Y-85642572D01*
X85774804Y-85618773D01*
X85771204Y-85594505D01*
X85770000Y-85570001D01*
X85770000Y-84919999D01*
X85771204Y-84895495D01*
X85774804Y-84871227D01*
X85780765Y-84847428D01*
X85789030Y-84824329D01*
X85799520Y-84802150D01*
X85812132Y-84781107D01*
X85826747Y-84761401D01*
X85843223Y-84743223D01*
X85861401Y-84726747D01*
X85881107Y-84712132D01*
X85902150Y-84699520D01*
X85924329Y-84689030D01*
X85947428Y-84680765D01*
X85971227Y-84674804D01*
X85995495Y-84671204D01*
X86019999Y-84670000D01*
X86920001Y-84670000D01*
X86944505Y-84671204D01*
X86944505Y-84671204D01*
G37*
D11*
X86470000Y-85245000D03*
D10*
G36*
X86944505Y-86721204D02*
X86968773Y-86724804D01*
X86992572Y-86730765D01*
X87015671Y-86739030D01*
X87037850Y-86749520D01*
X87058893Y-86762132D01*
X87078599Y-86776747D01*
X87096777Y-86793223D01*
X87113253Y-86811401D01*
X87127868Y-86831107D01*
X87140480Y-86852150D01*
X87150970Y-86874329D01*
X87159235Y-86897428D01*
X87165196Y-86921227D01*
X87168796Y-86945495D01*
X87170000Y-86969999D01*
X87170000Y-87620001D01*
X87168796Y-87644505D01*
X87165196Y-87668773D01*
X87159235Y-87692572D01*
X87150970Y-87715671D01*
X87140480Y-87737850D01*
X87127868Y-87758893D01*
X87113253Y-87778599D01*
X87096777Y-87796777D01*
X87078599Y-87813253D01*
X87058893Y-87827868D01*
X87037850Y-87840480D01*
X87015671Y-87850970D01*
X86992572Y-87859235D01*
X86968773Y-87865196D01*
X86944505Y-87868796D01*
X86920001Y-87870000D01*
X86019999Y-87870000D01*
X85995495Y-87868796D01*
X85971227Y-87865196D01*
X85947428Y-87859235D01*
X85924329Y-87850970D01*
X85902150Y-87840480D01*
X85881107Y-87827868D01*
X85861401Y-87813253D01*
X85843223Y-87796777D01*
X85826747Y-87778599D01*
X85812132Y-87758893D01*
X85799520Y-87737850D01*
X85789030Y-87715671D01*
X85780765Y-87692572D01*
X85774804Y-87668773D01*
X85771204Y-87644505D01*
X85770000Y-87620001D01*
X85770000Y-86969999D01*
X85771204Y-86945495D01*
X85774804Y-86921227D01*
X85780765Y-86897428D01*
X85789030Y-86874329D01*
X85799520Y-86852150D01*
X85812132Y-86831107D01*
X85826747Y-86811401D01*
X85843223Y-86793223D01*
X85861401Y-86776747D01*
X85881107Y-86762132D01*
X85902150Y-86749520D01*
X85924329Y-86739030D01*
X85947428Y-86730765D01*
X85971227Y-86724804D01*
X85995495Y-86721204D01*
X86019999Y-86720000D01*
X86920001Y-86720000D01*
X86944505Y-86721204D01*
X86944505Y-86721204D01*
G37*
D11*
X86470000Y-87295000D03*
G04 #@! TD*
D10*
G04 #@! TO.C,R4*
G36*
X89494505Y-86721204D02*
X89518773Y-86724804D01*
X89542572Y-86730765D01*
X89565671Y-86739030D01*
X89587850Y-86749520D01*
X89608893Y-86762132D01*
X89628599Y-86776747D01*
X89646777Y-86793223D01*
X89663253Y-86811401D01*
X89677868Y-86831107D01*
X89690480Y-86852150D01*
X89700970Y-86874329D01*
X89709235Y-86897428D01*
X89715196Y-86921227D01*
X89718796Y-86945495D01*
X89720000Y-86969999D01*
X89720000Y-87620001D01*
X89718796Y-87644505D01*
X89715196Y-87668773D01*
X89709235Y-87692572D01*
X89700970Y-87715671D01*
X89690480Y-87737850D01*
X89677868Y-87758893D01*
X89663253Y-87778599D01*
X89646777Y-87796777D01*
X89628599Y-87813253D01*
X89608893Y-87827868D01*
X89587850Y-87840480D01*
X89565671Y-87850970D01*
X89542572Y-87859235D01*
X89518773Y-87865196D01*
X89494505Y-87868796D01*
X89470001Y-87870000D01*
X88569999Y-87870000D01*
X88545495Y-87868796D01*
X88521227Y-87865196D01*
X88497428Y-87859235D01*
X88474329Y-87850970D01*
X88452150Y-87840480D01*
X88431107Y-87827868D01*
X88411401Y-87813253D01*
X88393223Y-87796777D01*
X88376747Y-87778599D01*
X88362132Y-87758893D01*
X88349520Y-87737850D01*
X88339030Y-87715671D01*
X88330765Y-87692572D01*
X88324804Y-87668773D01*
X88321204Y-87644505D01*
X88320000Y-87620001D01*
X88320000Y-86969999D01*
X88321204Y-86945495D01*
X88324804Y-86921227D01*
X88330765Y-86897428D01*
X88339030Y-86874329D01*
X88349520Y-86852150D01*
X88362132Y-86831107D01*
X88376747Y-86811401D01*
X88393223Y-86793223D01*
X88411401Y-86776747D01*
X88431107Y-86762132D01*
X88452150Y-86749520D01*
X88474329Y-86739030D01*
X88497428Y-86730765D01*
X88521227Y-86724804D01*
X88545495Y-86721204D01*
X88569999Y-86720000D01*
X89470001Y-86720000D01*
X89494505Y-86721204D01*
X89494505Y-86721204D01*
G37*
D11*
X89020000Y-87295000D03*
D10*
G36*
X89494505Y-84671204D02*
X89518773Y-84674804D01*
X89542572Y-84680765D01*
X89565671Y-84689030D01*
X89587850Y-84699520D01*
X89608893Y-84712132D01*
X89628599Y-84726747D01*
X89646777Y-84743223D01*
X89663253Y-84761401D01*
X89677868Y-84781107D01*
X89690480Y-84802150D01*
X89700970Y-84824329D01*
X89709235Y-84847428D01*
X89715196Y-84871227D01*
X89718796Y-84895495D01*
X89720000Y-84919999D01*
X89720000Y-85570001D01*
X89718796Y-85594505D01*
X89715196Y-85618773D01*
X89709235Y-85642572D01*
X89700970Y-85665671D01*
X89690480Y-85687850D01*
X89677868Y-85708893D01*
X89663253Y-85728599D01*
X89646777Y-85746777D01*
X89628599Y-85763253D01*
X89608893Y-85777868D01*
X89587850Y-85790480D01*
X89565671Y-85800970D01*
X89542572Y-85809235D01*
X89518773Y-85815196D01*
X89494505Y-85818796D01*
X89470001Y-85820000D01*
X88569999Y-85820000D01*
X88545495Y-85818796D01*
X88521227Y-85815196D01*
X88497428Y-85809235D01*
X88474329Y-85800970D01*
X88452150Y-85790480D01*
X88431107Y-85777868D01*
X88411401Y-85763253D01*
X88393223Y-85746777D01*
X88376747Y-85728599D01*
X88362132Y-85708893D01*
X88349520Y-85687850D01*
X88339030Y-85665671D01*
X88330765Y-85642572D01*
X88324804Y-85618773D01*
X88321204Y-85594505D01*
X88320000Y-85570001D01*
X88320000Y-84919999D01*
X88321204Y-84895495D01*
X88324804Y-84871227D01*
X88330765Y-84847428D01*
X88339030Y-84824329D01*
X88349520Y-84802150D01*
X88362132Y-84781107D01*
X88376747Y-84761401D01*
X88393223Y-84743223D01*
X88411401Y-84726747D01*
X88431107Y-84712132D01*
X88452150Y-84699520D01*
X88474329Y-84689030D01*
X88497428Y-84680765D01*
X88521227Y-84674804D01*
X88545495Y-84671204D01*
X88569999Y-84670000D01*
X89470001Y-84670000D01*
X89494505Y-84671204D01*
X89494505Y-84671204D01*
G37*
D11*
X89020000Y-85245000D03*
G04 #@! TD*
D10*
G04 #@! TO.C,R5*
G36*
X91994505Y-84671204D02*
X92018773Y-84674804D01*
X92042572Y-84680765D01*
X92065671Y-84689030D01*
X92087850Y-84699520D01*
X92108893Y-84712132D01*
X92128599Y-84726747D01*
X92146777Y-84743223D01*
X92163253Y-84761401D01*
X92177868Y-84781107D01*
X92190480Y-84802150D01*
X92200970Y-84824329D01*
X92209235Y-84847428D01*
X92215196Y-84871227D01*
X92218796Y-84895495D01*
X92220000Y-84919999D01*
X92220000Y-85570001D01*
X92218796Y-85594505D01*
X92215196Y-85618773D01*
X92209235Y-85642572D01*
X92200970Y-85665671D01*
X92190480Y-85687850D01*
X92177868Y-85708893D01*
X92163253Y-85728599D01*
X92146777Y-85746777D01*
X92128599Y-85763253D01*
X92108893Y-85777868D01*
X92087850Y-85790480D01*
X92065671Y-85800970D01*
X92042572Y-85809235D01*
X92018773Y-85815196D01*
X91994505Y-85818796D01*
X91970001Y-85820000D01*
X91069999Y-85820000D01*
X91045495Y-85818796D01*
X91021227Y-85815196D01*
X90997428Y-85809235D01*
X90974329Y-85800970D01*
X90952150Y-85790480D01*
X90931107Y-85777868D01*
X90911401Y-85763253D01*
X90893223Y-85746777D01*
X90876747Y-85728599D01*
X90862132Y-85708893D01*
X90849520Y-85687850D01*
X90839030Y-85665671D01*
X90830765Y-85642572D01*
X90824804Y-85618773D01*
X90821204Y-85594505D01*
X90820000Y-85570001D01*
X90820000Y-84919999D01*
X90821204Y-84895495D01*
X90824804Y-84871227D01*
X90830765Y-84847428D01*
X90839030Y-84824329D01*
X90849520Y-84802150D01*
X90862132Y-84781107D01*
X90876747Y-84761401D01*
X90893223Y-84743223D01*
X90911401Y-84726747D01*
X90931107Y-84712132D01*
X90952150Y-84699520D01*
X90974329Y-84689030D01*
X90997428Y-84680765D01*
X91021227Y-84674804D01*
X91045495Y-84671204D01*
X91069999Y-84670000D01*
X91970001Y-84670000D01*
X91994505Y-84671204D01*
X91994505Y-84671204D01*
G37*
D11*
X91520000Y-85245000D03*
D10*
G36*
X91994505Y-86721204D02*
X92018773Y-86724804D01*
X92042572Y-86730765D01*
X92065671Y-86739030D01*
X92087850Y-86749520D01*
X92108893Y-86762132D01*
X92128599Y-86776747D01*
X92146777Y-86793223D01*
X92163253Y-86811401D01*
X92177868Y-86831107D01*
X92190480Y-86852150D01*
X92200970Y-86874329D01*
X92209235Y-86897428D01*
X92215196Y-86921227D01*
X92218796Y-86945495D01*
X92220000Y-86969999D01*
X92220000Y-87620001D01*
X92218796Y-87644505D01*
X92215196Y-87668773D01*
X92209235Y-87692572D01*
X92200970Y-87715671D01*
X92190480Y-87737850D01*
X92177868Y-87758893D01*
X92163253Y-87778599D01*
X92146777Y-87796777D01*
X92128599Y-87813253D01*
X92108893Y-87827868D01*
X92087850Y-87840480D01*
X92065671Y-87850970D01*
X92042572Y-87859235D01*
X92018773Y-87865196D01*
X91994505Y-87868796D01*
X91970001Y-87870000D01*
X91069999Y-87870000D01*
X91045495Y-87868796D01*
X91021227Y-87865196D01*
X90997428Y-87859235D01*
X90974329Y-87850970D01*
X90952150Y-87840480D01*
X90931107Y-87827868D01*
X90911401Y-87813253D01*
X90893223Y-87796777D01*
X90876747Y-87778599D01*
X90862132Y-87758893D01*
X90849520Y-87737850D01*
X90839030Y-87715671D01*
X90830765Y-87692572D01*
X90824804Y-87668773D01*
X90821204Y-87644505D01*
X90820000Y-87620001D01*
X90820000Y-86969999D01*
X90821204Y-86945495D01*
X90824804Y-86921227D01*
X90830765Y-86897428D01*
X90839030Y-86874329D01*
X90849520Y-86852150D01*
X90862132Y-86831107D01*
X90876747Y-86811401D01*
X90893223Y-86793223D01*
X90911401Y-86776747D01*
X90931107Y-86762132D01*
X90952150Y-86749520D01*
X90974329Y-86739030D01*
X90997428Y-86730765D01*
X91021227Y-86724804D01*
X91045495Y-86721204D01*
X91069999Y-86720000D01*
X91970001Y-86720000D01*
X91994505Y-86721204D01*
X91994505Y-86721204D01*
G37*
D11*
X91520000Y-87295000D03*
G04 #@! TD*
D10*
G04 #@! TO.C,R6*
G36*
X94544505Y-86621204D02*
X94568773Y-86624804D01*
X94592572Y-86630765D01*
X94615671Y-86639030D01*
X94637850Y-86649520D01*
X94658893Y-86662132D01*
X94678599Y-86676747D01*
X94696777Y-86693223D01*
X94713253Y-86711401D01*
X94727868Y-86731107D01*
X94740480Y-86752150D01*
X94750970Y-86774329D01*
X94759235Y-86797428D01*
X94765196Y-86821227D01*
X94768796Y-86845495D01*
X94770000Y-86869999D01*
X94770000Y-87520001D01*
X94768796Y-87544505D01*
X94765196Y-87568773D01*
X94759235Y-87592572D01*
X94750970Y-87615671D01*
X94740480Y-87637850D01*
X94727868Y-87658893D01*
X94713253Y-87678599D01*
X94696777Y-87696777D01*
X94678599Y-87713253D01*
X94658893Y-87727868D01*
X94637850Y-87740480D01*
X94615671Y-87750970D01*
X94592572Y-87759235D01*
X94568773Y-87765196D01*
X94544505Y-87768796D01*
X94520001Y-87770000D01*
X93619999Y-87770000D01*
X93595495Y-87768796D01*
X93571227Y-87765196D01*
X93547428Y-87759235D01*
X93524329Y-87750970D01*
X93502150Y-87740480D01*
X93481107Y-87727868D01*
X93461401Y-87713253D01*
X93443223Y-87696777D01*
X93426747Y-87678599D01*
X93412132Y-87658893D01*
X93399520Y-87637850D01*
X93389030Y-87615671D01*
X93380765Y-87592572D01*
X93374804Y-87568773D01*
X93371204Y-87544505D01*
X93370000Y-87520001D01*
X93370000Y-86869999D01*
X93371204Y-86845495D01*
X93374804Y-86821227D01*
X93380765Y-86797428D01*
X93389030Y-86774329D01*
X93399520Y-86752150D01*
X93412132Y-86731107D01*
X93426747Y-86711401D01*
X93443223Y-86693223D01*
X93461401Y-86676747D01*
X93481107Y-86662132D01*
X93502150Y-86649520D01*
X93524329Y-86639030D01*
X93547428Y-86630765D01*
X93571227Y-86624804D01*
X93595495Y-86621204D01*
X93619999Y-86620000D01*
X94520001Y-86620000D01*
X94544505Y-86621204D01*
X94544505Y-86621204D01*
G37*
D11*
X94070000Y-87195000D03*
D10*
G36*
X94544505Y-84571204D02*
X94568773Y-84574804D01*
X94592572Y-84580765D01*
X94615671Y-84589030D01*
X94637850Y-84599520D01*
X94658893Y-84612132D01*
X94678599Y-84626747D01*
X94696777Y-84643223D01*
X94713253Y-84661401D01*
X94727868Y-84681107D01*
X94740480Y-84702150D01*
X94750970Y-84724329D01*
X94759235Y-84747428D01*
X94765196Y-84771227D01*
X94768796Y-84795495D01*
X94770000Y-84819999D01*
X94770000Y-85470001D01*
X94768796Y-85494505D01*
X94765196Y-85518773D01*
X94759235Y-85542572D01*
X94750970Y-85565671D01*
X94740480Y-85587850D01*
X94727868Y-85608893D01*
X94713253Y-85628599D01*
X94696777Y-85646777D01*
X94678599Y-85663253D01*
X94658893Y-85677868D01*
X94637850Y-85690480D01*
X94615671Y-85700970D01*
X94592572Y-85709235D01*
X94568773Y-85715196D01*
X94544505Y-85718796D01*
X94520001Y-85720000D01*
X93619999Y-85720000D01*
X93595495Y-85718796D01*
X93571227Y-85715196D01*
X93547428Y-85709235D01*
X93524329Y-85700970D01*
X93502150Y-85690480D01*
X93481107Y-85677868D01*
X93461401Y-85663253D01*
X93443223Y-85646777D01*
X93426747Y-85628599D01*
X93412132Y-85608893D01*
X93399520Y-85587850D01*
X93389030Y-85565671D01*
X93380765Y-85542572D01*
X93374804Y-85518773D01*
X93371204Y-85494505D01*
X93370000Y-85470001D01*
X93370000Y-84819999D01*
X93371204Y-84795495D01*
X93374804Y-84771227D01*
X93380765Y-84747428D01*
X93389030Y-84724329D01*
X93399520Y-84702150D01*
X93412132Y-84681107D01*
X93426747Y-84661401D01*
X93443223Y-84643223D01*
X93461401Y-84626747D01*
X93481107Y-84612132D01*
X93502150Y-84599520D01*
X93524329Y-84589030D01*
X93547428Y-84580765D01*
X93571227Y-84574804D01*
X93595495Y-84571204D01*
X93619999Y-84570000D01*
X94520001Y-84570000D01*
X94544505Y-84571204D01*
X94544505Y-84571204D01*
G37*
D11*
X94070000Y-85145000D03*
G04 #@! TD*
D10*
G04 #@! TO.C,R7*
G36*
X97094505Y-84671204D02*
X97118773Y-84674804D01*
X97142572Y-84680765D01*
X97165671Y-84689030D01*
X97187850Y-84699520D01*
X97208893Y-84712132D01*
X97228599Y-84726747D01*
X97246777Y-84743223D01*
X97263253Y-84761401D01*
X97277868Y-84781107D01*
X97290480Y-84802150D01*
X97300970Y-84824329D01*
X97309235Y-84847428D01*
X97315196Y-84871227D01*
X97318796Y-84895495D01*
X97320000Y-84919999D01*
X97320000Y-85570001D01*
X97318796Y-85594505D01*
X97315196Y-85618773D01*
X97309235Y-85642572D01*
X97300970Y-85665671D01*
X97290480Y-85687850D01*
X97277868Y-85708893D01*
X97263253Y-85728599D01*
X97246777Y-85746777D01*
X97228599Y-85763253D01*
X97208893Y-85777868D01*
X97187850Y-85790480D01*
X97165671Y-85800970D01*
X97142572Y-85809235D01*
X97118773Y-85815196D01*
X97094505Y-85818796D01*
X97070001Y-85820000D01*
X96169999Y-85820000D01*
X96145495Y-85818796D01*
X96121227Y-85815196D01*
X96097428Y-85809235D01*
X96074329Y-85800970D01*
X96052150Y-85790480D01*
X96031107Y-85777868D01*
X96011401Y-85763253D01*
X95993223Y-85746777D01*
X95976747Y-85728599D01*
X95962132Y-85708893D01*
X95949520Y-85687850D01*
X95939030Y-85665671D01*
X95930765Y-85642572D01*
X95924804Y-85618773D01*
X95921204Y-85594505D01*
X95920000Y-85570001D01*
X95920000Y-84919999D01*
X95921204Y-84895495D01*
X95924804Y-84871227D01*
X95930765Y-84847428D01*
X95939030Y-84824329D01*
X95949520Y-84802150D01*
X95962132Y-84781107D01*
X95976747Y-84761401D01*
X95993223Y-84743223D01*
X96011401Y-84726747D01*
X96031107Y-84712132D01*
X96052150Y-84699520D01*
X96074329Y-84689030D01*
X96097428Y-84680765D01*
X96121227Y-84674804D01*
X96145495Y-84671204D01*
X96169999Y-84670000D01*
X97070001Y-84670000D01*
X97094505Y-84671204D01*
X97094505Y-84671204D01*
G37*
D11*
X96620000Y-85245000D03*
D10*
G36*
X97094505Y-86721204D02*
X97118773Y-86724804D01*
X97142572Y-86730765D01*
X97165671Y-86739030D01*
X97187850Y-86749520D01*
X97208893Y-86762132D01*
X97228599Y-86776747D01*
X97246777Y-86793223D01*
X97263253Y-86811401D01*
X97277868Y-86831107D01*
X97290480Y-86852150D01*
X97300970Y-86874329D01*
X97309235Y-86897428D01*
X97315196Y-86921227D01*
X97318796Y-86945495D01*
X97320000Y-86969999D01*
X97320000Y-87620001D01*
X97318796Y-87644505D01*
X97315196Y-87668773D01*
X97309235Y-87692572D01*
X97300970Y-87715671D01*
X97290480Y-87737850D01*
X97277868Y-87758893D01*
X97263253Y-87778599D01*
X97246777Y-87796777D01*
X97228599Y-87813253D01*
X97208893Y-87827868D01*
X97187850Y-87840480D01*
X97165671Y-87850970D01*
X97142572Y-87859235D01*
X97118773Y-87865196D01*
X97094505Y-87868796D01*
X97070001Y-87870000D01*
X96169999Y-87870000D01*
X96145495Y-87868796D01*
X96121227Y-87865196D01*
X96097428Y-87859235D01*
X96074329Y-87850970D01*
X96052150Y-87840480D01*
X96031107Y-87827868D01*
X96011401Y-87813253D01*
X95993223Y-87796777D01*
X95976747Y-87778599D01*
X95962132Y-87758893D01*
X95949520Y-87737850D01*
X95939030Y-87715671D01*
X95930765Y-87692572D01*
X95924804Y-87668773D01*
X95921204Y-87644505D01*
X95920000Y-87620001D01*
X95920000Y-86969999D01*
X95921204Y-86945495D01*
X95924804Y-86921227D01*
X95930765Y-86897428D01*
X95939030Y-86874329D01*
X95949520Y-86852150D01*
X95962132Y-86831107D01*
X95976747Y-86811401D01*
X95993223Y-86793223D01*
X96011401Y-86776747D01*
X96031107Y-86762132D01*
X96052150Y-86749520D01*
X96074329Y-86739030D01*
X96097428Y-86730765D01*
X96121227Y-86724804D01*
X96145495Y-86721204D01*
X96169999Y-86720000D01*
X97070001Y-86720000D01*
X97094505Y-86721204D01*
X97094505Y-86721204D01*
G37*
D11*
X96620000Y-87295000D03*
G04 #@! TD*
M02*
