G04 #@! TF.GenerationSoftware,KiCad,Pcbnew,5.0.1*
G04 #@! TF.CreationDate,2018-10-26T18:06:02+02:00*
G04 #@! TF.ProjectId,combine,636F6D62696E652E6B696361645F7063,rev?*
G04 #@! TF.SameCoordinates,Original*
G04 #@! TF.FileFunction,Copper,L2,Bot,Mixed*
G04 #@! TF.FilePolarity,Positive*
%FSLAX46Y46*%
G04 Gerber Fmt 4.6, Leading zero omitted, Abs format (unit mm)*
G04 Created by KiCad (PCBNEW 5.0.1) date Fri 26 Oct 2018 06:06:02 PM CEST*
%MOMM*%
%LPD*%
G01*
G04 APERTURE LIST*
G04 #@! TA.AperFunction,ComponentPad*
%ADD10R,1.700000X1.700000*%
G04 #@! TD*
G04 #@! TA.AperFunction,ComponentPad*
%ADD11O,1.700000X1.700000*%
G04 #@! TD*
G04 #@! TA.AperFunction,ViaPad*
%ADD12C,0.800000*%
G04 #@! TD*
G04 #@! TA.AperFunction,Conductor*
%ADD13C,0.750000*%
G04 #@! TD*
G04 #@! TA.AperFunction,Conductor*
%ADD14C,0.250000*%
G04 #@! TD*
G04 APERTURE END LIST*
D10*
G04 #@! TO.P,J6123,1*
G04 #@! TO.N,/GND*
X88900000Y-58420000D03*
D11*
G04 #@! TO.P,J6123,2*
G04 #@! TO.N,/12V*
X88900000Y-55880000D03*
G04 #@! TO.P,J6123,3*
G04 #@! TO.N,/FAN6*
X88900000Y-53340000D03*
G04 #@! TO.P,J6123,4*
G04 #@! TO.N,/PWM6*
X88900000Y-50800000D03*
G04 #@! TD*
G04 #@! TO.P,J1123,4*
G04 #@! TO.N,/PWM1*
X45720000Y-58420000D03*
G04 #@! TO.P,J1123,3*
G04 #@! TO.N,/FAN1*
X48260000Y-58420000D03*
G04 #@! TO.P,J1123,2*
G04 #@! TO.N,/FAN_P1*
X50800000Y-58420000D03*
D10*
G04 #@! TO.P,J1123,1*
G04 #@! TO.N,/GND*
X53340000Y-58420000D03*
G04 #@! TD*
D11*
G04 #@! TO.P,J5123,4*
G04 #@! TO.N,/PWM5*
X63500000Y-63500000D03*
G04 #@! TO.P,J5123,3*
G04 #@! TO.N,/FAN5*
X60960000Y-63500000D03*
G04 #@! TO.P,J5123,2*
G04 #@! TO.N,/12V*
X58420000Y-63500000D03*
D10*
G04 #@! TO.P,J5123,1*
G04 #@! TO.N,/GND*
X55880000Y-63500000D03*
G04 #@! TD*
G04 #@! TO.P,J4123,1*
G04 #@! TO.N,/GND*
X48260000Y-68580000D03*
D11*
G04 #@! TO.P,J4123,2*
G04 #@! TO.N,/12V*
X50800000Y-68580000D03*
G04 #@! TO.P,J4123,3*
G04 #@! TO.N,/FAN4*
X53340000Y-68580000D03*
G04 #@! TO.P,J4123,4*
G04 #@! TO.N,/PWM4*
X55880000Y-68580000D03*
G04 #@! TD*
G04 #@! TO.P,J32,4*
G04 #@! TO.N,/PWM3*
X55880000Y-73660000D03*
G04 #@! TO.P,J32,3*
G04 #@! TO.N,/FAN3*
X53340000Y-73660000D03*
G04 #@! TO.P,J32,2*
G04 #@! TO.N,/FAN_P3*
X50800000Y-73660000D03*
D10*
G04 #@! TO.P,J32,1*
G04 #@! TO.N,/GND*
X48260000Y-73660000D03*
G04 #@! TD*
G04 #@! TO.P,J22,1*
G04 #@! TO.N,/GND*
X48260000Y-78740000D03*
D11*
G04 #@! TO.P,J22,2*
G04 #@! TO.N,/FAN_P2*
X50800000Y-78740000D03*
G04 #@! TO.P,J22,3*
G04 #@! TO.N,/FAN2*
X53340000Y-78740000D03*
G04 #@! TO.P,J22,4*
G04 #@! TO.N,/PWM2*
X55880000Y-78740000D03*
G04 #@! TD*
G04 #@! TO.P,J122,4*
G04 #@! TO.N,/PWM1*
X55880000Y-83820000D03*
G04 #@! TO.P,J122,3*
G04 #@! TO.N,/FAN1*
X53340000Y-83820000D03*
G04 #@! TO.P,J122,2*
G04 #@! TO.N,/FAN_P1*
X50800000Y-83820000D03*
D10*
G04 #@! TO.P,J122,1*
G04 #@! TO.N,/GND*
X48260000Y-83820000D03*
G04 #@! TD*
G04 #@! TO.P,J18,1*
G04 #@! TO.N,/GND*
X55880000Y-50800000D03*
G04 #@! TD*
G04 #@! TO.P,J17,1*
G04 #@! TO.N,Net-(J17-Pad1)*
X53340000Y-50800000D03*
G04 #@! TD*
G04 #@! TO.P,J16,1*
G04 #@! TO.N,/FAN3*
X53340000Y-86360000D03*
G04 #@! TD*
G04 #@! TO.P,J14,1*
G04 #@! TO.N,/PWM2*
X53340000Y-63500000D03*
G04 #@! TD*
D11*
G04 #@! TO.P,J15,2*
G04 #@! TO.N,/PWM3*
X50165000Y-63500000D03*
D10*
G04 #@! TO.P,J15,1*
G04 #@! TO.N,/FAN2*
X47625000Y-63500000D03*
G04 #@! TD*
G04 #@! TO.P,J13,1*
G04 #@! TO.N,/PWM1*
X68580000Y-63500000D03*
D11*
G04 #@! TO.P,J13,2*
G04 #@! TO.N,/FAN1*
X71120000Y-63500000D03*
G04 #@! TD*
D10*
G04 #@! TO.P,J11,1*
G04 #@! TO.N,/GND*
X56896000Y-45720000D03*
D11*
G04 #@! TO.P,J11,2*
G04 #@! TO.N,/PWM1*
X59436000Y-45720000D03*
G04 #@! TO.P,J11,3*
G04 #@! TO.N,/FAN1*
X61976000Y-45720000D03*
G04 #@! TO.P,J11,4*
G04 #@! TO.N,/PWM2*
X64516000Y-45720000D03*
G04 #@! TO.P,J11,5*
G04 #@! TO.N,/FAN2*
X67056000Y-45720000D03*
G04 #@! TO.P,J11,6*
G04 #@! TO.N,/PWM3*
X69596000Y-45720000D03*
G04 #@! TO.P,J11,7*
G04 #@! TO.N,/FAN3*
X72136000Y-45720000D03*
G04 #@! TD*
G04 #@! TO.P,J12,6*
G04 #@! TO.N,/FAN6*
X88900000Y-45720000D03*
G04 #@! TO.P,J12,5*
G04 #@! TO.N,/PWM6*
X86360000Y-45720000D03*
G04 #@! TO.P,J12,4*
G04 #@! TO.N,/FAN5*
X83820000Y-45720000D03*
G04 #@! TO.P,J12,3*
G04 #@! TO.N,/PWM5*
X81280000Y-45720000D03*
G04 #@! TO.P,J12,2*
G04 #@! TO.N,/FAN4*
X78740000Y-45720000D03*
D10*
G04 #@! TO.P,J12,1*
G04 #@! TO.N,/PWM4*
X76200000Y-45720000D03*
G04 #@! TD*
G04 #@! TO.P,J8,1*
G04 #@! TO.N,/12V*
X50800000Y-50800000D03*
D11*
G04 #@! TO.P,J8,2*
G04 #@! TO.N,/GND*
X48260000Y-50800000D03*
G04 #@! TD*
D10*
G04 #@! TO.P,J10,1*
G04 #@! TO.N,/12V*
X40640000Y-78740000D03*
D11*
G04 #@! TO.P,J10,2*
G04 #@! TO.N,/FAN_P3*
X38100000Y-78740000D03*
G04 #@! TO.P,J10,3*
G04 #@! TO.N,Net-(J10-Pad3)*
X35560000Y-78740000D03*
G04 #@! TD*
G04 #@! TO.P,J9,3*
G04 #@! TO.N,Net-(J9-Pad3)*
X35560000Y-73660000D03*
G04 #@! TO.P,J9,2*
G04 #@! TO.N,/FAN_P2*
X38100000Y-73660000D03*
D10*
G04 #@! TO.P,J9,1*
G04 #@! TO.N,/12V*
X40640000Y-73660000D03*
G04 #@! TD*
G04 #@! TO.P,J7,1*
G04 #@! TO.N,/12V*
X40640000Y-68580000D03*
D11*
G04 #@! TO.P,J7,2*
G04 #@! TO.N,/FAN_P1*
X38100000Y-68580000D03*
G04 #@! TO.P,J7,3*
G04 #@! TO.N,Net-(J7-Pad3)*
X35560000Y-68580000D03*
G04 #@! TD*
G04 #@! TO.P,J6,4*
G04 #@! TO.N,/PWM6*
X83820000Y-50800000D03*
G04 #@! TO.P,J6,3*
G04 #@! TO.N,/FAN6*
X83820000Y-53340000D03*
G04 #@! TO.P,J6,2*
G04 #@! TO.N,/12V*
X83820000Y-55880000D03*
D10*
G04 #@! TO.P,J6,1*
G04 #@! TO.N,/GND*
X83820000Y-58420000D03*
G04 #@! TD*
G04 #@! TO.P,J5,1*
G04 #@! TO.N,/GND*
X78740000Y-58420000D03*
D11*
G04 #@! TO.P,J5,2*
G04 #@! TO.N,/12V*
X78740000Y-55880000D03*
G04 #@! TO.P,J5,3*
G04 #@! TO.N,/FAN5*
X78740000Y-53340000D03*
G04 #@! TO.P,J5,4*
G04 #@! TO.N,/PWM5*
X78740000Y-50800000D03*
G04 #@! TD*
G04 #@! TO.P,J4,4*
G04 #@! TO.N,/PWM4*
X73660000Y-50800000D03*
G04 #@! TO.P,J4,3*
G04 #@! TO.N,/FAN4*
X73660000Y-53340000D03*
G04 #@! TO.P,J4,2*
G04 #@! TO.N,/12V*
X73660000Y-55880000D03*
D10*
G04 #@! TO.P,J4,1*
G04 #@! TO.N,/GND*
X73660000Y-58420000D03*
G04 #@! TD*
G04 #@! TO.P,J3,1*
G04 #@! TO.N,/GND*
X68580000Y-58420000D03*
D11*
G04 #@! TO.P,J3,2*
G04 #@! TO.N,/FAN_P3*
X68580000Y-55880000D03*
G04 #@! TO.P,J3,3*
G04 #@! TO.N,/FAN3*
X68580000Y-53340000D03*
G04 #@! TO.P,J3,4*
G04 #@! TO.N,/PWM3*
X68580000Y-50800000D03*
G04 #@! TD*
G04 #@! TO.P,J2,4*
G04 #@! TO.N,/PWM2*
X63500000Y-50800000D03*
G04 #@! TO.P,J2,3*
G04 #@! TO.N,/FAN2*
X63500000Y-53340000D03*
G04 #@! TO.P,J2,2*
G04 #@! TO.N,/FAN_P2*
X63500000Y-55880000D03*
D10*
G04 #@! TO.P,J2,1*
G04 #@! TO.N,/GND*
X63500000Y-58420000D03*
G04 #@! TD*
G04 #@! TO.P,J1,1*
G04 #@! TO.N,/GND*
X58420000Y-58420000D03*
D11*
G04 #@! TO.P,J1,2*
G04 #@! TO.N,/FAN_P1*
X58420000Y-55880000D03*
G04 #@! TO.P,J1,3*
G04 #@! TO.N,/FAN1*
X58420000Y-53340000D03*
G04 #@! TO.P,J1,4*
G04 #@! TO.N,/PWM1*
X58420000Y-50800000D03*
G04 #@! TD*
D10*
G04 #@! TO.P,J1,1*
G04 #@! TO.N,/3V*
X66020000Y-93970000D03*
D11*
G04 #@! TO.P,J1,2*
G04 #@! TO.N,/5V*
X68560000Y-93970000D03*
G04 #@! TO.P,J1,3*
G04 #@! TO.N,GND*
X71100000Y-93970000D03*
G04 #@! TO.P,J1,4*
X73640000Y-93970000D03*
G04 #@! TO.P,J1,5*
G04 #@! TO.N,/VIN*
X76180000Y-93970000D03*
G04 #@! TO.P,J1,6*
G04 #@! TO.N,Net-(J1-Pad6)*
X78720000Y-93970000D03*
G04 #@! TO.P,J1,7*
G04 #@! TO.N,/A0*
X81260000Y-93970000D03*
G04 #@! TO.P,J1,8*
G04 #@! TO.N,/A1*
X83800000Y-93970000D03*
G04 #@! TO.P,J1,9*
G04 #@! TO.N,/A11*
X86340000Y-93970000D03*
G04 #@! TO.P,J1,10*
G04 #@! TO.N,/A12*
X88880000Y-93970000D03*
G04 #@! TO.P,J1,11*
G04 #@! TO.N,/A4*
X91420000Y-93970000D03*
G04 #@! TO.P,J1,12*
G04 #@! TO.N,/A5*
X93960000Y-93970000D03*
G04 #@! TO.P,J1,13*
G04 #@! TO.N,/A6*
X96500000Y-93970000D03*
G04 #@! TO.P,J1,14*
G04 #@! TO.N,/A7*
X99040000Y-93970000D03*
G04 #@! TD*
D10*
G04 #@! TO.P,J3,1*
G04 #@! TO.N,/5V*
X77020000Y-71070000D03*
D11*
G04 #@! TO.P,J3,2*
G04 #@! TO.N,GND*
X77020000Y-73610000D03*
G04 #@! TO.P,J3,3*
G04 #@! TO.N,/A5*
X74480000Y-71070000D03*
G04 #@! TO.P,J3,4*
G04 #@! TO.N,/A0*
X74480000Y-73610000D03*
G04 #@! TO.P,J3,5*
G04 #@! TO.N,/A1*
X71940000Y-71070000D03*
G04 #@! TO.P,J3,6*
G04 #@! TO.N,/D40*
X71940000Y-73610000D03*
G04 #@! TO.P,J3,7*
G04 #@! TO.N,/D44*
X69400000Y-71070000D03*
G04 #@! TO.P,J3,8*
G04 #@! TO.N,/D42*
X69400000Y-73610000D03*
G04 #@! TO.P,J3,9*
G04 #@! TO.N,/A12*
X66860000Y-71070000D03*
G04 #@! TO.P,J3,10*
G04 #@! TO.N,/A11*
X66860000Y-73610000D03*
G04 #@! TD*
D10*
G04 #@! TO.P,J2,1*
G04 #@! TO.N,/A0*
X81340000Y-82470000D03*
D11*
G04 #@! TO.P,J2,2*
G04 #@! TO.N,GND*
X81340000Y-79930000D03*
G04 #@! TO.P,J2,3*
G04 #@! TO.N,/A1*
X83880000Y-82470000D03*
G04 #@! TO.P,J2,4*
G04 #@! TO.N,GND*
X83880000Y-79930000D03*
G04 #@! TO.P,J2,5*
G04 #@! TO.N,/A11*
X86420000Y-82470000D03*
G04 #@! TO.P,J2,6*
G04 #@! TO.N,GND*
X86420000Y-79930000D03*
G04 #@! TO.P,J2,7*
G04 #@! TO.N,/A12*
X88960000Y-82470000D03*
G04 #@! TO.P,J2,8*
G04 #@! TO.N,GND*
X88960000Y-79930000D03*
G04 #@! TO.P,J2,9*
G04 #@! TO.N,/A4*
X91500000Y-82470000D03*
G04 #@! TO.P,J2,10*
G04 #@! TO.N,GND*
X91500000Y-79930000D03*
G04 #@! TO.P,J2,11*
G04 #@! TO.N,/A5*
X94040000Y-82470000D03*
G04 #@! TO.P,J2,12*
G04 #@! TO.N,GND*
X94040000Y-79930000D03*
G04 #@! TO.P,J2,13*
G04 #@! TO.N,/A6*
X96580000Y-82470000D03*
G04 #@! TO.P,J2,14*
G04 #@! TO.N,GND*
X96580000Y-79930000D03*
G04 #@! TO.P,J2,15*
G04 #@! TO.N,/A7*
X99120000Y-82470000D03*
G04 #@! TO.P,J2,16*
G04 #@! TO.N,GND*
X99120000Y-79930000D03*
G04 #@! TD*
D10*
G04 #@! TO.P,J6123,1*
G04 #@! TO.N,/GND*
X96520000Y-114300000D03*
D11*
G04 #@! TO.P,J6123,2*
G04 #@! TO.N,/12V*
X96520000Y-111760000D03*
G04 #@! TO.P,J6123,3*
G04 #@! TO.N,/FAN6*
X96520000Y-109220000D03*
G04 #@! TO.P,J6123,4*
G04 #@! TO.N,/PWM6*
X96520000Y-106680000D03*
G04 #@! TD*
G04 #@! TO.P,J1123,4*
G04 #@! TO.N,/PWM1*
X53340000Y-114300000D03*
G04 #@! TO.P,J1123,3*
G04 #@! TO.N,/FAN1*
X55880000Y-114300000D03*
G04 #@! TO.P,J1123,2*
G04 #@! TO.N,/FAN_P1*
X58420000Y-114300000D03*
D10*
G04 #@! TO.P,J1123,1*
G04 #@! TO.N,/GND*
X60960000Y-114300000D03*
G04 #@! TD*
D11*
G04 #@! TO.P,J5123,4*
G04 #@! TO.N,/PWM5*
X71120000Y-119380000D03*
G04 #@! TO.P,J5123,3*
G04 #@! TO.N,/FAN5*
X68580000Y-119380000D03*
G04 #@! TO.P,J5123,2*
G04 #@! TO.N,/12V*
X66040000Y-119380000D03*
D10*
G04 #@! TO.P,J5123,1*
G04 #@! TO.N,/GND*
X63500000Y-119380000D03*
G04 #@! TD*
G04 #@! TO.P,J4123,1*
G04 #@! TO.N,/GND*
X55880000Y-124460000D03*
D11*
G04 #@! TO.P,J4123,2*
G04 #@! TO.N,/12V*
X58420000Y-124460000D03*
G04 #@! TO.P,J4123,3*
G04 #@! TO.N,/FAN4*
X60960000Y-124460000D03*
G04 #@! TO.P,J4123,4*
G04 #@! TO.N,/PWM4*
X63500000Y-124460000D03*
G04 #@! TD*
G04 #@! TO.P,J32,4*
G04 #@! TO.N,/PWM3*
X63500000Y-129540000D03*
G04 #@! TO.P,J32,3*
G04 #@! TO.N,/FAN3*
X60960000Y-129540000D03*
G04 #@! TO.P,J32,2*
G04 #@! TO.N,/FAN_P3*
X58420000Y-129540000D03*
D10*
G04 #@! TO.P,J32,1*
G04 #@! TO.N,/GND*
X55880000Y-129540000D03*
G04 #@! TD*
G04 #@! TO.P,J22,1*
G04 #@! TO.N,/GND*
X55880000Y-134620000D03*
D11*
G04 #@! TO.P,J22,2*
G04 #@! TO.N,/FAN_P2*
X58420000Y-134620000D03*
G04 #@! TO.P,J22,3*
G04 #@! TO.N,/FAN2*
X60960000Y-134620000D03*
G04 #@! TO.P,J22,4*
G04 #@! TO.N,/PWM2*
X63500000Y-134620000D03*
G04 #@! TD*
G04 #@! TO.P,J122,4*
G04 #@! TO.N,/PWM1*
X63500000Y-139700000D03*
G04 #@! TO.P,J122,3*
G04 #@! TO.N,/FAN1*
X60960000Y-139700000D03*
G04 #@! TO.P,J122,2*
G04 #@! TO.N,/FAN_P1*
X58420000Y-139700000D03*
D10*
G04 #@! TO.P,J122,1*
G04 #@! TO.N,/GND*
X55880000Y-139700000D03*
G04 #@! TD*
G04 #@! TO.P,J18,1*
G04 #@! TO.N,/GND*
X63500000Y-106680000D03*
G04 #@! TD*
G04 #@! TO.P,J17,1*
G04 #@! TO.N,Net-(J17-Pad1)*
X60960000Y-106680000D03*
G04 #@! TD*
G04 #@! TO.P,J16,1*
G04 #@! TO.N,/FAN3*
X60960000Y-142240000D03*
G04 #@! TD*
G04 #@! TO.P,J14,1*
G04 #@! TO.N,/PWM2*
X60960000Y-119380000D03*
G04 #@! TD*
D11*
G04 #@! TO.P,J15,2*
G04 #@! TO.N,/PWM3*
X57785000Y-119380000D03*
D10*
G04 #@! TO.P,J15,1*
G04 #@! TO.N,/FAN2*
X55245000Y-119380000D03*
G04 #@! TD*
G04 #@! TO.P,J13,1*
G04 #@! TO.N,/PWM1*
X76200000Y-119380000D03*
D11*
G04 #@! TO.P,J13,2*
G04 #@! TO.N,/FAN1*
X78740000Y-119380000D03*
G04 #@! TD*
D10*
G04 #@! TO.P,J11,1*
G04 #@! TO.N,/GND*
X64516000Y-101600000D03*
D11*
G04 #@! TO.P,J11,2*
G04 #@! TO.N,/PWM1*
X67056000Y-101600000D03*
G04 #@! TO.P,J11,3*
G04 #@! TO.N,/FAN1*
X69596000Y-101600000D03*
G04 #@! TO.P,J11,4*
G04 #@! TO.N,/PWM2*
X72136000Y-101600000D03*
G04 #@! TO.P,J11,5*
G04 #@! TO.N,/FAN2*
X74676000Y-101600000D03*
G04 #@! TO.P,J11,6*
G04 #@! TO.N,/PWM3*
X77216000Y-101600000D03*
G04 #@! TO.P,J11,7*
G04 #@! TO.N,/FAN3*
X79756000Y-101600000D03*
G04 #@! TD*
G04 #@! TO.P,J12,6*
G04 #@! TO.N,/FAN6*
X96520000Y-101600000D03*
G04 #@! TO.P,J12,5*
G04 #@! TO.N,/PWM6*
X93980000Y-101600000D03*
G04 #@! TO.P,J12,4*
G04 #@! TO.N,/FAN5*
X91440000Y-101600000D03*
G04 #@! TO.P,J12,3*
G04 #@! TO.N,/PWM5*
X88900000Y-101600000D03*
G04 #@! TO.P,J12,2*
G04 #@! TO.N,/FAN4*
X86360000Y-101600000D03*
D10*
G04 #@! TO.P,J12,1*
G04 #@! TO.N,/PWM4*
X83820000Y-101600000D03*
G04 #@! TD*
G04 #@! TO.P,J8,1*
G04 #@! TO.N,/12V*
X58420000Y-106680000D03*
D11*
G04 #@! TO.P,J8,2*
G04 #@! TO.N,/GND*
X55880000Y-106680000D03*
G04 #@! TD*
D10*
G04 #@! TO.P,J10,1*
G04 #@! TO.N,/12V*
X48260000Y-134620000D03*
D11*
G04 #@! TO.P,J10,2*
G04 #@! TO.N,/FAN_P3*
X45720000Y-134620000D03*
G04 #@! TO.P,J10,3*
G04 #@! TO.N,Net-(J10-Pad3)*
X43180000Y-134620000D03*
G04 #@! TD*
G04 #@! TO.P,J9,3*
G04 #@! TO.N,Net-(J9-Pad3)*
X43180000Y-129540000D03*
G04 #@! TO.P,J9,2*
G04 #@! TO.N,/FAN_P2*
X45720000Y-129540000D03*
D10*
G04 #@! TO.P,J9,1*
G04 #@! TO.N,/12V*
X48260000Y-129540000D03*
G04 #@! TD*
G04 #@! TO.P,J7,1*
G04 #@! TO.N,/12V*
X48260000Y-124460000D03*
D11*
G04 #@! TO.P,J7,2*
G04 #@! TO.N,/FAN_P1*
X45720000Y-124460000D03*
G04 #@! TO.P,J7,3*
G04 #@! TO.N,Net-(J7-Pad3)*
X43180000Y-124460000D03*
G04 #@! TD*
G04 #@! TO.P,J6,4*
G04 #@! TO.N,/PWM6*
X91440000Y-106680000D03*
G04 #@! TO.P,J6,3*
G04 #@! TO.N,/FAN6*
X91440000Y-109220000D03*
G04 #@! TO.P,J6,2*
G04 #@! TO.N,/12V*
X91440000Y-111760000D03*
D10*
G04 #@! TO.P,J6,1*
G04 #@! TO.N,/GND*
X91440000Y-114300000D03*
G04 #@! TD*
G04 #@! TO.P,J5,1*
G04 #@! TO.N,/GND*
X86360000Y-114300000D03*
D11*
G04 #@! TO.P,J5,2*
G04 #@! TO.N,/12V*
X86360000Y-111760000D03*
G04 #@! TO.P,J5,3*
G04 #@! TO.N,/FAN5*
X86360000Y-109220000D03*
G04 #@! TO.P,J5,4*
G04 #@! TO.N,/PWM5*
X86360000Y-106680000D03*
G04 #@! TD*
G04 #@! TO.P,J4,4*
G04 #@! TO.N,/PWM4*
X81280000Y-106680000D03*
G04 #@! TO.P,J4,3*
G04 #@! TO.N,/FAN4*
X81280000Y-109220000D03*
G04 #@! TO.P,J4,2*
G04 #@! TO.N,/12V*
X81280000Y-111760000D03*
D10*
G04 #@! TO.P,J4,1*
G04 #@! TO.N,/GND*
X81280000Y-114300000D03*
G04 #@! TD*
G04 #@! TO.P,J3,1*
G04 #@! TO.N,/GND*
X76200000Y-114300000D03*
D11*
G04 #@! TO.P,J3,2*
G04 #@! TO.N,/FAN_P3*
X76200000Y-111760000D03*
G04 #@! TO.P,J3,3*
G04 #@! TO.N,/FAN3*
X76200000Y-109220000D03*
G04 #@! TO.P,J3,4*
G04 #@! TO.N,/PWM3*
X76200000Y-106680000D03*
G04 #@! TD*
G04 #@! TO.P,J2,4*
G04 #@! TO.N,/PWM2*
X71120000Y-106680000D03*
G04 #@! TO.P,J2,3*
G04 #@! TO.N,/FAN2*
X71120000Y-109220000D03*
G04 #@! TO.P,J2,2*
G04 #@! TO.N,/FAN_P2*
X71120000Y-111760000D03*
D10*
G04 #@! TO.P,J2,1*
G04 #@! TO.N,/GND*
X71120000Y-114300000D03*
G04 #@! TD*
G04 #@! TO.P,J1,1*
G04 #@! TO.N,/GND*
X66040000Y-114300000D03*
D11*
G04 #@! TO.P,J1,2*
G04 #@! TO.N,/FAN_P1*
X66040000Y-111760000D03*
G04 #@! TO.P,J1,3*
G04 #@! TO.N,/FAN1*
X66040000Y-109220000D03*
G04 #@! TO.P,J1,4*
G04 #@! TO.N,/PWM1*
X66040000Y-106680000D03*
G04 #@! TD*
D12*
G04 #@! TO.N,/GND*
X49609900Y-76194000D03*
X57229900Y-132074000D03*
G04 #@! TD*
D13*
G04 #@! TO.N,/GND*
X53340000Y-54765300D02*
X55880000Y-52225300D01*
X48260000Y-50800000D02*
X52225300Y-54765300D01*
X52225300Y-54765300D02*
X53340000Y-54765300D01*
X53340000Y-54765300D02*
X53340000Y-56994700D01*
X53340000Y-58420000D02*
X53340000Y-56994700D01*
X62074700Y-58420000D02*
X58420000Y-58420000D01*
X55880000Y-50800000D02*
X55880000Y-52225300D01*
X56896000Y-47145300D02*
X55880000Y-48161300D01*
X55880000Y-48161300D02*
X55880000Y-50800000D01*
X63500000Y-58420000D02*
X62074700Y-58420000D01*
X48260000Y-77314700D02*
X48489200Y-77314700D01*
X48489200Y-77314700D02*
X49609900Y-76194000D01*
X48260000Y-78740000D02*
X48260000Y-77314700D01*
X48260000Y-83820000D02*
X48260000Y-78740000D01*
X48260000Y-73660000D02*
X48260000Y-68580000D01*
X56896000Y-45720000D02*
X56896000Y-47145300D01*
X60960000Y-110645300D02*
X63500000Y-108105300D01*
X55880000Y-106680000D02*
X59845300Y-110645300D01*
X59845300Y-110645300D02*
X60960000Y-110645300D01*
X60960000Y-110645300D02*
X60960000Y-112874700D01*
X60960000Y-114300000D02*
X60960000Y-112874700D01*
X69694700Y-114300000D02*
X66040000Y-114300000D01*
X63500000Y-106680000D02*
X63500000Y-108105300D01*
X64516000Y-103025300D02*
X63500000Y-104041300D01*
X63500000Y-104041300D02*
X63500000Y-106680000D01*
X71120000Y-114300000D02*
X69694700Y-114300000D01*
X55880000Y-133194700D02*
X56109200Y-133194700D01*
X56109200Y-133194700D02*
X57229900Y-132074000D01*
X55880000Y-134620000D02*
X55880000Y-133194700D01*
X55880000Y-139700000D02*
X55880000Y-134620000D01*
X55880000Y-129540000D02*
X55880000Y-124460000D01*
X64516000Y-101600000D02*
X64516000Y-103025300D01*
G04 #@! TO.N,/FAN_P1*
X50800000Y-58420000D02*
X48330200Y-60889800D01*
X48330200Y-60889800D02*
X45790200Y-60889800D01*
X45790200Y-60889800D02*
X38100000Y-68580000D01*
X58420000Y-114300000D02*
X55950200Y-116769800D01*
X55950200Y-116769800D02*
X53410200Y-116769800D01*
X53410200Y-116769800D02*
X45720000Y-124460000D01*
D14*
G04 #@! TO.N,/FAN1*
X58420000Y-53340000D02*
X58420000Y-52164700D01*
X61976000Y-45720000D02*
X61976000Y-46895300D01*
X61976000Y-46895300D02*
X61976000Y-48976100D01*
X61976000Y-48976100D02*
X58787400Y-52164700D01*
X58787400Y-52164700D02*
X58420000Y-52164700D01*
X71120000Y-62324700D02*
X71928000Y-62324700D01*
X71928000Y-62324700D02*
X74916600Y-59336100D01*
X74916600Y-59336100D02*
X74916600Y-49354200D01*
X74916600Y-49354200D02*
X77375400Y-46895400D01*
X77375400Y-46895400D02*
X77375400Y-44660200D01*
X77375400Y-44660200D02*
X76755800Y-44040600D01*
X76755800Y-44040600D02*
X63655400Y-44040600D01*
X63655400Y-44040600D02*
X61976000Y-45720000D01*
X71120000Y-63500000D02*
X71120000Y-62324700D01*
X48260000Y-58420000D02*
X47084700Y-58420000D01*
X47084700Y-58420000D02*
X47084700Y-58787400D01*
X47084700Y-58787400D02*
X46276800Y-59595300D01*
X46276800Y-59595300D02*
X45422400Y-59595300D01*
X45422400Y-59595300D02*
X36880300Y-68137400D01*
X36880300Y-68137400D02*
X36880300Y-79256200D01*
X36880300Y-79256200D02*
X40942200Y-83318100D01*
X40942200Y-83318100D02*
X44488000Y-83318100D01*
X44488000Y-83318100D02*
X48718700Y-87548800D01*
X48718700Y-87548800D02*
X54315400Y-87548800D01*
X54315400Y-87548800D02*
X54546900Y-87317300D01*
X54546900Y-87317300D02*
X54546900Y-85026900D01*
X54546900Y-85026900D02*
X53340000Y-83820000D01*
X66040000Y-109220000D02*
X66040000Y-108044700D01*
X69596000Y-101600000D02*
X69596000Y-102775300D01*
X69596000Y-102775300D02*
X69596000Y-104856100D01*
X69596000Y-104856100D02*
X66407400Y-108044700D01*
X66407400Y-108044700D02*
X66040000Y-108044700D01*
X78740000Y-118204700D02*
X79548000Y-118204700D01*
X79548000Y-118204700D02*
X82536600Y-115216100D01*
X82536600Y-115216100D02*
X82536600Y-105234200D01*
X82536600Y-105234200D02*
X84995400Y-102775400D01*
X84995400Y-102775400D02*
X84995400Y-100540200D01*
X84995400Y-100540200D02*
X84375800Y-99920600D01*
X84375800Y-99920600D02*
X71275400Y-99920600D01*
X71275400Y-99920600D02*
X69596000Y-101600000D01*
X78740000Y-119380000D02*
X78740000Y-118204700D01*
X55880000Y-114300000D02*
X54704700Y-114300000D01*
X54704700Y-114300000D02*
X54704700Y-114667400D01*
X54704700Y-114667400D02*
X53896800Y-115475300D01*
X53896800Y-115475300D02*
X53042400Y-115475300D01*
X53042400Y-115475300D02*
X44500300Y-124017400D01*
X44500300Y-124017400D02*
X44500300Y-135136200D01*
X44500300Y-135136200D02*
X48562200Y-139198100D01*
X48562200Y-139198100D02*
X52108000Y-139198100D01*
X52108000Y-139198100D02*
X56338700Y-143428800D01*
X56338700Y-143428800D02*
X61935400Y-143428800D01*
X61935400Y-143428800D02*
X62166900Y-143197300D01*
X62166900Y-143197300D02*
X62166900Y-140906900D01*
X62166900Y-140906900D02*
X60960000Y-139700000D01*
G04 #@! TO.N,/PWM1*
X68580000Y-63500000D02*
X67404700Y-63500000D01*
X55880000Y-83820000D02*
X55880000Y-82644700D01*
X55880000Y-82644700D02*
X59690000Y-78834700D01*
X59690000Y-78834700D02*
X59690000Y-63100200D01*
X59690000Y-63100200D02*
X60465500Y-62324700D01*
X60465500Y-62324700D02*
X66229400Y-62324700D01*
X66229400Y-62324700D02*
X67404700Y-63500000D01*
X59436000Y-46895300D02*
X58420000Y-47911300D01*
X58420000Y-47911300D02*
X58420000Y-50800000D01*
X59436000Y-45720000D02*
X59436000Y-46895300D01*
X76200000Y-119380000D02*
X75024700Y-119380000D01*
X63500000Y-139700000D02*
X63500000Y-138524700D01*
X63500000Y-138524700D02*
X67310000Y-134714700D01*
X67310000Y-134714700D02*
X67310000Y-118980200D01*
X67310000Y-118980200D02*
X68085500Y-118204700D01*
X68085500Y-118204700D02*
X73849400Y-118204700D01*
X73849400Y-118204700D02*
X75024700Y-119380000D01*
X67056000Y-102775300D02*
X66040000Y-103791300D01*
X66040000Y-103791300D02*
X66040000Y-106680000D01*
X67056000Y-101600000D02*
X67056000Y-102775300D01*
G04 #@! TO.N,/PWM2*
X53340000Y-63500000D02*
X53340000Y-61332600D01*
X53340000Y-61332600D02*
X57428000Y-57244600D01*
X57428000Y-57244600D02*
X58755600Y-57244600D01*
X58755600Y-57244600D02*
X62023500Y-53976700D01*
X62023500Y-53976700D02*
X62023500Y-52276500D01*
X62023500Y-52276500D02*
X63500000Y-50800000D01*
X55880000Y-78740000D02*
X55880000Y-75749700D01*
X55880000Y-75749700D02*
X54610000Y-74479700D01*
X54610000Y-74479700D02*
X54610000Y-67357300D01*
X54610000Y-67357300D02*
X53340000Y-66087300D01*
X53340000Y-66087300D02*
X53340000Y-63500000D01*
X63500000Y-50800000D02*
X63500000Y-49624700D01*
X64516000Y-45720000D02*
X64516000Y-48608700D01*
X64516000Y-48608700D02*
X63500000Y-49624700D01*
X60960000Y-119380000D02*
X60960000Y-117212600D01*
X60960000Y-117212600D02*
X65048000Y-113124600D01*
X65048000Y-113124600D02*
X66375600Y-113124600D01*
X66375600Y-113124600D02*
X69643500Y-109856700D01*
X69643500Y-109856700D02*
X69643500Y-108156500D01*
X69643500Y-108156500D02*
X71120000Y-106680000D01*
X63500000Y-134620000D02*
X63500000Y-131629700D01*
X63500000Y-131629700D02*
X62230000Y-130359700D01*
X62230000Y-130359700D02*
X62230000Y-123237300D01*
X62230000Y-123237300D02*
X60960000Y-121967300D01*
X60960000Y-121967300D02*
X60960000Y-119380000D01*
X71120000Y-106680000D02*
X71120000Y-105504700D01*
X72136000Y-101600000D02*
X72136000Y-104488700D01*
X72136000Y-104488700D02*
X71120000Y-105504700D01*
G04 #@! TO.N,/FAN2*
X53340000Y-78740000D02*
X53340000Y-77564700D01*
X47625000Y-63500000D02*
X47625000Y-64675300D01*
X47625000Y-64675300D02*
X48579900Y-64675300D01*
X48579900Y-64675300D02*
X52164700Y-68260100D01*
X52164700Y-68260100D02*
X52164700Y-76389400D01*
X52164700Y-76389400D02*
X53340000Y-77564700D01*
X63500000Y-53340000D02*
X63500000Y-52175200D01*
X67056000Y-46895300D02*
X67056000Y-48976000D01*
X67056000Y-48976000D02*
X63856800Y-52175200D01*
X63856800Y-52175200D02*
X63500000Y-52175200D01*
X67056000Y-46307600D02*
X67056000Y-45720000D01*
X67056000Y-46307600D02*
X67056000Y-46895300D01*
X60960000Y-134620000D02*
X60960000Y-133444700D01*
X55245000Y-119380000D02*
X55245000Y-120555300D01*
X55245000Y-120555300D02*
X56199900Y-120555300D01*
X56199900Y-120555300D02*
X59784700Y-124140100D01*
X59784700Y-124140100D02*
X59784700Y-132269400D01*
X59784700Y-132269400D02*
X60960000Y-133444700D01*
X71120000Y-109220000D02*
X71120000Y-108055200D01*
X74676000Y-102775300D02*
X74676000Y-104856000D01*
X74676000Y-104856000D02*
X71476800Y-108055200D01*
X71476800Y-108055200D02*
X71120000Y-108055200D01*
X74676000Y-102187600D02*
X74676000Y-101600000D01*
X74676000Y-102187600D02*
X74676000Y-102775300D01*
D13*
G04 #@! TO.N,/FAN_P3*
X38100000Y-78740000D02*
X39525400Y-80165400D01*
X39525400Y-80165400D02*
X41745500Y-80165400D01*
X41745500Y-80165400D02*
X46734800Y-75176100D01*
X46734800Y-75176100D02*
X49283900Y-75176100D01*
X49283900Y-75176100D02*
X50800000Y-73660000D01*
X45720000Y-134620000D02*
X47145400Y-136045400D01*
X47145400Y-136045400D02*
X49365500Y-136045400D01*
X49365500Y-136045400D02*
X54354800Y-131056100D01*
X54354800Y-131056100D02*
X56903900Y-131056100D01*
X56903900Y-131056100D02*
X58420000Y-129540000D01*
D14*
G04 #@! TO.N,/FAN3*
X54515300Y-79942300D02*
X56375700Y-79942300D01*
X56375700Y-79942300D02*
X57221400Y-79096600D01*
X57221400Y-79096600D02*
X57221400Y-62266900D01*
X57221400Y-62266900D02*
X59442600Y-60045700D01*
X59442600Y-60045700D02*
X64702900Y-60045700D01*
X64702900Y-60045700D02*
X65996200Y-58752400D01*
X65996200Y-58752400D02*
X65996200Y-56731700D01*
X65996200Y-56731700D02*
X68212600Y-54515300D01*
X68212600Y-54515300D02*
X68580000Y-54515300D01*
X54515300Y-79942300D02*
X54515300Y-76010600D01*
X54515300Y-76010600D02*
X53340000Y-74835300D01*
X53340000Y-85184700D02*
X52972700Y-85184700D01*
X52972700Y-85184700D02*
X52124900Y-84336900D01*
X52124900Y-84336900D02*
X52124900Y-82332700D01*
X52124900Y-82332700D02*
X54515300Y-79942300D01*
X68580000Y-53340000D02*
X68580000Y-54515300D01*
X53340000Y-73660000D02*
X53340000Y-74835300D01*
X53340000Y-86360000D02*
X53340000Y-85184700D01*
X62135300Y-135822300D02*
X63995700Y-135822300D01*
X63995700Y-135822300D02*
X64841400Y-134976600D01*
X64841400Y-134976600D02*
X64841400Y-118146900D01*
X64841400Y-118146900D02*
X67062600Y-115925700D01*
X67062600Y-115925700D02*
X72322900Y-115925700D01*
X72322900Y-115925700D02*
X73616200Y-114632400D01*
X73616200Y-114632400D02*
X73616200Y-112611700D01*
X73616200Y-112611700D02*
X75832600Y-110395300D01*
X75832600Y-110395300D02*
X76200000Y-110395300D01*
X62135300Y-135822300D02*
X62135300Y-131890600D01*
X62135300Y-131890600D02*
X60960000Y-130715300D01*
X60960000Y-141064700D02*
X60592700Y-141064700D01*
X60592700Y-141064700D02*
X59744900Y-140216900D01*
X59744900Y-140216900D02*
X59744900Y-138212700D01*
X59744900Y-138212700D02*
X62135300Y-135822300D01*
X76200000Y-109220000D02*
X76200000Y-110395300D01*
X60960000Y-129540000D02*
X60960000Y-130715300D01*
X60960000Y-142240000D02*
X60960000Y-141064700D01*
G04 #@! TO.N,/PWM3*
X50165000Y-63500000D02*
X51340300Y-63500000D01*
X69008400Y-45720000D02*
X67784900Y-44496500D01*
X67784900Y-44496500D02*
X64013100Y-44496500D01*
X64013100Y-44496500D02*
X63340600Y-45169000D01*
X63340600Y-45169000D02*
X63340600Y-48248400D01*
X63340600Y-48248400D02*
X60415000Y-51174000D01*
X60415000Y-51174000D02*
X60415000Y-53022900D01*
X60415000Y-53022900D02*
X58827900Y-54610000D01*
X58827900Y-54610000D02*
X57985600Y-54610000D01*
X57985600Y-54610000D02*
X55133200Y-57462400D01*
X55133200Y-57462400D02*
X55133200Y-58802400D01*
X55133200Y-58802400D02*
X51340300Y-62595300D01*
X51340300Y-62595300D02*
X51340300Y-63500000D01*
X68580000Y-49624700D02*
X69008400Y-49196300D01*
X69008400Y-49196300D02*
X69008400Y-45720000D01*
X68580000Y-50800000D02*
X68580000Y-49624700D01*
X69596000Y-45720000D02*
X69008400Y-45720000D01*
X57785000Y-119380000D02*
X58960300Y-119380000D01*
X76628400Y-101600000D02*
X75404900Y-100376500D01*
X75404900Y-100376500D02*
X71633100Y-100376500D01*
X71633100Y-100376500D02*
X70960600Y-101049000D01*
X70960600Y-101049000D02*
X70960600Y-104128400D01*
X70960600Y-104128400D02*
X68035000Y-107054000D01*
X68035000Y-107054000D02*
X68035000Y-108902900D01*
X68035000Y-108902900D02*
X66447900Y-110490000D01*
X66447900Y-110490000D02*
X65605600Y-110490000D01*
X65605600Y-110490000D02*
X62753200Y-113342400D01*
X62753200Y-113342400D02*
X62753200Y-114682400D01*
X62753200Y-114682400D02*
X58960300Y-118475300D01*
X58960300Y-118475300D02*
X58960300Y-119380000D01*
X76200000Y-105504700D02*
X76628400Y-105076300D01*
X76628400Y-105076300D02*
X76628400Y-101600000D01*
X76200000Y-106680000D02*
X76200000Y-105504700D01*
X77216000Y-101600000D02*
X76628400Y-101600000D01*
G04 #@! TO.N,/PWM4*
X73660000Y-50800000D02*
X72484700Y-50800000D01*
X72484700Y-50800000D02*
X71309400Y-51975300D01*
X71309400Y-51975300D02*
X68246600Y-51975300D01*
X68246600Y-51975300D02*
X65386900Y-54835000D01*
X65386900Y-54835000D02*
X65386900Y-58724800D01*
X65386900Y-58724800D02*
X64516300Y-59595400D01*
X64516300Y-59595400D02*
X57624500Y-59595400D01*
X57624500Y-59595400D02*
X54704600Y-62515300D01*
X54704600Y-62515300D02*
X54704600Y-66229300D01*
X54704600Y-66229300D02*
X55880000Y-67404700D01*
X76200000Y-46895300D02*
X73660000Y-49435300D01*
X73660000Y-49435300D02*
X73660000Y-50800000D01*
X55880000Y-68580000D02*
X55880000Y-67404700D01*
X76200000Y-45720000D02*
X76200000Y-46895300D01*
X81280000Y-106680000D02*
X80104700Y-106680000D01*
X80104700Y-106680000D02*
X78929400Y-107855300D01*
X78929400Y-107855300D02*
X75866600Y-107855300D01*
X75866600Y-107855300D02*
X73006900Y-110715000D01*
X73006900Y-110715000D02*
X73006900Y-114604800D01*
X73006900Y-114604800D02*
X72136300Y-115475400D01*
X72136300Y-115475400D02*
X65244500Y-115475400D01*
X65244500Y-115475400D02*
X62324600Y-118395300D01*
X62324600Y-118395300D02*
X62324600Y-122109300D01*
X62324600Y-122109300D02*
X63500000Y-123284700D01*
X83820000Y-102775300D02*
X81280000Y-105315300D01*
X81280000Y-105315300D02*
X81280000Y-106680000D01*
X63500000Y-124460000D02*
X63500000Y-123284700D01*
X83820000Y-101600000D02*
X83820000Y-102775300D01*
D13*
G04 #@! TO.N,/12V*
X40640000Y-68580000D02*
X42065300Y-68580000D01*
X42065300Y-68580000D02*
X43490700Y-67154600D01*
X43490700Y-67154600D02*
X49374600Y-67154600D01*
X49374600Y-67154600D02*
X50800000Y-68580000D01*
X40640000Y-68580000D02*
X40640000Y-73660000D01*
X73660000Y-55880000D02*
X72234700Y-55880000D01*
X58420000Y-63500000D02*
X58420000Y-62074700D01*
X58420000Y-62074700D02*
X58870400Y-61624300D01*
X58870400Y-61624300D02*
X67915700Y-61624300D01*
X67915700Y-61624300D02*
X72234700Y-57305300D01*
X72234700Y-57305300D02*
X72234700Y-55880000D01*
X40640000Y-73660000D02*
X40640000Y-78740000D01*
X48260000Y-124460000D02*
X49685300Y-124460000D01*
X49685300Y-124460000D02*
X51110700Y-123034600D01*
X51110700Y-123034600D02*
X56994600Y-123034600D01*
X56994600Y-123034600D02*
X58420000Y-124460000D01*
X48260000Y-124460000D02*
X48260000Y-129540000D01*
X81280000Y-111760000D02*
X79854700Y-111760000D01*
X66040000Y-119380000D02*
X66040000Y-117954700D01*
X66040000Y-117954700D02*
X66490400Y-117504300D01*
X66490400Y-117504300D02*
X75535700Y-117504300D01*
X75535700Y-117504300D02*
X79854700Y-113185300D01*
X79854700Y-113185300D02*
X79854700Y-111760000D01*
X48260000Y-129540000D02*
X48260000Y-134620000D01*
D14*
G04 #@! TO.N,/FAN5*
X62135300Y-63500000D02*
X62135300Y-63867300D01*
X62135300Y-63867300D02*
X63473700Y-65205700D01*
X63473700Y-65205700D02*
X71726700Y-65205700D01*
X71726700Y-65205700D02*
X75817400Y-61115000D01*
X75817400Y-61115000D02*
X75817400Y-57070600D01*
X75817400Y-57070600D02*
X78372700Y-54515300D01*
X78372700Y-54515300D02*
X78740000Y-54515300D01*
X78740000Y-53340000D02*
X78740000Y-52164700D01*
X83820000Y-45720000D02*
X83820000Y-47452000D01*
X83820000Y-47452000D02*
X79107300Y-52164700D01*
X79107300Y-52164700D02*
X78740000Y-52164700D01*
X78740000Y-53340000D02*
X78740000Y-54515300D01*
X60960000Y-63500000D02*
X62135300Y-63500000D01*
X69755300Y-119380000D02*
X69755300Y-119747300D01*
X69755300Y-119747300D02*
X71093700Y-121085700D01*
X71093700Y-121085700D02*
X79346700Y-121085700D01*
X79346700Y-121085700D02*
X83437400Y-116995000D01*
X83437400Y-116995000D02*
X83437400Y-112950600D01*
X83437400Y-112950600D02*
X85992700Y-110395300D01*
X85992700Y-110395300D02*
X86360000Y-110395300D01*
X86360000Y-109220000D02*
X86360000Y-108044700D01*
X91440000Y-101600000D02*
X91440000Y-103332000D01*
X91440000Y-103332000D02*
X86727300Y-108044700D01*
X86727300Y-108044700D02*
X86360000Y-108044700D01*
X86360000Y-109220000D02*
X86360000Y-110395300D01*
X68580000Y-119380000D02*
X69755300Y-119380000D01*
G04 #@! TO.N,/PWM5*
X64675300Y-63500000D02*
X65850600Y-64675300D01*
X65850600Y-64675300D02*
X71620200Y-64675300D01*
X71620200Y-64675300D02*
X75367000Y-60928500D01*
X75367000Y-60928500D02*
X75367000Y-54173000D01*
X75367000Y-54173000D02*
X78740000Y-50800000D01*
X81280000Y-46895300D02*
X78740000Y-49435300D01*
X78740000Y-49435300D02*
X78740000Y-50800000D01*
X63500000Y-63500000D02*
X64675300Y-63500000D01*
X81280000Y-45720000D02*
X81280000Y-46895300D01*
X72295300Y-119380000D02*
X73470600Y-120555300D01*
X73470600Y-120555300D02*
X79240200Y-120555300D01*
X79240200Y-120555300D02*
X82987000Y-116808500D01*
X82987000Y-116808500D02*
X82987000Y-110053000D01*
X82987000Y-110053000D02*
X86360000Y-106680000D01*
X88900000Y-102775300D02*
X86360000Y-105315300D01*
X86360000Y-105315300D02*
X86360000Y-106680000D01*
X71120000Y-119380000D02*
X72295300Y-119380000D01*
X88900000Y-101600000D02*
X88900000Y-102775300D01*
G04 #@! TO.N,/PWM6*
X86360000Y-49435300D02*
X87724700Y-50800000D01*
X86360000Y-46895300D02*
X86360000Y-49435300D01*
X86360000Y-49435300D02*
X84995300Y-50800000D01*
X83820000Y-50800000D02*
X84995300Y-50800000D01*
X88900000Y-50800000D02*
X87724700Y-50800000D01*
X86360000Y-45720000D02*
X86360000Y-46895300D01*
X93980000Y-105315300D02*
X95344700Y-106680000D01*
X93980000Y-102775300D02*
X93980000Y-105315300D01*
X93980000Y-105315300D02*
X92615300Y-106680000D01*
X91440000Y-106680000D02*
X92615300Y-106680000D01*
X96520000Y-106680000D02*
X95344700Y-106680000D01*
X93980000Y-101600000D02*
X93980000Y-102775300D01*
G04 #@! TO.N,/FAN6*
X88900000Y-53340000D02*
X88900000Y-52164700D01*
X88900000Y-45720000D02*
X88900000Y-46895300D01*
X88900000Y-46895300D02*
X90075300Y-48070600D01*
X90075300Y-48070600D02*
X90075300Y-51356800D01*
X90075300Y-51356800D02*
X89267400Y-52164700D01*
X89267400Y-52164700D02*
X88900000Y-52164700D01*
X96520000Y-109220000D02*
X96520000Y-108044700D01*
X96520000Y-101600000D02*
X96520000Y-102775300D01*
X96520000Y-102775300D02*
X97695300Y-103950600D01*
X97695300Y-103950600D02*
X97695300Y-107236800D01*
X97695300Y-107236800D02*
X96887400Y-108044700D01*
X96887400Y-108044700D02*
X96520000Y-108044700D01*
G04 #@! TO.N,/A6*
X96580000Y-82470000D02*
X96580000Y-83645300D01*
X96580000Y-83645300D02*
X96500000Y-83725300D01*
X96500000Y-83725300D02*
X96500000Y-93970000D01*
G04 #@! TO.N,/A5*
X94040000Y-82470000D02*
X92864700Y-82470000D01*
X74480000Y-71070000D02*
X75655300Y-71070000D01*
X75655300Y-71070000D02*
X75655300Y-71878100D01*
X75655300Y-71878100D02*
X76022500Y-72245300D01*
X76022500Y-72245300D02*
X77325700Y-72245300D01*
X77325700Y-72245300D02*
X78242200Y-73161800D01*
X78242200Y-73161800D02*
X78242200Y-75105600D01*
X78242200Y-75105600D02*
X81403000Y-78266400D01*
X81403000Y-78266400D02*
X83878800Y-78266400D01*
X83878800Y-78266400D02*
X85244600Y-79632200D01*
X85244600Y-79632200D02*
X85244600Y-80514100D01*
X85244600Y-80514100D02*
X86025200Y-81294700D01*
X86025200Y-81294700D02*
X92056800Y-81294700D01*
X92056800Y-81294700D02*
X92864700Y-82102600D01*
X92864700Y-82102600D02*
X92864700Y-82470000D01*
X94040000Y-82470000D02*
X94040000Y-83645300D01*
X94040000Y-83645300D02*
X93960000Y-83725300D01*
X93960000Y-83725300D02*
X93960000Y-93970000D01*
G04 #@! TO.N,/A4*
X91500000Y-82470000D02*
X91500000Y-83645300D01*
X91500000Y-83645300D02*
X91420000Y-83725300D01*
X91420000Y-83725300D02*
X91420000Y-93970000D01*
G04 #@! TO.N,/A11*
X86420000Y-83645300D02*
X86340000Y-83725300D01*
X86340000Y-83725300D02*
X86340000Y-93970000D01*
X86420000Y-82470000D02*
X86420000Y-83645300D01*
G04 #@! TO.N,/A12*
X88960000Y-82470000D02*
X88960000Y-83645300D01*
X88960000Y-83645300D02*
X88880000Y-83725300D01*
X88880000Y-83725300D02*
X88880000Y-93970000D01*
G04 #@! TO.N,/A1*
X83800000Y-93970000D02*
X83800000Y-92794700D01*
X83880000Y-82470000D02*
X83880000Y-92714700D01*
X83880000Y-92714700D02*
X83800000Y-92794700D01*
G04 #@! TO.N,/A0*
X81260000Y-93970000D02*
X81260000Y-92794700D01*
X81340000Y-82470000D02*
X81340000Y-92714700D01*
X81340000Y-92714700D02*
X81260000Y-92794700D01*
X81340000Y-81882300D02*
X81340000Y-82470000D01*
X81340000Y-81882300D02*
X81340000Y-81294700D01*
X74480000Y-73610000D02*
X74480000Y-74802000D01*
X74480000Y-74802000D02*
X80972700Y-81294700D01*
X80972700Y-81294700D02*
X81340000Y-81294700D01*
G04 #@! TO.N,/A7*
X99120000Y-82470000D02*
X99120000Y-83645300D01*
X99120000Y-83645300D02*
X99040000Y-83725300D01*
X99040000Y-83725300D02*
X99040000Y-93970000D01*
G04 #@! TO.N,GND*
X77020000Y-74785300D02*
X80989400Y-78754700D01*
X80989400Y-78754700D02*
X81340000Y-78754700D01*
X77020000Y-73610000D02*
X77020000Y-74785300D01*
X81340000Y-79930000D02*
X81340000Y-78754700D01*
G04 #@! TO.N,/5V*
X68560000Y-93970000D02*
X68560000Y-92794700D01*
X77020000Y-71070000D02*
X75807800Y-69857800D01*
X75807800Y-69857800D02*
X74027400Y-69857800D01*
X74027400Y-69857800D02*
X73294200Y-70591000D01*
X73294200Y-70591000D02*
X73294200Y-88060500D01*
X73294200Y-88060500D02*
X68560000Y-92794700D01*
G04 #@! TD*
M02*
