M48
;DRILL file {KiCad 5.0.0} date Thu Oct 25 12:48:16 2018
;FORMAT={-:-/ absolute / inch / decimal}
FMAT,2
INCH,TZ
T1C0.0157
T2C0.0315
T3C0.0394
T4C0.0512
%
G90
G05
M72
T1
X4.1319Y-4.7393
X4.1937Y-4.6573
X4.2736Y-4.7156
X4.3055Y-4.7398
X4.3352Y-5.2563
X4.3478Y-5.4357
X4.3564Y-4.3037
X4.3991Y-4.6867
X4.4824Y-4.6573
X4.5355Y-4.9451
X4.5422Y-5.3302
X4.9154Y-4.7393
X4.9772Y-4.6573
X5.0571Y-4.7156
X5.0889Y-4.7398
X5.1187Y-5.2563
X5.1313Y-5.4357
X5.1398Y-4.3037
X5.1826Y-4.6867
X5.2658Y-4.6573
X5.319Y-4.9451
X5.3257Y-5.3302
X5.6989Y-4.7393
X5.7606Y-4.6573
X5.8406Y-4.7156
X5.8724Y-4.7398
X5.9022Y-5.2563
X5.9147Y-5.4357
X5.9233Y-4.3037
X5.966Y-4.6867
X6.0493Y-4.6573
X6.1024Y-4.9451
X6.1092Y-5.3302
X6.335Y-7.4727
X6.4863Y-4.7393
X6.5216Y-7.493
X6.548Y-4.6573
X6.628Y-4.7156
X6.6598Y-4.7398
X6.6662Y-7.4937
X6.6896Y-5.2563
X6.7021Y-5.4357
X6.7107Y-4.3037
X6.7534Y-4.6867
X6.8367Y-4.6573
X6.8898Y-4.9451
X6.8966Y-5.3302
X6.9041Y-6.6151
X7.2776Y-4.7393
X7.3394Y-4.6573
X7.4193Y-4.7156
X7.4511Y-4.7398
X7.4809Y-5.2563
X7.4935Y-5.4357
X7.5021Y-4.3037
X7.5448Y-4.6867
X7.628Y-4.6573
X7.6812Y-4.9451
X7.6879Y-5.3302
T2
X5.8469Y-6.6664
X5.8469Y-7.2664
X5.9469Y-6.6664
X5.9469Y-7.2664
X6.0469Y-6.6664
X6.0469Y-7.2664
X6.1469Y-6.6664
X6.1469Y-7.2664
X6.2469Y-6.6664
X6.2469Y-7.2664
X6.3469Y-6.6664
X6.3469Y-7.2664
X6.4469Y-6.6664
X6.4469Y-7.2664
X6.5469Y-6.6664
X6.5469Y-7.2664
X6.6469Y-6.6664
X6.6469Y-7.2664
X6.7469Y-6.6664
X6.7469Y-7.2664
X6.8469Y-6.6664
X6.8469Y-7.2664
X6.9469Y-6.6664
X6.9469Y-7.2664
X7.0469Y-6.6664
X7.0469Y-7.2664
X7.1469Y-6.6664
X7.1469Y-7.2664
X7.2469Y-6.6664
X7.2469Y-7.2664
X7.3469Y-6.6664
X7.3469Y-7.2664
X7.4469Y-6.6664
X7.4469Y-7.2664
X7.5469Y-6.6664
X7.5469Y-7.2664
X7.6469Y-6.6664
X7.6469Y-7.2664
X7.7469Y-6.6664
X7.7469Y-7.2664
T3
X6.2366Y-7.69
X6.2366Y-7.79
X6.3366Y-7.69
X6.3366Y-7.79
X6.4366Y-7.69
X6.4366Y-7.79
X6.5366Y-7.69
X6.5366Y-7.79
X6.6366Y-7.69
X6.6366Y-7.79
X6.7366Y-7.69
X6.7366Y-7.79
X6.8366Y-7.69
X6.8366Y-7.79
X6.9366Y-7.69
X6.9366Y-7.79
X7.0366Y-7.69
X7.0366Y-7.79
X7.1366Y-7.69
X7.1366Y-7.79
X7.2366Y-7.69
X7.2366Y-7.79
X7.3366Y-7.69
X7.3366Y-7.79
X5.077Y-6.1954
X5.077Y-6.2954
X5.077Y-6.3954
X5.077Y-6.4954
X5.077Y-6.5954
X5.077Y-6.6954
X5.077Y-6.7954
X5.077Y-6.8954
X5.177Y-6.1954
X5.177Y-6.2954
X5.177Y-6.3954
X5.177Y-6.4954
X5.177Y-6.5954
X5.177Y-6.6954
X5.177Y-6.7954
X5.177Y-6.8954
X4.7282Y-7.0654
X4.7282Y-7.1654
X4.7282Y-7.2654
X4.7282Y-7.3654
X4.7282Y-7.4654
X4.8282Y-7.0654
X4.8282Y-7.1654
X4.8282Y-7.2654
X4.8282Y-7.3654
X4.8282Y-7.4654
X6.2366Y-6.1152
X6.2366Y-6.2152
X6.3366Y-6.1152
X6.3366Y-6.2152
X6.4366Y-6.1152
X6.4366Y-6.2152
X6.5366Y-6.1152
X6.5366Y-6.2152
X6.6366Y-6.1152
X6.6366Y-6.2152
X6.7366Y-6.1152
X6.7366Y-6.2152
X6.8366Y-6.1152
X6.8366Y-6.2152
X6.9366Y-6.1152
X6.9366Y-6.2152
X7.0366Y-6.1152
X7.0366Y-6.2152
X7.1366Y-6.1152
X7.1366Y-6.2152
X7.2366Y-6.1152
X7.2366Y-6.2152
X7.3366Y-6.1152
X7.3366Y-6.2152
X5.8357Y-5.6552
X5.9357Y-5.6552
X5.6297Y-6.1985
X5.6297Y-6.2985
X5.6297Y-6.3985
X5.6297Y-6.4985
X5.6297Y-6.5985
X5.6297Y-6.6985
X5.6297Y-6.7985
X5.6297Y-6.8985
X5.6297Y-6.9985
X5.6297Y-7.0985
X5.6297Y-7.1985
X5.6297Y-7.2985
X5.6297Y-7.3985
X5.6297Y-7.4985
X5.0523Y-5.6552
X5.1523Y-5.6552
X7.4145Y-5.6552
X7.5145Y-5.6552
X5.8357Y-4.2052
X5.9357Y-4.2052
X7.4145Y-4.2052
X7.5145Y-4.2052
X5.0523Y-4.2052
X5.1523Y-4.2052
X7.6185Y-7.4388
X7.6185Y-7.5388
X7.6185Y-7.6388
X7.6185Y-7.7388
X4.2688Y-4.2052
X4.3688Y-4.2052
X6.6231Y-5.6552
X6.7231Y-5.6552
X4.2688Y-5.6552
X4.3688Y-5.6552
X6.6231Y-4.2052
X6.7231Y-4.2052
T4
X6.3808Y-4.0152
X6.3808Y-4.1152
X6.3808Y-4.2152
X6.3808Y-4.3152
X6.3808Y-4.4152
X6.3808Y-4.5152
X6.3808Y-4.6152
X6.3808Y-4.7152
X6.3808Y-4.8152
X6.3808Y-4.9152
X6.3808Y-5.0152
X6.3808Y-5.1152
X6.3808Y-5.2152
X6.3808Y-5.3152
X6.3808Y-5.4152
X6.3808Y-5.5152
X6.3808Y-5.6152
X6.3808Y-5.7152
X6.3808Y-5.8152
X6.3808Y-5.9152
X6.9808Y-4.0152
X6.9808Y-4.1152
X6.9808Y-4.2152
X6.9808Y-4.3152
X6.9808Y-4.4152
X6.9808Y-4.5152
X6.9808Y-4.6152
X6.9808Y-4.7152
X6.9808Y-4.8152
X6.9808Y-4.9152
X6.9808Y-5.0152
X6.9808Y-5.1152
X6.9808Y-5.2152
X6.9808Y-5.3152
X6.9808Y-5.4152
X6.9808Y-5.5152
X6.9808Y-5.6152
X6.9808Y-5.7152
X6.9808Y-5.8152
X6.9808Y-5.9152
X7.1722Y-4.0152
X7.1722Y-4.1152
X7.1722Y-4.2152
X7.1722Y-4.3152
X7.1722Y-4.4152
X7.1722Y-4.5152
X7.1722Y-4.6152
X7.1722Y-4.7152
X7.1722Y-4.8152
X7.1722Y-4.9152
X7.1722Y-5.0152
X7.1722Y-5.1152
X7.1722Y-5.2152
X7.1722Y-5.3152
X7.1722Y-5.4152
X7.1722Y-5.5152
X7.1722Y-5.6152
X7.1722Y-5.7152
X7.1722Y-5.8152
X7.1722Y-5.9152
X7.7722Y-4.0152
X7.7722Y-4.1152
X7.7722Y-4.2152
X7.7722Y-4.3152
X7.7722Y-4.4152
X7.7722Y-4.5152
X7.7722Y-4.6152
X7.7722Y-4.7152
X7.7722Y-4.8152
X7.7722Y-4.9152
X7.7722Y-5.0152
X7.7722Y-5.1152
X7.7722Y-5.2152
X7.7722Y-5.3152
X7.7722Y-5.4152
X7.7722Y-5.5152
X7.7722Y-5.6152
X7.7722Y-5.7152
X7.7722Y-5.8152
X7.7722Y-5.9152
X4.0265Y-4.0152
X4.0265Y-4.1152
X4.0265Y-4.2152
X4.0265Y-4.3152
X4.0265Y-4.4152
X4.0265Y-4.5152
X4.0265Y-4.6152
X4.0265Y-4.7152
X4.0265Y-4.8152
X4.0265Y-4.9152
X4.0265Y-5.0152
X4.0265Y-5.1152
X4.0265Y-5.2152
X4.0265Y-5.3152
X4.0265Y-5.4152
X4.0265Y-5.5152
X4.0265Y-5.6152
X4.0265Y-5.7152
X4.0265Y-5.8152
X4.0265Y-5.9152
X4.6265Y-4.0152
X4.6265Y-4.1152
X4.6265Y-4.2152
X4.6265Y-4.3152
X4.6265Y-4.4152
X4.6265Y-4.5152
X4.6265Y-4.6152
X4.6265Y-4.7152
X4.6265Y-4.8152
X4.6265Y-4.9152
X4.6265Y-5.0152
X4.6265Y-5.1152
X4.6265Y-5.2152
X4.6265Y-5.3152
X4.6265Y-5.4152
X4.6265Y-5.5152
X4.6265Y-5.6152
X4.6265Y-5.7152
X4.6265Y-5.8152
X4.6265Y-5.9152
X5.5934Y-4.0152
X5.5934Y-4.1152
X5.5934Y-4.2152
X5.5934Y-4.3152
X5.5934Y-4.4152
X5.5934Y-4.5152
X5.5934Y-4.6152
X5.5934Y-4.7152
X5.5934Y-4.8152
X5.5934Y-4.9152
X5.5934Y-5.0152
X5.5934Y-5.1152
X5.5934Y-5.2152
X5.5934Y-5.3152
X5.5934Y-5.4152
X5.5934Y-5.5152
X5.5934Y-5.6152
X5.5934Y-5.7152
X5.5934Y-5.8152
X5.5934Y-5.9152
X6.1934Y-4.0152
X6.1934Y-4.1152
X6.1934Y-4.2152
X6.1934Y-4.3152
X6.1934Y-4.4152
X6.1934Y-4.5152
X6.1934Y-4.6152
X6.1934Y-4.7152
X6.1934Y-4.8152
X6.1934Y-4.9152
X6.1934Y-5.0152
X6.1934Y-5.1152
X6.1934Y-5.2152
X6.1934Y-5.3152
X6.1934Y-5.4152
X6.1934Y-5.5152
X6.1934Y-5.6152
X6.1934Y-5.7152
X6.1934Y-5.8152
X6.1934Y-5.9152
X4.81Y-4.0152
X4.81Y-4.1152
X4.81Y-4.2152
X4.81Y-4.3152
X4.81Y-4.4152
X4.81Y-4.5152
X4.81Y-4.6152
X4.81Y-4.7152
X4.81Y-4.8152
X4.81Y-4.9152
X4.81Y-5.0152
X4.81Y-5.1152
X4.81Y-5.2152
X4.81Y-5.3152
X4.81Y-5.4152
X4.81Y-5.5152
X4.81Y-5.6152
X4.81Y-5.7152
X4.81Y-5.8152
X4.81Y-5.9152
X5.41Y-4.0152
X5.41Y-4.1152
X5.41Y-4.2152
X5.41Y-4.3152
X5.41Y-4.4152
X5.41Y-4.5152
X5.41Y-4.6152
X5.41Y-4.7152
X5.41Y-4.8152
X5.41Y-4.9152
X5.41Y-5.0152
X5.41Y-5.1152
X5.41Y-5.2152
X5.41Y-5.3152
X5.41Y-5.4152
X5.41Y-5.5152
X5.41Y-5.6152
X5.41Y-5.7152
X5.41Y-5.8152
X5.41Y-5.9152
T0
M30
