G04 #@! TF.GenerationSoftware,KiCad,Pcbnew,5.0.0*
G04 #@! TF.CreationDate,2018-10-25T12:48:18+02:00*
G04 #@! TF.ProjectId,WaterFanBoard,576174657246616E426F6172642E6B69,rev?*
G04 #@! TF.SameCoordinates,Original*
G04 #@! TF.FileFunction,Paste,Bot*
G04 #@! TF.FilePolarity,Positive*
%FSLAX46Y46*%
G04 Gerber Fmt 4.6, Leading zero omitted, Abs format (unit mm)*
G04 Created by KiCad (PCBNEW 5.0.0) date Thu Oct 25 12:48:18 2018*
%MOMM*%
%LPD*%
G01*
G04 APERTURE LIST*
%ADD10C,0.100000*%
%ADD11C,0.875000*%
G04 APERTURE END LIST*
D10*
G04 #@! TO.C,R7*
G36*
X107931691Y-121070053D02*
X107952926Y-121073203D01*
X107973750Y-121078419D01*
X107993962Y-121085651D01*
X108013368Y-121094830D01*
X108031781Y-121105866D01*
X108049024Y-121118654D01*
X108064930Y-121133070D01*
X108079346Y-121148976D01*
X108092134Y-121166219D01*
X108103170Y-121184632D01*
X108112349Y-121204038D01*
X108119581Y-121224250D01*
X108124797Y-121245074D01*
X108127947Y-121266309D01*
X108129000Y-121287750D01*
X108129000Y-121800250D01*
X108127947Y-121821691D01*
X108124797Y-121842926D01*
X108119581Y-121863750D01*
X108112349Y-121883962D01*
X108103170Y-121903368D01*
X108092134Y-121921781D01*
X108079346Y-121939024D01*
X108064930Y-121954930D01*
X108049024Y-121969346D01*
X108031781Y-121982134D01*
X108013368Y-121993170D01*
X107993962Y-122002349D01*
X107973750Y-122009581D01*
X107952926Y-122014797D01*
X107931691Y-122017947D01*
X107910250Y-122019000D01*
X107472750Y-122019000D01*
X107451309Y-122017947D01*
X107430074Y-122014797D01*
X107409250Y-122009581D01*
X107389038Y-122002349D01*
X107369632Y-121993170D01*
X107351219Y-121982134D01*
X107333976Y-121969346D01*
X107318070Y-121954930D01*
X107303654Y-121939024D01*
X107290866Y-121921781D01*
X107279830Y-121903368D01*
X107270651Y-121883962D01*
X107263419Y-121863750D01*
X107258203Y-121842926D01*
X107255053Y-121821691D01*
X107254000Y-121800250D01*
X107254000Y-121287750D01*
X107255053Y-121266309D01*
X107258203Y-121245074D01*
X107263419Y-121224250D01*
X107270651Y-121204038D01*
X107279830Y-121184632D01*
X107290866Y-121166219D01*
X107303654Y-121148976D01*
X107318070Y-121133070D01*
X107333976Y-121118654D01*
X107351219Y-121105866D01*
X107369632Y-121094830D01*
X107389038Y-121085651D01*
X107409250Y-121078419D01*
X107430074Y-121073203D01*
X107451309Y-121070053D01*
X107472750Y-121069000D01*
X107910250Y-121069000D01*
X107931691Y-121070053D01*
X107931691Y-121070053D01*
G37*
D11*
X107691500Y-121544000D03*
D10*
G36*
X106356691Y-121070053D02*
X106377926Y-121073203D01*
X106398750Y-121078419D01*
X106418962Y-121085651D01*
X106438368Y-121094830D01*
X106456781Y-121105866D01*
X106474024Y-121118654D01*
X106489930Y-121133070D01*
X106504346Y-121148976D01*
X106517134Y-121166219D01*
X106528170Y-121184632D01*
X106537349Y-121204038D01*
X106544581Y-121224250D01*
X106549797Y-121245074D01*
X106552947Y-121266309D01*
X106554000Y-121287750D01*
X106554000Y-121800250D01*
X106552947Y-121821691D01*
X106549797Y-121842926D01*
X106544581Y-121863750D01*
X106537349Y-121883962D01*
X106528170Y-121903368D01*
X106517134Y-121921781D01*
X106504346Y-121939024D01*
X106489930Y-121954930D01*
X106474024Y-121969346D01*
X106456781Y-121982134D01*
X106438368Y-121993170D01*
X106418962Y-122002349D01*
X106398750Y-122009581D01*
X106377926Y-122014797D01*
X106356691Y-122017947D01*
X106335250Y-122019000D01*
X105897750Y-122019000D01*
X105876309Y-122017947D01*
X105855074Y-122014797D01*
X105834250Y-122009581D01*
X105814038Y-122002349D01*
X105794632Y-121993170D01*
X105776219Y-121982134D01*
X105758976Y-121969346D01*
X105743070Y-121954930D01*
X105728654Y-121939024D01*
X105715866Y-121921781D01*
X105704830Y-121903368D01*
X105695651Y-121883962D01*
X105688419Y-121863750D01*
X105683203Y-121842926D01*
X105680053Y-121821691D01*
X105679000Y-121800250D01*
X105679000Y-121287750D01*
X105680053Y-121266309D01*
X105683203Y-121245074D01*
X105688419Y-121224250D01*
X105695651Y-121204038D01*
X105704830Y-121184632D01*
X105715866Y-121166219D01*
X105728654Y-121148976D01*
X105743070Y-121133070D01*
X105758976Y-121118654D01*
X105776219Y-121105866D01*
X105794632Y-121094830D01*
X105814038Y-121085651D01*
X105834250Y-121078419D01*
X105855074Y-121073203D01*
X105876309Y-121070053D01*
X105897750Y-121069000D01*
X106335250Y-121069000D01*
X106356691Y-121070053D01*
X106356691Y-121070053D01*
G37*
D11*
X106116500Y-121544000D03*
G04 #@! TD*
D10*
G04 #@! TO.C,R6*
G36*
X106661691Y-127928053D02*
X106682926Y-127931203D01*
X106703750Y-127936419D01*
X106723962Y-127943651D01*
X106743368Y-127952830D01*
X106761781Y-127963866D01*
X106779024Y-127976654D01*
X106794930Y-127991070D01*
X106809346Y-128006976D01*
X106822134Y-128024219D01*
X106833170Y-128042632D01*
X106842349Y-128062038D01*
X106849581Y-128082250D01*
X106854797Y-128103074D01*
X106857947Y-128124309D01*
X106859000Y-128145750D01*
X106859000Y-128658250D01*
X106857947Y-128679691D01*
X106854797Y-128700926D01*
X106849581Y-128721750D01*
X106842349Y-128741962D01*
X106833170Y-128761368D01*
X106822134Y-128779781D01*
X106809346Y-128797024D01*
X106794930Y-128812930D01*
X106779024Y-128827346D01*
X106761781Y-128840134D01*
X106743368Y-128851170D01*
X106723962Y-128860349D01*
X106703750Y-128867581D01*
X106682926Y-128872797D01*
X106661691Y-128875947D01*
X106640250Y-128877000D01*
X106202750Y-128877000D01*
X106181309Y-128875947D01*
X106160074Y-128872797D01*
X106139250Y-128867581D01*
X106119038Y-128860349D01*
X106099632Y-128851170D01*
X106081219Y-128840134D01*
X106063976Y-128827346D01*
X106048070Y-128812930D01*
X106033654Y-128797024D01*
X106020866Y-128779781D01*
X106009830Y-128761368D01*
X106000651Y-128741962D01*
X105993419Y-128721750D01*
X105988203Y-128700926D01*
X105985053Y-128679691D01*
X105984000Y-128658250D01*
X105984000Y-128145750D01*
X105985053Y-128124309D01*
X105988203Y-128103074D01*
X105993419Y-128082250D01*
X106000651Y-128062038D01*
X106009830Y-128042632D01*
X106020866Y-128024219D01*
X106033654Y-128006976D01*
X106048070Y-127991070D01*
X106063976Y-127976654D01*
X106081219Y-127963866D01*
X106099632Y-127952830D01*
X106119038Y-127943651D01*
X106139250Y-127936419D01*
X106160074Y-127931203D01*
X106181309Y-127928053D01*
X106202750Y-127927000D01*
X106640250Y-127927000D01*
X106661691Y-127928053D01*
X106661691Y-127928053D01*
G37*
D11*
X106421500Y-128402000D03*
D10*
G36*
X105086691Y-127928053D02*
X105107926Y-127931203D01*
X105128750Y-127936419D01*
X105148962Y-127943651D01*
X105168368Y-127952830D01*
X105186781Y-127963866D01*
X105204024Y-127976654D01*
X105219930Y-127991070D01*
X105234346Y-128006976D01*
X105247134Y-128024219D01*
X105258170Y-128042632D01*
X105267349Y-128062038D01*
X105274581Y-128082250D01*
X105279797Y-128103074D01*
X105282947Y-128124309D01*
X105284000Y-128145750D01*
X105284000Y-128658250D01*
X105282947Y-128679691D01*
X105279797Y-128700926D01*
X105274581Y-128721750D01*
X105267349Y-128741962D01*
X105258170Y-128761368D01*
X105247134Y-128779781D01*
X105234346Y-128797024D01*
X105219930Y-128812930D01*
X105204024Y-128827346D01*
X105186781Y-128840134D01*
X105168368Y-128851170D01*
X105148962Y-128860349D01*
X105128750Y-128867581D01*
X105107926Y-128872797D01*
X105086691Y-128875947D01*
X105065250Y-128877000D01*
X104627750Y-128877000D01*
X104606309Y-128875947D01*
X104585074Y-128872797D01*
X104564250Y-128867581D01*
X104544038Y-128860349D01*
X104524632Y-128851170D01*
X104506219Y-128840134D01*
X104488976Y-128827346D01*
X104473070Y-128812930D01*
X104458654Y-128797024D01*
X104445866Y-128779781D01*
X104434830Y-128761368D01*
X104425651Y-128741962D01*
X104418419Y-128721750D01*
X104413203Y-128700926D01*
X104410053Y-128679691D01*
X104409000Y-128658250D01*
X104409000Y-128145750D01*
X104410053Y-128124309D01*
X104413203Y-128103074D01*
X104418419Y-128082250D01*
X104425651Y-128062038D01*
X104434830Y-128042632D01*
X104445866Y-128024219D01*
X104458654Y-128006976D01*
X104473070Y-127991070D01*
X104488976Y-127976654D01*
X104506219Y-127963866D01*
X104524632Y-127952830D01*
X104544038Y-127943651D01*
X104564250Y-127936419D01*
X104585074Y-127931203D01*
X104606309Y-127928053D01*
X104627750Y-127927000D01*
X105065250Y-127927000D01*
X105086691Y-127928053D01*
X105086691Y-127928053D01*
G37*
D11*
X104846500Y-128402000D03*
G04 #@! TD*
D10*
G04 #@! TO.C,R5*
G36*
X105149691Y-124943053D02*
X105170926Y-124946203D01*
X105191750Y-124951419D01*
X105211962Y-124958651D01*
X105231368Y-124967830D01*
X105249781Y-124978866D01*
X105267024Y-124991654D01*
X105282930Y-125006070D01*
X105297346Y-125021976D01*
X105310134Y-125039219D01*
X105321170Y-125057632D01*
X105330349Y-125077038D01*
X105337581Y-125097250D01*
X105342797Y-125118074D01*
X105345947Y-125139309D01*
X105347000Y-125160750D01*
X105347000Y-125598250D01*
X105345947Y-125619691D01*
X105342797Y-125640926D01*
X105337581Y-125661750D01*
X105330349Y-125681962D01*
X105321170Y-125701368D01*
X105310134Y-125719781D01*
X105297346Y-125737024D01*
X105282930Y-125752930D01*
X105267024Y-125767346D01*
X105249781Y-125780134D01*
X105231368Y-125791170D01*
X105211962Y-125800349D01*
X105191750Y-125807581D01*
X105170926Y-125812797D01*
X105149691Y-125815947D01*
X105128250Y-125817000D01*
X104615750Y-125817000D01*
X104594309Y-125815947D01*
X104573074Y-125812797D01*
X104552250Y-125807581D01*
X104532038Y-125800349D01*
X104512632Y-125791170D01*
X104494219Y-125780134D01*
X104476976Y-125767346D01*
X104461070Y-125752930D01*
X104446654Y-125737024D01*
X104433866Y-125719781D01*
X104422830Y-125701368D01*
X104413651Y-125681962D01*
X104406419Y-125661750D01*
X104401203Y-125640926D01*
X104398053Y-125619691D01*
X104397000Y-125598250D01*
X104397000Y-125160750D01*
X104398053Y-125139309D01*
X104401203Y-125118074D01*
X104406419Y-125097250D01*
X104413651Y-125077038D01*
X104422830Y-125057632D01*
X104433866Y-125039219D01*
X104446654Y-125021976D01*
X104461070Y-125006070D01*
X104476976Y-124991654D01*
X104494219Y-124978866D01*
X104512632Y-124967830D01*
X104532038Y-124958651D01*
X104552250Y-124951419D01*
X104573074Y-124946203D01*
X104594309Y-124943053D01*
X104615750Y-124942000D01*
X105128250Y-124942000D01*
X105149691Y-124943053D01*
X105149691Y-124943053D01*
G37*
D11*
X104872000Y-125379500D03*
D10*
G36*
X105149691Y-123368053D02*
X105170926Y-123371203D01*
X105191750Y-123376419D01*
X105211962Y-123383651D01*
X105231368Y-123392830D01*
X105249781Y-123403866D01*
X105267024Y-123416654D01*
X105282930Y-123431070D01*
X105297346Y-123446976D01*
X105310134Y-123464219D01*
X105321170Y-123482632D01*
X105330349Y-123502038D01*
X105337581Y-123522250D01*
X105342797Y-123543074D01*
X105345947Y-123564309D01*
X105347000Y-123585750D01*
X105347000Y-124023250D01*
X105345947Y-124044691D01*
X105342797Y-124065926D01*
X105337581Y-124086750D01*
X105330349Y-124106962D01*
X105321170Y-124126368D01*
X105310134Y-124144781D01*
X105297346Y-124162024D01*
X105282930Y-124177930D01*
X105267024Y-124192346D01*
X105249781Y-124205134D01*
X105231368Y-124216170D01*
X105211962Y-124225349D01*
X105191750Y-124232581D01*
X105170926Y-124237797D01*
X105149691Y-124240947D01*
X105128250Y-124242000D01*
X104615750Y-124242000D01*
X104594309Y-124240947D01*
X104573074Y-124237797D01*
X104552250Y-124232581D01*
X104532038Y-124225349D01*
X104512632Y-124216170D01*
X104494219Y-124205134D01*
X104476976Y-124192346D01*
X104461070Y-124177930D01*
X104446654Y-124162024D01*
X104433866Y-124144781D01*
X104422830Y-124126368D01*
X104413651Y-124106962D01*
X104406419Y-124086750D01*
X104401203Y-124065926D01*
X104398053Y-124044691D01*
X104397000Y-124023250D01*
X104397000Y-123585750D01*
X104398053Y-123564309D01*
X104401203Y-123543074D01*
X104406419Y-123522250D01*
X104413651Y-123502038D01*
X104422830Y-123482632D01*
X104433866Y-123464219D01*
X104446654Y-123446976D01*
X104461070Y-123431070D01*
X104476976Y-123416654D01*
X104494219Y-123403866D01*
X104512632Y-123392830D01*
X104532038Y-123383651D01*
X104552250Y-123376419D01*
X104573074Y-123371203D01*
X104594309Y-123368053D01*
X104615750Y-123367000D01*
X105128250Y-123367000D01*
X105149691Y-123368053D01*
X105149691Y-123368053D01*
G37*
D11*
X104872000Y-123804500D03*
G04 #@! TD*
D10*
G04 #@! TO.C,R7*
G36*
X127831691Y-121070053D02*
X127852926Y-121073203D01*
X127873750Y-121078419D01*
X127893962Y-121085651D01*
X127913368Y-121094830D01*
X127931781Y-121105866D01*
X127949024Y-121118654D01*
X127964930Y-121133070D01*
X127979346Y-121148976D01*
X127992134Y-121166219D01*
X128003170Y-121184632D01*
X128012349Y-121204038D01*
X128019581Y-121224250D01*
X128024797Y-121245074D01*
X128027947Y-121266309D01*
X128029000Y-121287750D01*
X128029000Y-121800250D01*
X128027947Y-121821691D01*
X128024797Y-121842926D01*
X128019581Y-121863750D01*
X128012349Y-121883962D01*
X128003170Y-121903368D01*
X127992134Y-121921781D01*
X127979346Y-121939024D01*
X127964930Y-121954930D01*
X127949024Y-121969346D01*
X127931781Y-121982134D01*
X127913368Y-121993170D01*
X127893962Y-122002349D01*
X127873750Y-122009581D01*
X127852926Y-122014797D01*
X127831691Y-122017947D01*
X127810250Y-122019000D01*
X127372750Y-122019000D01*
X127351309Y-122017947D01*
X127330074Y-122014797D01*
X127309250Y-122009581D01*
X127289038Y-122002349D01*
X127269632Y-121993170D01*
X127251219Y-121982134D01*
X127233976Y-121969346D01*
X127218070Y-121954930D01*
X127203654Y-121939024D01*
X127190866Y-121921781D01*
X127179830Y-121903368D01*
X127170651Y-121883962D01*
X127163419Y-121863750D01*
X127158203Y-121842926D01*
X127155053Y-121821691D01*
X127154000Y-121800250D01*
X127154000Y-121287750D01*
X127155053Y-121266309D01*
X127158203Y-121245074D01*
X127163419Y-121224250D01*
X127170651Y-121204038D01*
X127179830Y-121184632D01*
X127190866Y-121166219D01*
X127203654Y-121148976D01*
X127218070Y-121133070D01*
X127233976Y-121118654D01*
X127251219Y-121105866D01*
X127269632Y-121094830D01*
X127289038Y-121085651D01*
X127309250Y-121078419D01*
X127330074Y-121073203D01*
X127351309Y-121070053D01*
X127372750Y-121069000D01*
X127810250Y-121069000D01*
X127831691Y-121070053D01*
X127831691Y-121070053D01*
G37*
D11*
X127591500Y-121544000D03*
D10*
G36*
X126256691Y-121070053D02*
X126277926Y-121073203D01*
X126298750Y-121078419D01*
X126318962Y-121085651D01*
X126338368Y-121094830D01*
X126356781Y-121105866D01*
X126374024Y-121118654D01*
X126389930Y-121133070D01*
X126404346Y-121148976D01*
X126417134Y-121166219D01*
X126428170Y-121184632D01*
X126437349Y-121204038D01*
X126444581Y-121224250D01*
X126449797Y-121245074D01*
X126452947Y-121266309D01*
X126454000Y-121287750D01*
X126454000Y-121800250D01*
X126452947Y-121821691D01*
X126449797Y-121842926D01*
X126444581Y-121863750D01*
X126437349Y-121883962D01*
X126428170Y-121903368D01*
X126417134Y-121921781D01*
X126404346Y-121939024D01*
X126389930Y-121954930D01*
X126374024Y-121969346D01*
X126356781Y-121982134D01*
X126338368Y-121993170D01*
X126318962Y-122002349D01*
X126298750Y-122009581D01*
X126277926Y-122014797D01*
X126256691Y-122017947D01*
X126235250Y-122019000D01*
X125797750Y-122019000D01*
X125776309Y-122017947D01*
X125755074Y-122014797D01*
X125734250Y-122009581D01*
X125714038Y-122002349D01*
X125694632Y-121993170D01*
X125676219Y-121982134D01*
X125658976Y-121969346D01*
X125643070Y-121954930D01*
X125628654Y-121939024D01*
X125615866Y-121921781D01*
X125604830Y-121903368D01*
X125595651Y-121883962D01*
X125588419Y-121863750D01*
X125583203Y-121842926D01*
X125580053Y-121821691D01*
X125579000Y-121800250D01*
X125579000Y-121287750D01*
X125580053Y-121266309D01*
X125583203Y-121245074D01*
X125588419Y-121224250D01*
X125595651Y-121204038D01*
X125604830Y-121184632D01*
X125615866Y-121166219D01*
X125628654Y-121148976D01*
X125643070Y-121133070D01*
X125658976Y-121118654D01*
X125676219Y-121105866D01*
X125694632Y-121094830D01*
X125714038Y-121085651D01*
X125734250Y-121078419D01*
X125755074Y-121073203D01*
X125776309Y-121070053D01*
X125797750Y-121069000D01*
X126235250Y-121069000D01*
X126256691Y-121070053D01*
X126256691Y-121070053D01*
G37*
D11*
X126016500Y-121544000D03*
G04 #@! TD*
D10*
G04 #@! TO.C,R6*
G36*
X126561691Y-127928053D02*
X126582926Y-127931203D01*
X126603750Y-127936419D01*
X126623962Y-127943651D01*
X126643368Y-127952830D01*
X126661781Y-127963866D01*
X126679024Y-127976654D01*
X126694930Y-127991070D01*
X126709346Y-128006976D01*
X126722134Y-128024219D01*
X126733170Y-128042632D01*
X126742349Y-128062038D01*
X126749581Y-128082250D01*
X126754797Y-128103074D01*
X126757947Y-128124309D01*
X126759000Y-128145750D01*
X126759000Y-128658250D01*
X126757947Y-128679691D01*
X126754797Y-128700926D01*
X126749581Y-128721750D01*
X126742349Y-128741962D01*
X126733170Y-128761368D01*
X126722134Y-128779781D01*
X126709346Y-128797024D01*
X126694930Y-128812930D01*
X126679024Y-128827346D01*
X126661781Y-128840134D01*
X126643368Y-128851170D01*
X126623962Y-128860349D01*
X126603750Y-128867581D01*
X126582926Y-128872797D01*
X126561691Y-128875947D01*
X126540250Y-128877000D01*
X126102750Y-128877000D01*
X126081309Y-128875947D01*
X126060074Y-128872797D01*
X126039250Y-128867581D01*
X126019038Y-128860349D01*
X125999632Y-128851170D01*
X125981219Y-128840134D01*
X125963976Y-128827346D01*
X125948070Y-128812930D01*
X125933654Y-128797024D01*
X125920866Y-128779781D01*
X125909830Y-128761368D01*
X125900651Y-128741962D01*
X125893419Y-128721750D01*
X125888203Y-128700926D01*
X125885053Y-128679691D01*
X125884000Y-128658250D01*
X125884000Y-128145750D01*
X125885053Y-128124309D01*
X125888203Y-128103074D01*
X125893419Y-128082250D01*
X125900651Y-128062038D01*
X125909830Y-128042632D01*
X125920866Y-128024219D01*
X125933654Y-128006976D01*
X125948070Y-127991070D01*
X125963976Y-127976654D01*
X125981219Y-127963866D01*
X125999632Y-127952830D01*
X126019038Y-127943651D01*
X126039250Y-127936419D01*
X126060074Y-127931203D01*
X126081309Y-127928053D01*
X126102750Y-127927000D01*
X126540250Y-127927000D01*
X126561691Y-127928053D01*
X126561691Y-127928053D01*
G37*
D11*
X126321500Y-128402000D03*
D10*
G36*
X124986691Y-127928053D02*
X125007926Y-127931203D01*
X125028750Y-127936419D01*
X125048962Y-127943651D01*
X125068368Y-127952830D01*
X125086781Y-127963866D01*
X125104024Y-127976654D01*
X125119930Y-127991070D01*
X125134346Y-128006976D01*
X125147134Y-128024219D01*
X125158170Y-128042632D01*
X125167349Y-128062038D01*
X125174581Y-128082250D01*
X125179797Y-128103074D01*
X125182947Y-128124309D01*
X125184000Y-128145750D01*
X125184000Y-128658250D01*
X125182947Y-128679691D01*
X125179797Y-128700926D01*
X125174581Y-128721750D01*
X125167349Y-128741962D01*
X125158170Y-128761368D01*
X125147134Y-128779781D01*
X125134346Y-128797024D01*
X125119930Y-128812930D01*
X125104024Y-128827346D01*
X125086781Y-128840134D01*
X125068368Y-128851170D01*
X125048962Y-128860349D01*
X125028750Y-128867581D01*
X125007926Y-128872797D01*
X124986691Y-128875947D01*
X124965250Y-128877000D01*
X124527750Y-128877000D01*
X124506309Y-128875947D01*
X124485074Y-128872797D01*
X124464250Y-128867581D01*
X124444038Y-128860349D01*
X124424632Y-128851170D01*
X124406219Y-128840134D01*
X124388976Y-128827346D01*
X124373070Y-128812930D01*
X124358654Y-128797024D01*
X124345866Y-128779781D01*
X124334830Y-128761368D01*
X124325651Y-128741962D01*
X124318419Y-128721750D01*
X124313203Y-128700926D01*
X124310053Y-128679691D01*
X124309000Y-128658250D01*
X124309000Y-128145750D01*
X124310053Y-128124309D01*
X124313203Y-128103074D01*
X124318419Y-128082250D01*
X124325651Y-128062038D01*
X124334830Y-128042632D01*
X124345866Y-128024219D01*
X124358654Y-128006976D01*
X124373070Y-127991070D01*
X124388976Y-127976654D01*
X124406219Y-127963866D01*
X124424632Y-127952830D01*
X124444038Y-127943651D01*
X124464250Y-127936419D01*
X124485074Y-127931203D01*
X124506309Y-127928053D01*
X124527750Y-127927000D01*
X124965250Y-127927000D01*
X124986691Y-127928053D01*
X124986691Y-127928053D01*
G37*
D11*
X124746500Y-128402000D03*
G04 #@! TD*
D10*
G04 #@! TO.C,R5*
G36*
X125049691Y-124943053D02*
X125070926Y-124946203D01*
X125091750Y-124951419D01*
X125111962Y-124958651D01*
X125131368Y-124967830D01*
X125149781Y-124978866D01*
X125167024Y-124991654D01*
X125182930Y-125006070D01*
X125197346Y-125021976D01*
X125210134Y-125039219D01*
X125221170Y-125057632D01*
X125230349Y-125077038D01*
X125237581Y-125097250D01*
X125242797Y-125118074D01*
X125245947Y-125139309D01*
X125247000Y-125160750D01*
X125247000Y-125598250D01*
X125245947Y-125619691D01*
X125242797Y-125640926D01*
X125237581Y-125661750D01*
X125230349Y-125681962D01*
X125221170Y-125701368D01*
X125210134Y-125719781D01*
X125197346Y-125737024D01*
X125182930Y-125752930D01*
X125167024Y-125767346D01*
X125149781Y-125780134D01*
X125131368Y-125791170D01*
X125111962Y-125800349D01*
X125091750Y-125807581D01*
X125070926Y-125812797D01*
X125049691Y-125815947D01*
X125028250Y-125817000D01*
X124515750Y-125817000D01*
X124494309Y-125815947D01*
X124473074Y-125812797D01*
X124452250Y-125807581D01*
X124432038Y-125800349D01*
X124412632Y-125791170D01*
X124394219Y-125780134D01*
X124376976Y-125767346D01*
X124361070Y-125752930D01*
X124346654Y-125737024D01*
X124333866Y-125719781D01*
X124322830Y-125701368D01*
X124313651Y-125681962D01*
X124306419Y-125661750D01*
X124301203Y-125640926D01*
X124298053Y-125619691D01*
X124297000Y-125598250D01*
X124297000Y-125160750D01*
X124298053Y-125139309D01*
X124301203Y-125118074D01*
X124306419Y-125097250D01*
X124313651Y-125077038D01*
X124322830Y-125057632D01*
X124333866Y-125039219D01*
X124346654Y-125021976D01*
X124361070Y-125006070D01*
X124376976Y-124991654D01*
X124394219Y-124978866D01*
X124412632Y-124967830D01*
X124432038Y-124958651D01*
X124452250Y-124951419D01*
X124473074Y-124946203D01*
X124494309Y-124943053D01*
X124515750Y-124942000D01*
X125028250Y-124942000D01*
X125049691Y-124943053D01*
X125049691Y-124943053D01*
G37*
D11*
X124772000Y-125379500D03*
D10*
G36*
X125049691Y-123368053D02*
X125070926Y-123371203D01*
X125091750Y-123376419D01*
X125111962Y-123383651D01*
X125131368Y-123392830D01*
X125149781Y-123403866D01*
X125167024Y-123416654D01*
X125182930Y-123431070D01*
X125197346Y-123446976D01*
X125210134Y-123464219D01*
X125221170Y-123482632D01*
X125230349Y-123502038D01*
X125237581Y-123522250D01*
X125242797Y-123543074D01*
X125245947Y-123564309D01*
X125247000Y-123585750D01*
X125247000Y-124023250D01*
X125245947Y-124044691D01*
X125242797Y-124065926D01*
X125237581Y-124086750D01*
X125230349Y-124106962D01*
X125221170Y-124126368D01*
X125210134Y-124144781D01*
X125197346Y-124162024D01*
X125182930Y-124177930D01*
X125167024Y-124192346D01*
X125149781Y-124205134D01*
X125131368Y-124216170D01*
X125111962Y-124225349D01*
X125091750Y-124232581D01*
X125070926Y-124237797D01*
X125049691Y-124240947D01*
X125028250Y-124242000D01*
X124515750Y-124242000D01*
X124494309Y-124240947D01*
X124473074Y-124237797D01*
X124452250Y-124232581D01*
X124432038Y-124225349D01*
X124412632Y-124216170D01*
X124394219Y-124205134D01*
X124376976Y-124192346D01*
X124361070Y-124177930D01*
X124346654Y-124162024D01*
X124333866Y-124144781D01*
X124322830Y-124126368D01*
X124313651Y-124106962D01*
X124306419Y-124086750D01*
X124301203Y-124065926D01*
X124298053Y-124044691D01*
X124297000Y-124023250D01*
X124297000Y-123585750D01*
X124298053Y-123564309D01*
X124301203Y-123543074D01*
X124306419Y-123522250D01*
X124313651Y-123502038D01*
X124322830Y-123482632D01*
X124333866Y-123464219D01*
X124346654Y-123446976D01*
X124361070Y-123431070D01*
X124376976Y-123416654D01*
X124394219Y-123403866D01*
X124412632Y-123392830D01*
X124432038Y-123383651D01*
X124452250Y-123376419D01*
X124473074Y-123371203D01*
X124494309Y-123368053D01*
X124515750Y-123367000D01*
X125028250Y-123367000D01*
X125049691Y-123368053D01*
X125049691Y-123368053D01*
G37*
D11*
X124772000Y-123804500D03*
G04 #@! TD*
D10*
G04 #@! TO.C,R7*
G36*
X147731691Y-121070053D02*
X147752926Y-121073203D01*
X147773750Y-121078419D01*
X147793962Y-121085651D01*
X147813368Y-121094830D01*
X147831781Y-121105866D01*
X147849024Y-121118654D01*
X147864930Y-121133070D01*
X147879346Y-121148976D01*
X147892134Y-121166219D01*
X147903170Y-121184632D01*
X147912349Y-121204038D01*
X147919581Y-121224250D01*
X147924797Y-121245074D01*
X147927947Y-121266309D01*
X147929000Y-121287750D01*
X147929000Y-121800250D01*
X147927947Y-121821691D01*
X147924797Y-121842926D01*
X147919581Y-121863750D01*
X147912349Y-121883962D01*
X147903170Y-121903368D01*
X147892134Y-121921781D01*
X147879346Y-121939024D01*
X147864930Y-121954930D01*
X147849024Y-121969346D01*
X147831781Y-121982134D01*
X147813368Y-121993170D01*
X147793962Y-122002349D01*
X147773750Y-122009581D01*
X147752926Y-122014797D01*
X147731691Y-122017947D01*
X147710250Y-122019000D01*
X147272750Y-122019000D01*
X147251309Y-122017947D01*
X147230074Y-122014797D01*
X147209250Y-122009581D01*
X147189038Y-122002349D01*
X147169632Y-121993170D01*
X147151219Y-121982134D01*
X147133976Y-121969346D01*
X147118070Y-121954930D01*
X147103654Y-121939024D01*
X147090866Y-121921781D01*
X147079830Y-121903368D01*
X147070651Y-121883962D01*
X147063419Y-121863750D01*
X147058203Y-121842926D01*
X147055053Y-121821691D01*
X147054000Y-121800250D01*
X147054000Y-121287750D01*
X147055053Y-121266309D01*
X147058203Y-121245074D01*
X147063419Y-121224250D01*
X147070651Y-121204038D01*
X147079830Y-121184632D01*
X147090866Y-121166219D01*
X147103654Y-121148976D01*
X147118070Y-121133070D01*
X147133976Y-121118654D01*
X147151219Y-121105866D01*
X147169632Y-121094830D01*
X147189038Y-121085651D01*
X147209250Y-121078419D01*
X147230074Y-121073203D01*
X147251309Y-121070053D01*
X147272750Y-121069000D01*
X147710250Y-121069000D01*
X147731691Y-121070053D01*
X147731691Y-121070053D01*
G37*
D11*
X147491500Y-121544000D03*
D10*
G36*
X146156691Y-121070053D02*
X146177926Y-121073203D01*
X146198750Y-121078419D01*
X146218962Y-121085651D01*
X146238368Y-121094830D01*
X146256781Y-121105866D01*
X146274024Y-121118654D01*
X146289930Y-121133070D01*
X146304346Y-121148976D01*
X146317134Y-121166219D01*
X146328170Y-121184632D01*
X146337349Y-121204038D01*
X146344581Y-121224250D01*
X146349797Y-121245074D01*
X146352947Y-121266309D01*
X146354000Y-121287750D01*
X146354000Y-121800250D01*
X146352947Y-121821691D01*
X146349797Y-121842926D01*
X146344581Y-121863750D01*
X146337349Y-121883962D01*
X146328170Y-121903368D01*
X146317134Y-121921781D01*
X146304346Y-121939024D01*
X146289930Y-121954930D01*
X146274024Y-121969346D01*
X146256781Y-121982134D01*
X146238368Y-121993170D01*
X146218962Y-122002349D01*
X146198750Y-122009581D01*
X146177926Y-122014797D01*
X146156691Y-122017947D01*
X146135250Y-122019000D01*
X145697750Y-122019000D01*
X145676309Y-122017947D01*
X145655074Y-122014797D01*
X145634250Y-122009581D01*
X145614038Y-122002349D01*
X145594632Y-121993170D01*
X145576219Y-121982134D01*
X145558976Y-121969346D01*
X145543070Y-121954930D01*
X145528654Y-121939024D01*
X145515866Y-121921781D01*
X145504830Y-121903368D01*
X145495651Y-121883962D01*
X145488419Y-121863750D01*
X145483203Y-121842926D01*
X145480053Y-121821691D01*
X145479000Y-121800250D01*
X145479000Y-121287750D01*
X145480053Y-121266309D01*
X145483203Y-121245074D01*
X145488419Y-121224250D01*
X145495651Y-121204038D01*
X145504830Y-121184632D01*
X145515866Y-121166219D01*
X145528654Y-121148976D01*
X145543070Y-121133070D01*
X145558976Y-121118654D01*
X145576219Y-121105866D01*
X145594632Y-121094830D01*
X145614038Y-121085651D01*
X145634250Y-121078419D01*
X145655074Y-121073203D01*
X145676309Y-121070053D01*
X145697750Y-121069000D01*
X146135250Y-121069000D01*
X146156691Y-121070053D01*
X146156691Y-121070053D01*
G37*
D11*
X145916500Y-121544000D03*
G04 #@! TD*
D10*
G04 #@! TO.C,R6*
G36*
X146461691Y-127928053D02*
X146482926Y-127931203D01*
X146503750Y-127936419D01*
X146523962Y-127943651D01*
X146543368Y-127952830D01*
X146561781Y-127963866D01*
X146579024Y-127976654D01*
X146594930Y-127991070D01*
X146609346Y-128006976D01*
X146622134Y-128024219D01*
X146633170Y-128042632D01*
X146642349Y-128062038D01*
X146649581Y-128082250D01*
X146654797Y-128103074D01*
X146657947Y-128124309D01*
X146659000Y-128145750D01*
X146659000Y-128658250D01*
X146657947Y-128679691D01*
X146654797Y-128700926D01*
X146649581Y-128721750D01*
X146642349Y-128741962D01*
X146633170Y-128761368D01*
X146622134Y-128779781D01*
X146609346Y-128797024D01*
X146594930Y-128812930D01*
X146579024Y-128827346D01*
X146561781Y-128840134D01*
X146543368Y-128851170D01*
X146523962Y-128860349D01*
X146503750Y-128867581D01*
X146482926Y-128872797D01*
X146461691Y-128875947D01*
X146440250Y-128877000D01*
X146002750Y-128877000D01*
X145981309Y-128875947D01*
X145960074Y-128872797D01*
X145939250Y-128867581D01*
X145919038Y-128860349D01*
X145899632Y-128851170D01*
X145881219Y-128840134D01*
X145863976Y-128827346D01*
X145848070Y-128812930D01*
X145833654Y-128797024D01*
X145820866Y-128779781D01*
X145809830Y-128761368D01*
X145800651Y-128741962D01*
X145793419Y-128721750D01*
X145788203Y-128700926D01*
X145785053Y-128679691D01*
X145784000Y-128658250D01*
X145784000Y-128145750D01*
X145785053Y-128124309D01*
X145788203Y-128103074D01*
X145793419Y-128082250D01*
X145800651Y-128062038D01*
X145809830Y-128042632D01*
X145820866Y-128024219D01*
X145833654Y-128006976D01*
X145848070Y-127991070D01*
X145863976Y-127976654D01*
X145881219Y-127963866D01*
X145899632Y-127952830D01*
X145919038Y-127943651D01*
X145939250Y-127936419D01*
X145960074Y-127931203D01*
X145981309Y-127928053D01*
X146002750Y-127927000D01*
X146440250Y-127927000D01*
X146461691Y-127928053D01*
X146461691Y-127928053D01*
G37*
D11*
X146221500Y-128402000D03*
D10*
G36*
X144886691Y-127928053D02*
X144907926Y-127931203D01*
X144928750Y-127936419D01*
X144948962Y-127943651D01*
X144968368Y-127952830D01*
X144986781Y-127963866D01*
X145004024Y-127976654D01*
X145019930Y-127991070D01*
X145034346Y-128006976D01*
X145047134Y-128024219D01*
X145058170Y-128042632D01*
X145067349Y-128062038D01*
X145074581Y-128082250D01*
X145079797Y-128103074D01*
X145082947Y-128124309D01*
X145084000Y-128145750D01*
X145084000Y-128658250D01*
X145082947Y-128679691D01*
X145079797Y-128700926D01*
X145074581Y-128721750D01*
X145067349Y-128741962D01*
X145058170Y-128761368D01*
X145047134Y-128779781D01*
X145034346Y-128797024D01*
X145019930Y-128812930D01*
X145004024Y-128827346D01*
X144986781Y-128840134D01*
X144968368Y-128851170D01*
X144948962Y-128860349D01*
X144928750Y-128867581D01*
X144907926Y-128872797D01*
X144886691Y-128875947D01*
X144865250Y-128877000D01*
X144427750Y-128877000D01*
X144406309Y-128875947D01*
X144385074Y-128872797D01*
X144364250Y-128867581D01*
X144344038Y-128860349D01*
X144324632Y-128851170D01*
X144306219Y-128840134D01*
X144288976Y-128827346D01*
X144273070Y-128812930D01*
X144258654Y-128797024D01*
X144245866Y-128779781D01*
X144234830Y-128761368D01*
X144225651Y-128741962D01*
X144218419Y-128721750D01*
X144213203Y-128700926D01*
X144210053Y-128679691D01*
X144209000Y-128658250D01*
X144209000Y-128145750D01*
X144210053Y-128124309D01*
X144213203Y-128103074D01*
X144218419Y-128082250D01*
X144225651Y-128062038D01*
X144234830Y-128042632D01*
X144245866Y-128024219D01*
X144258654Y-128006976D01*
X144273070Y-127991070D01*
X144288976Y-127976654D01*
X144306219Y-127963866D01*
X144324632Y-127952830D01*
X144344038Y-127943651D01*
X144364250Y-127936419D01*
X144385074Y-127931203D01*
X144406309Y-127928053D01*
X144427750Y-127927000D01*
X144865250Y-127927000D01*
X144886691Y-127928053D01*
X144886691Y-127928053D01*
G37*
D11*
X144646500Y-128402000D03*
G04 #@! TD*
D10*
G04 #@! TO.C,R5*
G36*
X144949691Y-124943053D02*
X144970926Y-124946203D01*
X144991750Y-124951419D01*
X145011962Y-124958651D01*
X145031368Y-124967830D01*
X145049781Y-124978866D01*
X145067024Y-124991654D01*
X145082930Y-125006070D01*
X145097346Y-125021976D01*
X145110134Y-125039219D01*
X145121170Y-125057632D01*
X145130349Y-125077038D01*
X145137581Y-125097250D01*
X145142797Y-125118074D01*
X145145947Y-125139309D01*
X145147000Y-125160750D01*
X145147000Y-125598250D01*
X145145947Y-125619691D01*
X145142797Y-125640926D01*
X145137581Y-125661750D01*
X145130349Y-125681962D01*
X145121170Y-125701368D01*
X145110134Y-125719781D01*
X145097346Y-125737024D01*
X145082930Y-125752930D01*
X145067024Y-125767346D01*
X145049781Y-125780134D01*
X145031368Y-125791170D01*
X145011962Y-125800349D01*
X144991750Y-125807581D01*
X144970926Y-125812797D01*
X144949691Y-125815947D01*
X144928250Y-125817000D01*
X144415750Y-125817000D01*
X144394309Y-125815947D01*
X144373074Y-125812797D01*
X144352250Y-125807581D01*
X144332038Y-125800349D01*
X144312632Y-125791170D01*
X144294219Y-125780134D01*
X144276976Y-125767346D01*
X144261070Y-125752930D01*
X144246654Y-125737024D01*
X144233866Y-125719781D01*
X144222830Y-125701368D01*
X144213651Y-125681962D01*
X144206419Y-125661750D01*
X144201203Y-125640926D01*
X144198053Y-125619691D01*
X144197000Y-125598250D01*
X144197000Y-125160750D01*
X144198053Y-125139309D01*
X144201203Y-125118074D01*
X144206419Y-125097250D01*
X144213651Y-125077038D01*
X144222830Y-125057632D01*
X144233866Y-125039219D01*
X144246654Y-125021976D01*
X144261070Y-125006070D01*
X144276976Y-124991654D01*
X144294219Y-124978866D01*
X144312632Y-124967830D01*
X144332038Y-124958651D01*
X144352250Y-124951419D01*
X144373074Y-124946203D01*
X144394309Y-124943053D01*
X144415750Y-124942000D01*
X144928250Y-124942000D01*
X144949691Y-124943053D01*
X144949691Y-124943053D01*
G37*
D11*
X144672000Y-125379500D03*
D10*
G36*
X144949691Y-123368053D02*
X144970926Y-123371203D01*
X144991750Y-123376419D01*
X145011962Y-123383651D01*
X145031368Y-123392830D01*
X145049781Y-123403866D01*
X145067024Y-123416654D01*
X145082930Y-123431070D01*
X145097346Y-123446976D01*
X145110134Y-123464219D01*
X145121170Y-123482632D01*
X145130349Y-123502038D01*
X145137581Y-123522250D01*
X145142797Y-123543074D01*
X145145947Y-123564309D01*
X145147000Y-123585750D01*
X145147000Y-124023250D01*
X145145947Y-124044691D01*
X145142797Y-124065926D01*
X145137581Y-124086750D01*
X145130349Y-124106962D01*
X145121170Y-124126368D01*
X145110134Y-124144781D01*
X145097346Y-124162024D01*
X145082930Y-124177930D01*
X145067024Y-124192346D01*
X145049781Y-124205134D01*
X145031368Y-124216170D01*
X145011962Y-124225349D01*
X144991750Y-124232581D01*
X144970926Y-124237797D01*
X144949691Y-124240947D01*
X144928250Y-124242000D01*
X144415750Y-124242000D01*
X144394309Y-124240947D01*
X144373074Y-124237797D01*
X144352250Y-124232581D01*
X144332038Y-124225349D01*
X144312632Y-124216170D01*
X144294219Y-124205134D01*
X144276976Y-124192346D01*
X144261070Y-124177930D01*
X144246654Y-124162024D01*
X144233866Y-124144781D01*
X144222830Y-124126368D01*
X144213651Y-124106962D01*
X144206419Y-124086750D01*
X144201203Y-124065926D01*
X144198053Y-124044691D01*
X144197000Y-124023250D01*
X144197000Y-123585750D01*
X144198053Y-123564309D01*
X144201203Y-123543074D01*
X144206419Y-123522250D01*
X144213651Y-123502038D01*
X144222830Y-123482632D01*
X144233866Y-123464219D01*
X144246654Y-123446976D01*
X144261070Y-123431070D01*
X144276976Y-123416654D01*
X144294219Y-123403866D01*
X144312632Y-123392830D01*
X144332038Y-123383651D01*
X144352250Y-123376419D01*
X144373074Y-123371203D01*
X144394309Y-123368053D01*
X144415750Y-123367000D01*
X144928250Y-123367000D01*
X144949691Y-123368053D01*
X144949691Y-123368053D01*
G37*
D11*
X144672000Y-123804500D03*
G04 #@! TD*
D10*
G04 #@! TO.C,R7*
G36*
X167731691Y-121070053D02*
X167752926Y-121073203D01*
X167773750Y-121078419D01*
X167793962Y-121085651D01*
X167813368Y-121094830D01*
X167831781Y-121105866D01*
X167849024Y-121118654D01*
X167864930Y-121133070D01*
X167879346Y-121148976D01*
X167892134Y-121166219D01*
X167903170Y-121184632D01*
X167912349Y-121204038D01*
X167919581Y-121224250D01*
X167924797Y-121245074D01*
X167927947Y-121266309D01*
X167929000Y-121287750D01*
X167929000Y-121800250D01*
X167927947Y-121821691D01*
X167924797Y-121842926D01*
X167919581Y-121863750D01*
X167912349Y-121883962D01*
X167903170Y-121903368D01*
X167892134Y-121921781D01*
X167879346Y-121939024D01*
X167864930Y-121954930D01*
X167849024Y-121969346D01*
X167831781Y-121982134D01*
X167813368Y-121993170D01*
X167793962Y-122002349D01*
X167773750Y-122009581D01*
X167752926Y-122014797D01*
X167731691Y-122017947D01*
X167710250Y-122019000D01*
X167272750Y-122019000D01*
X167251309Y-122017947D01*
X167230074Y-122014797D01*
X167209250Y-122009581D01*
X167189038Y-122002349D01*
X167169632Y-121993170D01*
X167151219Y-121982134D01*
X167133976Y-121969346D01*
X167118070Y-121954930D01*
X167103654Y-121939024D01*
X167090866Y-121921781D01*
X167079830Y-121903368D01*
X167070651Y-121883962D01*
X167063419Y-121863750D01*
X167058203Y-121842926D01*
X167055053Y-121821691D01*
X167054000Y-121800250D01*
X167054000Y-121287750D01*
X167055053Y-121266309D01*
X167058203Y-121245074D01*
X167063419Y-121224250D01*
X167070651Y-121204038D01*
X167079830Y-121184632D01*
X167090866Y-121166219D01*
X167103654Y-121148976D01*
X167118070Y-121133070D01*
X167133976Y-121118654D01*
X167151219Y-121105866D01*
X167169632Y-121094830D01*
X167189038Y-121085651D01*
X167209250Y-121078419D01*
X167230074Y-121073203D01*
X167251309Y-121070053D01*
X167272750Y-121069000D01*
X167710250Y-121069000D01*
X167731691Y-121070053D01*
X167731691Y-121070053D01*
G37*
D11*
X167491500Y-121544000D03*
D10*
G36*
X166156691Y-121070053D02*
X166177926Y-121073203D01*
X166198750Y-121078419D01*
X166218962Y-121085651D01*
X166238368Y-121094830D01*
X166256781Y-121105866D01*
X166274024Y-121118654D01*
X166289930Y-121133070D01*
X166304346Y-121148976D01*
X166317134Y-121166219D01*
X166328170Y-121184632D01*
X166337349Y-121204038D01*
X166344581Y-121224250D01*
X166349797Y-121245074D01*
X166352947Y-121266309D01*
X166354000Y-121287750D01*
X166354000Y-121800250D01*
X166352947Y-121821691D01*
X166349797Y-121842926D01*
X166344581Y-121863750D01*
X166337349Y-121883962D01*
X166328170Y-121903368D01*
X166317134Y-121921781D01*
X166304346Y-121939024D01*
X166289930Y-121954930D01*
X166274024Y-121969346D01*
X166256781Y-121982134D01*
X166238368Y-121993170D01*
X166218962Y-122002349D01*
X166198750Y-122009581D01*
X166177926Y-122014797D01*
X166156691Y-122017947D01*
X166135250Y-122019000D01*
X165697750Y-122019000D01*
X165676309Y-122017947D01*
X165655074Y-122014797D01*
X165634250Y-122009581D01*
X165614038Y-122002349D01*
X165594632Y-121993170D01*
X165576219Y-121982134D01*
X165558976Y-121969346D01*
X165543070Y-121954930D01*
X165528654Y-121939024D01*
X165515866Y-121921781D01*
X165504830Y-121903368D01*
X165495651Y-121883962D01*
X165488419Y-121863750D01*
X165483203Y-121842926D01*
X165480053Y-121821691D01*
X165479000Y-121800250D01*
X165479000Y-121287750D01*
X165480053Y-121266309D01*
X165483203Y-121245074D01*
X165488419Y-121224250D01*
X165495651Y-121204038D01*
X165504830Y-121184632D01*
X165515866Y-121166219D01*
X165528654Y-121148976D01*
X165543070Y-121133070D01*
X165558976Y-121118654D01*
X165576219Y-121105866D01*
X165594632Y-121094830D01*
X165614038Y-121085651D01*
X165634250Y-121078419D01*
X165655074Y-121073203D01*
X165676309Y-121070053D01*
X165697750Y-121069000D01*
X166135250Y-121069000D01*
X166156691Y-121070053D01*
X166156691Y-121070053D01*
G37*
D11*
X165916500Y-121544000D03*
G04 #@! TD*
D10*
G04 #@! TO.C,R6*
G36*
X166461691Y-127928053D02*
X166482926Y-127931203D01*
X166503750Y-127936419D01*
X166523962Y-127943651D01*
X166543368Y-127952830D01*
X166561781Y-127963866D01*
X166579024Y-127976654D01*
X166594930Y-127991070D01*
X166609346Y-128006976D01*
X166622134Y-128024219D01*
X166633170Y-128042632D01*
X166642349Y-128062038D01*
X166649581Y-128082250D01*
X166654797Y-128103074D01*
X166657947Y-128124309D01*
X166659000Y-128145750D01*
X166659000Y-128658250D01*
X166657947Y-128679691D01*
X166654797Y-128700926D01*
X166649581Y-128721750D01*
X166642349Y-128741962D01*
X166633170Y-128761368D01*
X166622134Y-128779781D01*
X166609346Y-128797024D01*
X166594930Y-128812930D01*
X166579024Y-128827346D01*
X166561781Y-128840134D01*
X166543368Y-128851170D01*
X166523962Y-128860349D01*
X166503750Y-128867581D01*
X166482926Y-128872797D01*
X166461691Y-128875947D01*
X166440250Y-128877000D01*
X166002750Y-128877000D01*
X165981309Y-128875947D01*
X165960074Y-128872797D01*
X165939250Y-128867581D01*
X165919038Y-128860349D01*
X165899632Y-128851170D01*
X165881219Y-128840134D01*
X165863976Y-128827346D01*
X165848070Y-128812930D01*
X165833654Y-128797024D01*
X165820866Y-128779781D01*
X165809830Y-128761368D01*
X165800651Y-128741962D01*
X165793419Y-128721750D01*
X165788203Y-128700926D01*
X165785053Y-128679691D01*
X165784000Y-128658250D01*
X165784000Y-128145750D01*
X165785053Y-128124309D01*
X165788203Y-128103074D01*
X165793419Y-128082250D01*
X165800651Y-128062038D01*
X165809830Y-128042632D01*
X165820866Y-128024219D01*
X165833654Y-128006976D01*
X165848070Y-127991070D01*
X165863976Y-127976654D01*
X165881219Y-127963866D01*
X165899632Y-127952830D01*
X165919038Y-127943651D01*
X165939250Y-127936419D01*
X165960074Y-127931203D01*
X165981309Y-127928053D01*
X166002750Y-127927000D01*
X166440250Y-127927000D01*
X166461691Y-127928053D01*
X166461691Y-127928053D01*
G37*
D11*
X166221500Y-128402000D03*
D10*
G36*
X164886691Y-127928053D02*
X164907926Y-127931203D01*
X164928750Y-127936419D01*
X164948962Y-127943651D01*
X164968368Y-127952830D01*
X164986781Y-127963866D01*
X165004024Y-127976654D01*
X165019930Y-127991070D01*
X165034346Y-128006976D01*
X165047134Y-128024219D01*
X165058170Y-128042632D01*
X165067349Y-128062038D01*
X165074581Y-128082250D01*
X165079797Y-128103074D01*
X165082947Y-128124309D01*
X165084000Y-128145750D01*
X165084000Y-128658250D01*
X165082947Y-128679691D01*
X165079797Y-128700926D01*
X165074581Y-128721750D01*
X165067349Y-128741962D01*
X165058170Y-128761368D01*
X165047134Y-128779781D01*
X165034346Y-128797024D01*
X165019930Y-128812930D01*
X165004024Y-128827346D01*
X164986781Y-128840134D01*
X164968368Y-128851170D01*
X164948962Y-128860349D01*
X164928750Y-128867581D01*
X164907926Y-128872797D01*
X164886691Y-128875947D01*
X164865250Y-128877000D01*
X164427750Y-128877000D01*
X164406309Y-128875947D01*
X164385074Y-128872797D01*
X164364250Y-128867581D01*
X164344038Y-128860349D01*
X164324632Y-128851170D01*
X164306219Y-128840134D01*
X164288976Y-128827346D01*
X164273070Y-128812930D01*
X164258654Y-128797024D01*
X164245866Y-128779781D01*
X164234830Y-128761368D01*
X164225651Y-128741962D01*
X164218419Y-128721750D01*
X164213203Y-128700926D01*
X164210053Y-128679691D01*
X164209000Y-128658250D01*
X164209000Y-128145750D01*
X164210053Y-128124309D01*
X164213203Y-128103074D01*
X164218419Y-128082250D01*
X164225651Y-128062038D01*
X164234830Y-128042632D01*
X164245866Y-128024219D01*
X164258654Y-128006976D01*
X164273070Y-127991070D01*
X164288976Y-127976654D01*
X164306219Y-127963866D01*
X164324632Y-127952830D01*
X164344038Y-127943651D01*
X164364250Y-127936419D01*
X164385074Y-127931203D01*
X164406309Y-127928053D01*
X164427750Y-127927000D01*
X164865250Y-127927000D01*
X164886691Y-127928053D01*
X164886691Y-127928053D01*
G37*
D11*
X164646500Y-128402000D03*
G04 #@! TD*
D10*
G04 #@! TO.C,R5*
G36*
X164949691Y-124943053D02*
X164970926Y-124946203D01*
X164991750Y-124951419D01*
X165011962Y-124958651D01*
X165031368Y-124967830D01*
X165049781Y-124978866D01*
X165067024Y-124991654D01*
X165082930Y-125006070D01*
X165097346Y-125021976D01*
X165110134Y-125039219D01*
X165121170Y-125057632D01*
X165130349Y-125077038D01*
X165137581Y-125097250D01*
X165142797Y-125118074D01*
X165145947Y-125139309D01*
X165147000Y-125160750D01*
X165147000Y-125598250D01*
X165145947Y-125619691D01*
X165142797Y-125640926D01*
X165137581Y-125661750D01*
X165130349Y-125681962D01*
X165121170Y-125701368D01*
X165110134Y-125719781D01*
X165097346Y-125737024D01*
X165082930Y-125752930D01*
X165067024Y-125767346D01*
X165049781Y-125780134D01*
X165031368Y-125791170D01*
X165011962Y-125800349D01*
X164991750Y-125807581D01*
X164970926Y-125812797D01*
X164949691Y-125815947D01*
X164928250Y-125817000D01*
X164415750Y-125817000D01*
X164394309Y-125815947D01*
X164373074Y-125812797D01*
X164352250Y-125807581D01*
X164332038Y-125800349D01*
X164312632Y-125791170D01*
X164294219Y-125780134D01*
X164276976Y-125767346D01*
X164261070Y-125752930D01*
X164246654Y-125737024D01*
X164233866Y-125719781D01*
X164222830Y-125701368D01*
X164213651Y-125681962D01*
X164206419Y-125661750D01*
X164201203Y-125640926D01*
X164198053Y-125619691D01*
X164197000Y-125598250D01*
X164197000Y-125160750D01*
X164198053Y-125139309D01*
X164201203Y-125118074D01*
X164206419Y-125097250D01*
X164213651Y-125077038D01*
X164222830Y-125057632D01*
X164233866Y-125039219D01*
X164246654Y-125021976D01*
X164261070Y-125006070D01*
X164276976Y-124991654D01*
X164294219Y-124978866D01*
X164312632Y-124967830D01*
X164332038Y-124958651D01*
X164352250Y-124951419D01*
X164373074Y-124946203D01*
X164394309Y-124943053D01*
X164415750Y-124942000D01*
X164928250Y-124942000D01*
X164949691Y-124943053D01*
X164949691Y-124943053D01*
G37*
D11*
X164672000Y-125379500D03*
D10*
G36*
X164949691Y-123368053D02*
X164970926Y-123371203D01*
X164991750Y-123376419D01*
X165011962Y-123383651D01*
X165031368Y-123392830D01*
X165049781Y-123403866D01*
X165067024Y-123416654D01*
X165082930Y-123431070D01*
X165097346Y-123446976D01*
X165110134Y-123464219D01*
X165121170Y-123482632D01*
X165130349Y-123502038D01*
X165137581Y-123522250D01*
X165142797Y-123543074D01*
X165145947Y-123564309D01*
X165147000Y-123585750D01*
X165147000Y-124023250D01*
X165145947Y-124044691D01*
X165142797Y-124065926D01*
X165137581Y-124086750D01*
X165130349Y-124106962D01*
X165121170Y-124126368D01*
X165110134Y-124144781D01*
X165097346Y-124162024D01*
X165082930Y-124177930D01*
X165067024Y-124192346D01*
X165049781Y-124205134D01*
X165031368Y-124216170D01*
X165011962Y-124225349D01*
X164991750Y-124232581D01*
X164970926Y-124237797D01*
X164949691Y-124240947D01*
X164928250Y-124242000D01*
X164415750Y-124242000D01*
X164394309Y-124240947D01*
X164373074Y-124237797D01*
X164352250Y-124232581D01*
X164332038Y-124225349D01*
X164312632Y-124216170D01*
X164294219Y-124205134D01*
X164276976Y-124192346D01*
X164261070Y-124177930D01*
X164246654Y-124162024D01*
X164233866Y-124144781D01*
X164222830Y-124126368D01*
X164213651Y-124106962D01*
X164206419Y-124086750D01*
X164201203Y-124065926D01*
X164198053Y-124044691D01*
X164197000Y-124023250D01*
X164197000Y-123585750D01*
X164198053Y-123564309D01*
X164201203Y-123543074D01*
X164206419Y-123522250D01*
X164213651Y-123502038D01*
X164222830Y-123482632D01*
X164233866Y-123464219D01*
X164246654Y-123446976D01*
X164261070Y-123431070D01*
X164276976Y-123416654D01*
X164294219Y-123403866D01*
X164312632Y-123392830D01*
X164332038Y-123383651D01*
X164352250Y-123376419D01*
X164373074Y-123371203D01*
X164394309Y-123368053D01*
X164415750Y-123367000D01*
X164928250Y-123367000D01*
X164949691Y-123368053D01*
X164949691Y-123368053D01*
G37*
D11*
X164672000Y-123804500D03*
G04 #@! TD*
D10*
G04 #@! TO.C,R7*
G36*
X187831691Y-121070053D02*
X187852926Y-121073203D01*
X187873750Y-121078419D01*
X187893962Y-121085651D01*
X187913368Y-121094830D01*
X187931781Y-121105866D01*
X187949024Y-121118654D01*
X187964930Y-121133070D01*
X187979346Y-121148976D01*
X187992134Y-121166219D01*
X188003170Y-121184632D01*
X188012349Y-121204038D01*
X188019581Y-121224250D01*
X188024797Y-121245074D01*
X188027947Y-121266309D01*
X188029000Y-121287750D01*
X188029000Y-121800250D01*
X188027947Y-121821691D01*
X188024797Y-121842926D01*
X188019581Y-121863750D01*
X188012349Y-121883962D01*
X188003170Y-121903368D01*
X187992134Y-121921781D01*
X187979346Y-121939024D01*
X187964930Y-121954930D01*
X187949024Y-121969346D01*
X187931781Y-121982134D01*
X187913368Y-121993170D01*
X187893962Y-122002349D01*
X187873750Y-122009581D01*
X187852926Y-122014797D01*
X187831691Y-122017947D01*
X187810250Y-122019000D01*
X187372750Y-122019000D01*
X187351309Y-122017947D01*
X187330074Y-122014797D01*
X187309250Y-122009581D01*
X187289038Y-122002349D01*
X187269632Y-121993170D01*
X187251219Y-121982134D01*
X187233976Y-121969346D01*
X187218070Y-121954930D01*
X187203654Y-121939024D01*
X187190866Y-121921781D01*
X187179830Y-121903368D01*
X187170651Y-121883962D01*
X187163419Y-121863750D01*
X187158203Y-121842926D01*
X187155053Y-121821691D01*
X187154000Y-121800250D01*
X187154000Y-121287750D01*
X187155053Y-121266309D01*
X187158203Y-121245074D01*
X187163419Y-121224250D01*
X187170651Y-121204038D01*
X187179830Y-121184632D01*
X187190866Y-121166219D01*
X187203654Y-121148976D01*
X187218070Y-121133070D01*
X187233976Y-121118654D01*
X187251219Y-121105866D01*
X187269632Y-121094830D01*
X187289038Y-121085651D01*
X187309250Y-121078419D01*
X187330074Y-121073203D01*
X187351309Y-121070053D01*
X187372750Y-121069000D01*
X187810250Y-121069000D01*
X187831691Y-121070053D01*
X187831691Y-121070053D01*
G37*
D11*
X187591500Y-121544000D03*
D10*
G36*
X186256691Y-121070053D02*
X186277926Y-121073203D01*
X186298750Y-121078419D01*
X186318962Y-121085651D01*
X186338368Y-121094830D01*
X186356781Y-121105866D01*
X186374024Y-121118654D01*
X186389930Y-121133070D01*
X186404346Y-121148976D01*
X186417134Y-121166219D01*
X186428170Y-121184632D01*
X186437349Y-121204038D01*
X186444581Y-121224250D01*
X186449797Y-121245074D01*
X186452947Y-121266309D01*
X186454000Y-121287750D01*
X186454000Y-121800250D01*
X186452947Y-121821691D01*
X186449797Y-121842926D01*
X186444581Y-121863750D01*
X186437349Y-121883962D01*
X186428170Y-121903368D01*
X186417134Y-121921781D01*
X186404346Y-121939024D01*
X186389930Y-121954930D01*
X186374024Y-121969346D01*
X186356781Y-121982134D01*
X186338368Y-121993170D01*
X186318962Y-122002349D01*
X186298750Y-122009581D01*
X186277926Y-122014797D01*
X186256691Y-122017947D01*
X186235250Y-122019000D01*
X185797750Y-122019000D01*
X185776309Y-122017947D01*
X185755074Y-122014797D01*
X185734250Y-122009581D01*
X185714038Y-122002349D01*
X185694632Y-121993170D01*
X185676219Y-121982134D01*
X185658976Y-121969346D01*
X185643070Y-121954930D01*
X185628654Y-121939024D01*
X185615866Y-121921781D01*
X185604830Y-121903368D01*
X185595651Y-121883962D01*
X185588419Y-121863750D01*
X185583203Y-121842926D01*
X185580053Y-121821691D01*
X185579000Y-121800250D01*
X185579000Y-121287750D01*
X185580053Y-121266309D01*
X185583203Y-121245074D01*
X185588419Y-121224250D01*
X185595651Y-121204038D01*
X185604830Y-121184632D01*
X185615866Y-121166219D01*
X185628654Y-121148976D01*
X185643070Y-121133070D01*
X185658976Y-121118654D01*
X185676219Y-121105866D01*
X185694632Y-121094830D01*
X185714038Y-121085651D01*
X185734250Y-121078419D01*
X185755074Y-121073203D01*
X185776309Y-121070053D01*
X185797750Y-121069000D01*
X186235250Y-121069000D01*
X186256691Y-121070053D01*
X186256691Y-121070053D01*
G37*
D11*
X186016500Y-121544000D03*
G04 #@! TD*
D10*
G04 #@! TO.C,R6*
G36*
X186561691Y-127928053D02*
X186582926Y-127931203D01*
X186603750Y-127936419D01*
X186623962Y-127943651D01*
X186643368Y-127952830D01*
X186661781Y-127963866D01*
X186679024Y-127976654D01*
X186694930Y-127991070D01*
X186709346Y-128006976D01*
X186722134Y-128024219D01*
X186733170Y-128042632D01*
X186742349Y-128062038D01*
X186749581Y-128082250D01*
X186754797Y-128103074D01*
X186757947Y-128124309D01*
X186759000Y-128145750D01*
X186759000Y-128658250D01*
X186757947Y-128679691D01*
X186754797Y-128700926D01*
X186749581Y-128721750D01*
X186742349Y-128741962D01*
X186733170Y-128761368D01*
X186722134Y-128779781D01*
X186709346Y-128797024D01*
X186694930Y-128812930D01*
X186679024Y-128827346D01*
X186661781Y-128840134D01*
X186643368Y-128851170D01*
X186623962Y-128860349D01*
X186603750Y-128867581D01*
X186582926Y-128872797D01*
X186561691Y-128875947D01*
X186540250Y-128877000D01*
X186102750Y-128877000D01*
X186081309Y-128875947D01*
X186060074Y-128872797D01*
X186039250Y-128867581D01*
X186019038Y-128860349D01*
X185999632Y-128851170D01*
X185981219Y-128840134D01*
X185963976Y-128827346D01*
X185948070Y-128812930D01*
X185933654Y-128797024D01*
X185920866Y-128779781D01*
X185909830Y-128761368D01*
X185900651Y-128741962D01*
X185893419Y-128721750D01*
X185888203Y-128700926D01*
X185885053Y-128679691D01*
X185884000Y-128658250D01*
X185884000Y-128145750D01*
X185885053Y-128124309D01*
X185888203Y-128103074D01*
X185893419Y-128082250D01*
X185900651Y-128062038D01*
X185909830Y-128042632D01*
X185920866Y-128024219D01*
X185933654Y-128006976D01*
X185948070Y-127991070D01*
X185963976Y-127976654D01*
X185981219Y-127963866D01*
X185999632Y-127952830D01*
X186019038Y-127943651D01*
X186039250Y-127936419D01*
X186060074Y-127931203D01*
X186081309Y-127928053D01*
X186102750Y-127927000D01*
X186540250Y-127927000D01*
X186561691Y-127928053D01*
X186561691Y-127928053D01*
G37*
D11*
X186321500Y-128402000D03*
D10*
G36*
X184986691Y-127928053D02*
X185007926Y-127931203D01*
X185028750Y-127936419D01*
X185048962Y-127943651D01*
X185068368Y-127952830D01*
X185086781Y-127963866D01*
X185104024Y-127976654D01*
X185119930Y-127991070D01*
X185134346Y-128006976D01*
X185147134Y-128024219D01*
X185158170Y-128042632D01*
X185167349Y-128062038D01*
X185174581Y-128082250D01*
X185179797Y-128103074D01*
X185182947Y-128124309D01*
X185184000Y-128145750D01*
X185184000Y-128658250D01*
X185182947Y-128679691D01*
X185179797Y-128700926D01*
X185174581Y-128721750D01*
X185167349Y-128741962D01*
X185158170Y-128761368D01*
X185147134Y-128779781D01*
X185134346Y-128797024D01*
X185119930Y-128812930D01*
X185104024Y-128827346D01*
X185086781Y-128840134D01*
X185068368Y-128851170D01*
X185048962Y-128860349D01*
X185028750Y-128867581D01*
X185007926Y-128872797D01*
X184986691Y-128875947D01*
X184965250Y-128877000D01*
X184527750Y-128877000D01*
X184506309Y-128875947D01*
X184485074Y-128872797D01*
X184464250Y-128867581D01*
X184444038Y-128860349D01*
X184424632Y-128851170D01*
X184406219Y-128840134D01*
X184388976Y-128827346D01*
X184373070Y-128812930D01*
X184358654Y-128797024D01*
X184345866Y-128779781D01*
X184334830Y-128761368D01*
X184325651Y-128741962D01*
X184318419Y-128721750D01*
X184313203Y-128700926D01*
X184310053Y-128679691D01*
X184309000Y-128658250D01*
X184309000Y-128145750D01*
X184310053Y-128124309D01*
X184313203Y-128103074D01*
X184318419Y-128082250D01*
X184325651Y-128062038D01*
X184334830Y-128042632D01*
X184345866Y-128024219D01*
X184358654Y-128006976D01*
X184373070Y-127991070D01*
X184388976Y-127976654D01*
X184406219Y-127963866D01*
X184424632Y-127952830D01*
X184444038Y-127943651D01*
X184464250Y-127936419D01*
X184485074Y-127931203D01*
X184506309Y-127928053D01*
X184527750Y-127927000D01*
X184965250Y-127927000D01*
X184986691Y-127928053D01*
X184986691Y-127928053D01*
G37*
D11*
X184746500Y-128402000D03*
G04 #@! TD*
D10*
G04 #@! TO.C,R5*
G36*
X185049691Y-124943053D02*
X185070926Y-124946203D01*
X185091750Y-124951419D01*
X185111962Y-124958651D01*
X185131368Y-124967830D01*
X185149781Y-124978866D01*
X185167024Y-124991654D01*
X185182930Y-125006070D01*
X185197346Y-125021976D01*
X185210134Y-125039219D01*
X185221170Y-125057632D01*
X185230349Y-125077038D01*
X185237581Y-125097250D01*
X185242797Y-125118074D01*
X185245947Y-125139309D01*
X185247000Y-125160750D01*
X185247000Y-125598250D01*
X185245947Y-125619691D01*
X185242797Y-125640926D01*
X185237581Y-125661750D01*
X185230349Y-125681962D01*
X185221170Y-125701368D01*
X185210134Y-125719781D01*
X185197346Y-125737024D01*
X185182930Y-125752930D01*
X185167024Y-125767346D01*
X185149781Y-125780134D01*
X185131368Y-125791170D01*
X185111962Y-125800349D01*
X185091750Y-125807581D01*
X185070926Y-125812797D01*
X185049691Y-125815947D01*
X185028250Y-125817000D01*
X184515750Y-125817000D01*
X184494309Y-125815947D01*
X184473074Y-125812797D01*
X184452250Y-125807581D01*
X184432038Y-125800349D01*
X184412632Y-125791170D01*
X184394219Y-125780134D01*
X184376976Y-125767346D01*
X184361070Y-125752930D01*
X184346654Y-125737024D01*
X184333866Y-125719781D01*
X184322830Y-125701368D01*
X184313651Y-125681962D01*
X184306419Y-125661750D01*
X184301203Y-125640926D01*
X184298053Y-125619691D01*
X184297000Y-125598250D01*
X184297000Y-125160750D01*
X184298053Y-125139309D01*
X184301203Y-125118074D01*
X184306419Y-125097250D01*
X184313651Y-125077038D01*
X184322830Y-125057632D01*
X184333866Y-125039219D01*
X184346654Y-125021976D01*
X184361070Y-125006070D01*
X184376976Y-124991654D01*
X184394219Y-124978866D01*
X184412632Y-124967830D01*
X184432038Y-124958651D01*
X184452250Y-124951419D01*
X184473074Y-124946203D01*
X184494309Y-124943053D01*
X184515750Y-124942000D01*
X185028250Y-124942000D01*
X185049691Y-124943053D01*
X185049691Y-124943053D01*
G37*
D11*
X184772000Y-125379500D03*
D10*
G36*
X185049691Y-123368053D02*
X185070926Y-123371203D01*
X185091750Y-123376419D01*
X185111962Y-123383651D01*
X185131368Y-123392830D01*
X185149781Y-123403866D01*
X185167024Y-123416654D01*
X185182930Y-123431070D01*
X185197346Y-123446976D01*
X185210134Y-123464219D01*
X185221170Y-123482632D01*
X185230349Y-123502038D01*
X185237581Y-123522250D01*
X185242797Y-123543074D01*
X185245947Y-123564309D01*
X185247000Y-123585750D01*
X185247000Y-124023250D01*
X185245947Y-124044691D01*
X185242797Y-124065926D01*
X185237581Y-124086750D01*
X185230349Y-124106962D01*
X185221170Y-124126368D01*
X185210134Y-124144781D01*
X185197346Y-124162024D01*
X185182930Y-124177930D01*
X185167024Y-124192346D01*
X185149781Y-124205134D01*
X185131368Y-124216170D01*
X185111962Y-124225349D01*
X185091750Y-124232581D01*
X185070926Y-124237797D01*
X185049691Y-124240947D01*
X185028250Y-124242000D01*
X184515750Y-124242000D01*
X184494309Y-124240947D01*
X184473074Y-124237797D01*
X184452250Y-124232581D01*
X184432038Y-124225349D01*
X184412632Y-124216170D01*
X184394219Y-124205134D01*
X184376976Y-124192346D01*
X184361070Y-124177930D01*
X184346654Y-124162024D01*
X184333866Y-124144781D01*
X184322830Y-124126368D01*
X184313651Y-124106962D01*
X184306419Y-124086750D01*
X184301203Y-124065926D01*
X184298053Y-124044691D01*
X184297000Y-124023250D01*
X184297000Y-123585750D01*
X184298053Y-123564309D01*
X184301203Y-123543074D01*
X184306419Y-123522250D01*
X184313651Y-123502038D01*
X184322830Y-123482632D01*
X184333866Y-123464219D01*
X184346654Y-123446976D01*
X184361070Y-123431070D01*
X184376976Y-123416654D01*
X184394219Y-123403866D01*
X184412632Y-123392830D01*
X184432038Y-123383651D01*
X184452250Y-123376419D01*
X184473074Y-123371203D01*
X184494309Y-123368053D01*
X184515750Y-123367000D01*
X185028250Y-123367000D01*
X185049691Y-123368053D01*
X185049691Y-123368053D01*
G37*
D11*
X184772000Y-123804500D03*
G04 #@! TD*
M02*
