G04 #@! TF.GenerationSoftware,KiCad,Pcbnew,5.0.0*
G04 #@! TF.CreationDate,2018-10-25T12:48:18+02:00*
G04 #@! TF.ProjectId,WaterFanBoard,576174657246616E426F6172642E6B69,rev?*
G04 #@! TF.SameCoordinates,Original*
G04 #@! TF.FileFunction,Copper,L2,Bot,Mixed*
G04 #@! TF.FilePolarity,Positive*
%FSLAX46Y46*%
G04 Gerber Fmt 4.6, Leading zero omitted, Abs format (unit mm)*
G04 Created by KiCad (PCBNEW 5.0.0) date Thu Oct 25 12:48:18 2018*
%MOMM*%
%LPD*%
G01*
G04 APERTURE LIST*
G04 #@! TA.AperFunction,ComponentPad*
%ADD10R,1.700000X1.700000*%
G04 #@! TD*
G04 #@! TA.AperFunction,ComponentPad*
%ADD11O,1.700000X1.700000*%
G04 #@! TD*
G04 #@! TA.AperFunction,ComponentPad*
%ADD12O,1.600000X1.600000*%
G04 #@! TD*
G04 #@! TA.AperFunction,ComponentPad*
%ADD13R,1.600000X1.600000*%
G04 #@! TD*
G04 #@! TA.AperFunction,ComponentPad*
%ADD14O,2.050000X2.050000*%
G04 #@! TD*
G04 #@! TA.AperFunction,Conductor*
%ADD15C,0.100000*%
G04 #@! TD*
G04 #@! TA.AperFunction,SMDPad,CuDef*
%ADD16C,0.875000*%
G04 #@! TD*
G04 #@! TA.AperFunction,ViaPad*
%ADD17C,0.800000*%
G04 #@! TD*
G04 #@! TA.AperFunction,Conductor*
%ADD18C,0.250000*%
G04 #@! TD*
G04 APERTURE END LIST*
D10*
G04 #@! TO.P,J1,1*
G04 #@! TO.N,/3V*
X142995237Y-190462313D03*
D11*
G04 #@! TO.P,J1,2*
G04 #@! TO.N,/5V*
X142995237Y-187922313D03*
G04 #@! TO.P,J1,3*
G04 #@! TO.N,GND*
X142995237Y-185382313D03*
G04 #@! TO.P,J1,4*
X142995237Y-182842313D03*
G04 #@! TO.P,J1,5*
G04 #@! TO.N,/VIN*
X142995237Y-180302313D03*
G04 #@! TO.P,J1,6*
G04 #@! TO.N,Net-(J1-Pad6)*
X142995237Y-177762313D03*
G04 #@! TO.P,J1,7*
G04 #@! TO.N,/A0*
X142995237Y-175222313D03*
G04 #@! TO.P,J1,8*
G04 #@! TO.N,/A1*
X142995237Y-172682313D03*
G04 #@! TO.P,J1,9*
G04 #@! TO.N,/A11*
X142995237Y-170142313D03*
G04 #@! TO.P,J1,10*
G04 #@! TO.N,/A12*
X142995237Y-167602313D03*
G04 #@! TO.P,J1,11*
G04 #@! TO.N,/A4*
X142995237Y-165062313D03*
G04 #@! TO.P,J1,12*
G04 #@! TO.N,/A5*
X142995237Y-162522313D03*
G04 #@! TO.P,J1,13*
G04 #@! TO.N,/A6*
X142995237Y-159982313D03*
G04 #@! TO.P,J1,14*
G04 #@! TO.N,/A7*
X142995237Y-157442313D03*
G04 #@! TD*
D10*
G04 #@! TO.P,J3,1*
G04 #@! TO.N,/5V*
X120095237Y-179462313D03*
D11*
G04 #@! TO.P,J3,2*
G04 #@! TO.N,GND*
X122635237Y-179462313D03*
G04 #@! TO.P,J3,3*
G04 #@! TO.N,/A5*
X120095237Y-182002313D03*
G04 #@! TO.P,J3,4*
G04 #@! TO.N,/A0*
X122635237Y-182002313D03*
G04 #@! TO.P,J3,5*
G04 #@! TO.N,/A1*
X120095237Y-184542313D03*
G04 #@! TO.P,J3,6*
G04 #@! TO.N,/D40*
X122635237Y-184542313D03*
G04 #@! TO.P,J3,7*
G04 #@! TO.N,/D44*
X120095237Y-187082313D03*
G04 #@! TO.P,J3,8*
G04 #@! TO.N,/D42*
X122635237Y-187082313D03*
G04 #@! TO.P,J3,9*
G04 #@! TO.N,/A12*
X120095237Y-189622313D03*
G04 #@! TO.P,J3,10*
G04 #@! TO.N,/A11*
X122635237Y-189622313D03*
G04 #@! TD*
D10*
G04 #@! TO.P,J2,1*
G04 #@! TO.N,/A0*
X131495237Y-175142313D03*
D11*
G04 #@! TO.P,J2,2*
G04 #@! TO.N,GND*
X128955237Y-175142313D03*
G04 #@! TO.P,J2,3*
G04 #@! TO.N,/A1*
X131495237Y-172602313D03*
G04 #@! TO.P,J2,4*
G04 #@! TO.N,GND*
X128955237Y-172602313D03*
G04 #@! TO.P,J2,5*
G04 #@! TO.N,/A11*
X131495237Y-170062313D03*
G04 #@! TO.P,J2,6*
G04 #@! TO.N,GND*
X128955237Y-170062313D03*
G04 #@! TO.P,J2,7*
G04 #@! TO.N,/A12*
X131495237Y-167522313D03*
G04 #@! TO.P,J2,8*
G04 #@! TO.N,GND*
X128955237Y-167522313D03*
G04 #@! TO.P,J2,9*
G04 #@! TO.N,/A4*
X131495237Y-164982313D03*
G04 #@! TO.P,J2,10*
G04 #@! TO.N,GND*
X128955237Y-164982313D03*
G04 #@! TO.P,J2,11*
G04 #@! TO.N,/A5*
X131495237Y-162442313D03*
G04 #@! TO.P,J2,12*
G04 #@! TO.N,GND*
X128955237Y-162442313D03*
G04 #@! TO.P,J2,13*
G04 #@! TO.N,/A6*
X131495237Y-159902313D03*
G04 #@! TO.P,J2,14*
G04 #@! TO.N,GND*
X128955237Y-159902313D03*
G04 #@! TO.P,J2,15*
G04 #@! TO.N,/A7*
X131495237Y-157362313D03*
G04 #@! TO.P,J2,16*
G04 #@! TO.N,GND*
X128955237Y-157362313D03*
G04 #@! TD*
G04 #@! TO.P,J2,4*
G04 #@! TO.N,/P16*
X193510058Y-188945591D03*
G04 #@! TO.P,J2,3*
G04 #@! TO.N,/P15*
X193510058Y-191485591D03*
G04 #@! TO.P,J2,2*
G04 #@! TO.N,/P12*
X193510058Y-194025591D03*
D10*
G04 #@! TO.P,J2,1*
G04 #@! TO.N,/P11*
X193510058Y-196565591D03*
G04 #@! TD*
G04 #@! TO.P,J3,1*
G04 #@! TO.N,/P48*
X158410058Y-157865591D03*
D11*
G04 #@! TO.P,J3,2*
G04 #@! TO.N,/P47*
X158410058Y-155325591D03*
G04 #@! TO.P,J3,3*
G04 #@! TO.N,/P46*
X160950058Y-157865591D03*
G04 #@! TO.P,J3,4*
G04 #@! TO.N,/P45*
X160950058Y-155325591D03*
G04 #@! TO.P,J3,5*
G04 #@! TO.N,/P44*
X163490058Y-157865591D03*
G04 #@! TO.P,J3,6*
G04 #@! TO.N,/P43*
X163490058Y-155325591D03*
G04 #@! TO.P,J3,7*
G04 #@! TO.N,/P42*
X166030058Y-157865591D03*
G04 #@! TO.P,J3,8*
G04 #@! TO.N,/P41*
X166030058Y-155325591D03*
G04 #@! TO.P,J3,9*
G04 #@! TO.N,/P40*
X168570058Y-157865591D03*
G04 #@! TO.P,J3,10*
G04 #@! TO.N,/P39*
X168570058Y-155325591D03*
G04 #@! TO.P,J3,11*
G04 #@! TO.N,/P38*
X171110058Y-157865591D03*
G04 #@! TO.P,J3,12*
G04 #@! TO.N,/P37*
X171110058Y-155325591D03*
G04 #@! TO.P,J3,13*
G04 #@! TO.N,/P36*
X173650058Y-157865591D03*
G04 #@! TO.P,J3,14*
G04 #@! TO.N,/P35*
X173650058Y-155325591D03*
G04 #@! TO.P,J3,15*
G04 #@! TO.N,/P34*
X176190058Y-157865591D03*
G04 #@! TO.P,J3,16*
G04 #@! TO.N,/P33*
X176190058Y-155325591D03*
G04 #@! TO.P,J3,17*
G04 #@! TO.N,/P32*
X178730058Y-157865591D03*
G04 #@! TO.P,J3,18*
G04 #@! TO.N,/P31*
X178730058Y-155325591D03*
G04 #@! TO.P,J3,19*
G04 #@! TO.N,/P30*
X181270058Y-157865591D03*
G04 #@! TO.P,J3,20*
G04 #@! TO.N,/P29*
X181270058Y-155325591D03*
G04 #@! TO.P,J3,21*
G04 #@! TO.N,/P28*
X183810058Y-157865591D03*
G04 #@! TO.P,J3,22*
G04 #@! TO.N,/P27*
X183810058Y-155325591D03*
G04 #@! TO.P,J3,23*
G04 #@! TO.N,/P26*
X186350058Y-157865591D03*
G04 #@! TO.P,J3,24*
G04 #@! TO.N,/P25*
X186350058Y-155325591D03*
G04 #@! TD*
G04 #@! TO.P,J1,24*
G04 #@! TO.N,/P24*
X186350058Y-195325591D03*
G04 #@! TO.P,J1,23*
G04 #@! TO.N,/P23*
X186350058Y-197865591D03*
G04 #@! TO.P,J1,22*
G04 #@! TO.N,/P22*
X183810058Y-195325591D03*
G04 #@! TO.P,J1,21*
G04 #@! TO.N,/P21*
X183810058Y-197865591D03*
G04 #@! TO.P,J1,20*
G04 #@! TO.N,/P20*
X181270058Y-195325591D03*
G04 #@! TO.P,J1,19*
G04 #@! TO.N,/P19*
X181270058Y-197865591D03*
G04 #@! TO.P,J1,18*
G04 #@! TO.N,/P18*
X178730058Y-195325591D03*
G04 #@! TO.P,J1,17*
G04 #@! TO.N,/P17*
X178730058Y-197865591D03*
G04 #@! TO.P,J1,16*
G04 #@! TO.N,/P16*
X176190058Y-195325591D03*
G04 #@! TO.P,J1,15*
G04 #@! TO.N,/P15*
X176190058Y-197865591D03*
G04 #@! TO.P,J1,14*
G04 #@! TO.N,Net-(J1-Pad14)*
X173650058Y-195325591D03*
G04 #@! TO.P,J1,13*
G04 #@! TO.N,Net-(J1-Pad13)*
X173650058Y-197865591D03*
G04 #@! TO.P,J1,12*
G04 #@! TO.N,/P12*
X171110058Y-195325591D03*
G04 #@! TO.P,J1,11*
G04 #@! TO.N,/P11*
X171110058Y-197865591D03*
G04 #@! TO.P,J1,10*
G04 #@! TO.N,Net-(J1-Pad10)*
X168570058Y-195325591D03*
G04 #@! TO.P,J1,9*
G04 #@! TO.N,Net-(J1-Pad9)*
X168570058Y-197865591D03*
G04 #@! TO.P,J1,8*
G04 #@! TO.N,/P8*
X166030058Y-195325591D03*
G04 #@! TO.P,J1,7*
G04 #@! TO.N,/P7*
X166030058Y-197865591D03*
G04 #@! TO.P,J1,6*
G04 #@! TO.N,/P6*
X163490058Y-195325591D03*
G04 #@! TO.P,J1,5*
G04 #@! TO.N,/P5*
X163490058Y-197865591D03*
G04 #@! TO.P,J1,4*
G04 #@! TO.N,/P4*
X160950058Y-195325591D03*
G04 #@! TO.P,J1,3*
G04 #@! TO.N,/P3*
X160950058Y-197865591D03*
G04 #@! TO.P,J1,2*
G04 #@! TO.N,/P2*
X158410058Y-195325591D03*
D10*
G04 #@! TO.P,J1,1*
G04 #@! TO.N,/P1*
X158410058Y-197865591D03*
G04 #@! TD*
D12*
G04 #@! TO.P,U1,40*
G04 #@! TO.N,/P8*
X148510058Y-169325591D03*
G04 #@! TO.P,U1,20*
G04 #@! TO.N,/P36*
X196770058Y-184565591D03*
G04 #@! TO.P,U1,39*
G04 #@! TO.N,/P7*
X151050058Y-169325591D03*
G04 #@! TO.P,U1,19*
G04 #@! TO.N,/P35*
X194230058Y-184565591D03*
G04 #@! TO.P,U1,38*
G04 #@! TO.N,/P6*
X153590058Y-169325591D03*
G04 #@! TO.P,U1,18*
G04 #@! TO.N,/P34*
X191690058Y-184565591D03*
G04 #@! TO.P,U1,37*
G04 #@! TO.N,/P5*
X156130058Y-169325591D03*
G04 #@! TO.P,U1,17*
G04 #@! TO.N,/P33*
X189150058Y-184565591D03*
G04 #@! TO.P,U1,36*
G04 #@! TO.N,/P4*
X158670058Y-169325591D03*
G04 #@! TO.P,U1,16*
G04 #@! TO.N,/P32*
X186610058Y-184565591D03*
G04 #@! TO.P,U1,35*
G04 #@! TO.N,/P3*
X161210058Y-169325591D03*
G04 #@! TO.P,U1,15*
G04 #@! TO.N,/P31*
X184070058Y-184565591D03*
G04 #@! TO.P,U1,34*
G04 #@! TO.N,/P2*
X163750058Y-169325591D03*
G04 #@! TO.P,U1,14*
G04 #@! TO.N,/P30*
X181530058Y-184565591D03*
G04 #@! TO.P,U1,33*
G04 #@! TO.N,/P1*
X166290058Y-169325591D03*
G04 #@! TO.P,U1,13*
G04 #@! TO.N,/P29*
X178990058Y-184565591D03*
G04 #@! TO.P,U1,32*
G04 #@! TO.N,/P48*
X168830058Y-169325591D03*
G04 #@! TO.P,U1,12*
G04 #@! TO.N,/P28*
X176450058Y-184565591D03*
G04 #@! TO.P,U1,31*
G04 #@! TO.N,/P47*
X171370058Y-169325591D03*
G04 #@! TO.P,U1,11*
G04 #@! TO.N,/P27*
X173910058Y-184565591D03*
G04 #@! TO.P,U1,30*
G04 #@! TO.N,/P46*
X173910058Y-169325591D03*
G04 #@! TO.P,U1,10*
G04 #@! TO.N,/P26*
X171370058Y-184565591D03*
G04 #@! TO.P,U1,29*
G04 #@! TO.N,/P45*
X176450058Y-169325591D03*
G04 #@! TO.P,U1,9*
G04 #@! TO.N,/P25*
X168830058Y-184565591D03*
G04 #@! TO.P,U1,28*
G04 #@! TO.N,/P44*
X178990058Y-169325591D03*
G04 #@! TO.P,U1,8*
G04 #@! TO.N,/P24*
X166290058Y-184565591D03*
G04 #@! TO.P,U1,27*
G04 #@! TO.N,/P43*
X181530058Y-169325591D03*
G04 #@! TO.P,U1,7*
G04 #@! TO.N,/P23*
X163750058Y-184565591D03*
G04 #@! TO.P,U1,26*
G04 #@! TO.N,/P42*
X184070058Y-169325591D03*
G04 #@! TO.P,U1,6*
G04 #@! TO.N,/P22*
X161210058Y-184565591D03*
G04 #@! TO.P,U1,25*
G04 #@! TO.N,/P41*
X186610058Y-169325591D03*
G04 #@! TO.P,U1,5*
G04 #@! TO.N,/P21*
X158670058Y-184565591D03*
G04 #@! TO.P,U1,24*
G04 #@! TO.N,/P40*
X189150058Y-169325591D03*
G04 #@! TO.P,U1,4*
G04 #@! TO.N,/P20*
X156130058Y-184565591D03*
G04 #@! TO.P,U1,23*
G04 #@! TO.N,/P39*
X191690058Y-169325591D03*
G04 #@! TO.P,U1,3*
G04 #@! TO.N,/P19*
X153590058Y-184565591D03*
G04 #@! TO.P,U1,22*
G04 #@! TO.N,/P38*
X194230058Y-169325591D03*
G04 #@! TO.P,U1,2*
G04 #@! TO.N,/P18*
X151050058Y-184565591D03*
G04 #@! TO.P,U1,21*
G04 #@! TO.N,/P37*
X196770058Y-169325591D03*
D13*
G04 #@! TO.P,U1,1*
G04 #@! TO.N,/P17*
X148510058Y-184565591D03*
G04 #@! TD*
D14*
G04 #@! TO.P,U1,1*
G04 #@! TO.N,/P1_1*
X117513000Y-150246000D03*
G04 #@! TO.P,U1,2*
G04 #@! TO.N,/P2*
X117513000Y-147706000D03*
G04 #@! TO.P,U1,3*
G04 #@! TO.N,/P3*
X117513000Y-145166000D03*
G04 #@! TO.P,U1,4*
G04 #@! TO.N,/P4*
X117513000Y-142626000D03*
G04 #@! TO.P,U1,5*
G04 #@! TO.N,/P5*
X117513000Y-140086000D03*
G04 #@! TO.P,U1,6*
G04 #@! TO.N,/P6*
X117513000Y-137546000D03*
G04 #@! TO.P,U1,7*
G04 #@! TO.N,/P7*
X117513000Y-135006000D03*
G04 #@! TO.P,U1,8*
G04 #@! TO.N,/P8*
X117513000Y-132466000D03*
G04 #@! TO.P,U1,9*
G04 #@! TO.N,/P9*
X117513000Y-129926000D03*
G04 #@! TO.P,U1,10*
G04 #@! TO.N,/P10*
X117513000Y-127386000D03*
G04 #@! TO.P,U1,11*
G04 #@! TO.N,VSS*
X117513000Y-124846000D03*
G04 #@! TO.P,U1,12*
G04 #@! TO.N,/P12*
X117513000Y-122306000D03*
G04 #@! TO.P,U1,13*
G04 #@! TO.N,/P13*
X117513000Y-119766000D03*
G04 #@! TO.P,U1,14*
G04 #@! TO.N,/P14*
X117513000Y-117226000D03*
G04 #@! TO.P,U1,15*
G04 #@! TO.N,/P15*
X117513000Y-114686000D03*
G04 #@! TO.P,U1,16*
G04 #@! TO.N,/P16*
X117513000Y-112146000D03*
G04 #@! TO.P,U1,17*
G04 #@! TO.N,/P17*
X117513000Y-109606000D03*
G04 #@! TO.P,U1,18*
G04 #@! TO.N,/P18*
X117513000Y-107066000D03*
G04 #@! TO.P,U1,19*
G04 #@! TO.N,/P19*
X117513000Y-104526000D03*
G04 #@! TO.P,U1,20*
G04 #@! TO.N,/P20*
X117513000Y-101986000D03*
G04 #@! TO.P,U1,21*
G04 #@! TO.N,VCC*
X102273000Y-101986000D03*
G04 #@! TO.P,U1,22*
G04 #@! TO.N,/P22*
X102273000Y-104526000D03*
G04 #@! TO.P,U1,23*
G04 #@! TO.N,/P23*
X102273000Y-107066000D03*
G04 #@! TO.P,U1,24*
G04 #@! TO.N,/P24*
X102273000Y-109606000D03*
G04 #@! TO.P,U1,25*
G04 #@! TO.N,/P25*
X102273000Y-112146000D03*
G04 #@! TO.P,U1,26*
G04 #@! TO.N,/P26*
X102273000Y-114686000D03*
G04 #@! TO.P,U1,27*
G04 #@! TO.N,/P27*
X102273000Y-117226000D03*
G04 #@! TO.P,U1,28*
G04 #@! TO.N,/P28*
X102273000Y-119766000D03*
G04 #@! TO.P,U1,29*
G04 #@! TO.N,/P29*
X102273000Y-122306000D03*
G04 #@! TO.P,U1,30*
G04 #@! TO.N,VSS*
X102273000Y-124846000D03*
G04 #@! TO.P,U1,31*
G04 #@! TO.N,/P31_1*
X102273000Y-127386000D03*
G04 #@! TO.P,U1,32*
G04 #@! TO.N,/P32*
X102273000Y-129926000D03*
G04 #@! TO.P,U1,33*
G04 #@! TO.N,/P33*
X102273000Y-132466000D03*
G04 #@! TO.P,U1,34*
G04 #@! TO.N,/P34*
X102273000Y-135006000D03*
G04 #@! TO.P,U1,35*
G04 #@! TO.N,/P35*
X102273000Y-137546000D03*
G04 #@! TO.P,U1,36*
G04 #@! TO.N,/P36*
X102273000Y-140086000D03*
G04 #@! TO.P,U1,37*
G04 #@! TO.N,/P37*
X102273000Y-142626000D03*
G04 #@! TO.P,U1,38*
G04 #@! TO.N,/P38*
X102273000Y-145166000D03*
G04 #@! TO.P,U1,39*
G04 #@! TO.N,/P39*
X102273000Y-147706000D03*
G04 #@! TO.P,U1,40*
G04 #@! TO.N,/P40*
X102273000Y-150246000D03*
G04 #@! TD*
D15*
G04 #@! TO.N,VCC*
G04 #@! TO.C,R7*
G36*
X107931691Y-121070053D02*
X107952926Y-121073203D01*
X107973750Y-121078419D01*
X107993962Y-121085651D01*
X108013368Y-121094830D01*
X108031781Y-121105866D01*
X108049024Y-121118654D01*
X108064930Y-121133070D01*
X108079346Y-121148976D01*
X108092134Y-121166219D01*
X108103170Y-121184632D01*
X108112349Y-121204038D01*
X108119581Y-121224250D01*
X108124797Y-121245074D01*
X108127947Y-121266309D01*
X108129000Y-121287750D01*
X108129000Y-121800250D01*
X108127947Y-121821691D01*
X108124797Y-121842926D01*
X108119581Y-121863750D01*
X108112349Y-121883962D01*
X108103170Y-121903368D01*
X108092134Y-121921781D01*
X108079346Y-121939024D01*
X108064930Y-121954930D01*
X108049024Y-121969346D01*
X108031781Y-121982134D01*
X108013368Y-121993170D01*
X107993962Y-122002349D01*
X107973750Y-122009581D01*
X107952926Y-122014797D01*
X107931691Y-122017947D01*
X107910250Y-122019000D01*
X107472750Y-122019000D01*
X107451309Y-122017947D01*
X107430074Y-122014797D01*
X107409250Y-122009581D01*
X107389038Y-122002349D01*
X107369632Y-121993170D01*
X107351219Y-121982134D01*
X107333976Y-121969346D01*
X107318070Y-121954930D01*
X107303654Y-121939024D01*
X107290866Y-121921781D01*
X107279830Y-121903368D01*
X107270651Y-121883962D01*
X107263419Y-121863750D01*
X107258203Y-121842926D01*
X107255053Y-121821691D01*
X107254000Y-121800250D01*
X107254000Y-121287750D01*
X107255053Y-121266309D01*
X107258203Y-121245074D01*
X107263419Y-121224250D01*
X107270651Y-121204038D01*
X107279830Y-121184632D01*
X107290866Y-121166219D01*
X107303654Y-121148976D01*
X107318070Y-121133070D01*
X107333976Y-121118654D01*
X107351219Y-121105866D01*
X107369632Y-121094830D01*
X107389038Y-121085651D01*
X107409250Y-121078419D01*
X107430074Y-121073203D01*
X107451309Y-121070053D01*
X107472750Y-121069000D01*
X107910250Y-121069000D01*
X107931691Y-121070053D01*
X107931691Y-121070053D01*
G37*
D16*
G04 #@! TD*
G04 #@! TO.P,R7,2*
G04 #@! TO.N,VCC*
X107691500Y-121544000D03*
D15*
G04 #@! TO.N,/P31_2*
G04 #@! TO.C,R7*
G36*
X106356691Y-121070053D02*
X106377926Y-121073203D01*
X106398750Y-121078419D01*
X106418962Y-121085651D01*
X106438368Y-121094830D01*
X106456781Y-121105866D01*
X106474024Y-121118654D01*
X106489930Y-121133070D01*
X106504346Y-121148976D01*
X106517134Y-121166219D01*
X106528170Y-121184632D01*
X106537349Y-121204038D01*
X106544581Y-121224250D01*
X106549797Y-121245074D01*
X106552947Y-121266309D01*
X106554000Y-121287750D01*
X106554000Y-121800250D01*
X106552947Y-121821691D01*
X106549797Y-121842926D01*
X106544581Y-121863750D01*
X106537349Y-121883962D01*
X106528170Y-121903368D01*
X106517134Y-121921781D01*
X106504346Y-121939024D01*
X106489930Y-121954930D01*
X106474024Y-121969346D01*
X106456781Y-121982134D01*
X106438368Y-121993170D01*
X106418962Y-122002349D01*
X106398750Y-122009581D01*
X106377926Y-122014797D01*
X106356691Y-122017947D01*
X106335250Y-122019000D01*
X105897750Y-122019000D01*
X105876309Y-122017947D01*
X105855074Y-122014797D01*
X105834250Y-122009581D01*
X105814038Y-122002349D01*
X105794632Y-121993170D01*
X105776219Y-121982134D01*
X105758976Y-121969346D01*
X105743070Y-121954930D01*
X105728654Y-121939024D01*
X105715866Y-121921781D01*
X105704830Y-121903368D01*
X105695651Y-121883962D01*
X105688419Y-121863750D01*
X105683203Y-121842926D01*
X105680053Y-121821691D01*
X105679000Y-121800250D01*
X105679000Y-121287750D01*
X105680053Y-121266309D01*
X105683203Y-121245074D01*
X105688419Y-121224250D01*
X105695651Y-121204038D01*
X105704830Y-121184632D01*
X105715866Y-121166219D01*
X105728654Y-121148976D01*
X105743070Y-121133070D01*
X105758976Y-121118654D01*
X105776219Y-121105866D01*
X105794632Y-121094830D01*
X105814038Y-121085651D01*
X105834250Y-121078419D01*
X105855074Y-121073203D01*
X105876309Y-121070053D01*
X105897750Y-121069000D01*
X106335250Y-121069000D01*
X106356691Y-121070053D01*
X106356691Y-121070053D01*
G37*
D16*
G04 #@! TD*
G04 #@! TO.P,R7,1*
G04 #@! TO.N,/P31_2*
X106116500Y-121544000D03*
D15*
G04 #@! TO.N,/P1_2*
G04 #@! TO.C,R6*
G36*
X106661691Y-127928053D02*
X106682926Y-127931203D01*
X106703750Y-127936419D01*
X106723962Y-127943651D01*
X106743368Y-127952830D01*
X106761781Y-127963866D01*
X106779024Y-127976654D01*
X106794930Y-127991070D01*
X106809346Y-128006976D01*
X106822134Y-128024219D01*
X106833170Y-128042632D01*
X106842349Y-128062038D01*
X106849581Y-128082250D01*
X106854797Y-128103074D01*
X106857947Y-128124309D01*
X106859000Y-128145750D01*
X106859000Y-128658250D01*
X106857947Y-128679691D01*
X106854797Y-128700926D01*
X106849581Y-128721750D01*
X106842349Y-128741962D01*
X106833170Y-128761368D01*
X106822134Y-128779781D01*
X106809346Y-128797024D01*
X106794930Y-128812930D01*
X106779024Y-128827346D01*
X106761781Y-128840134D01*
X106743368Y-128851170D01*
X106723962Y-128860349D01*
X106703750Y-128867581D01*
X106682926Y-128872797D01*
X106661691Y-128875947D01*
X106640250Y-128877000D01*
X106202750Y-128877000D01*
X106181309Y-128875947D01*
X106160074Y-128872797D01*
X106139250Y-128867581D01*
X106119038Y-128860349D01*
X106099632Y-128851170D01*
X106081219Y-128840134D01*
X106063976Y-128827346D01*
X106048070Y-128812930D01*
X106033654Y-128797024D01*
X106020866Y-128779781D01*
X106009830Y-128761368D01*
X106000651Y-128741962D01*
X105993419Y-128721750D01*
X105988203Y-128700926D01*
X105985053Y-128679691D01*
X105984000Y-128658250D01*
X105984000Y-128145750D01*
X105985053Y-128124309D01*
X105988203Y-128103074D01*
X105993419Y-128082250D01*
X106000651Y-128062038D01*
X106009830Y-128042632D01*
X106020866Y-128024219D01*
X106033654Y-128006976D01*
X106048070Y-127991070D01*
X106063976Y-127976654D01*
X106081219Y-127963866D01*
X106099632Y-127952830D01*
X106119038Y-127943651D01*
X106139250Y-127936419D01*
X106160074Y-127931203D01*
X106181309Y-127928053D01*
X106202750Y-127927000D01*
X106640250Y-127927000D01*
X106661691Y-127928053D01*
X106661691Y-127928053D01*
G37*
D16*
G04 #@! TD*
G04 #@! TO.P,R6,1*
G04 #@! TO.N,/P1_2*
X106421500Y-128402000D03*
D15*
G04 #@! TO.N,/P31_1*
G04 #@! TO.C,R6*
G36*
X105086691Y-127928053D02*
X105107926Y-127931203D01*
X105128750Y-127936419D01*
X105148962Y-127943651D01*
X105168368Y-127952830D01*
X105186781Y-127963866D01*
X105204024Y-127976654D01*
X105219930Y-127991070D01*
X105234346Y-128006976D01*
X105247134Y-128024219D01*
X105258170Y-128042632D01*
X105267349Y-128062038D01*
X105274581Y-128082250D01*
X105279797Y-128103074D01*
X105282947Y-128124309D01*
X105284000Y-128145750D01*
X105284000Y-128658250D01*
X105282947Y-128679691D01*
X105279797Y-128700926D01*
X105274581Y-128721750D01*
X105267349Y-128741962D01*
X105258170Y-128761368D01*
X105247134Y-128779781D01*
X105234346Y-128797024D01*
X105219930Y-128812930D01*
X105204024Y-128827346D01*
X105186781Y-128840134D01*
X105168368Y-128851170D01*
X105148962Y-128860349D01*
X105128750Y-128867581D01*
X105107926Y-128872797D01*
X105086691Y-128875947D01*
X105065250Y-128877000D01*
X104627750Y-128877000D01*
X104606309Y-128875947D01*
X104585074Y-128872797D01*
X104564250Y-128867581D01*
X104544038Y-128860349D01*
X104524632Y-128851170D01*
X104506219Y-128840134D01*
X104488976Y-128827346D01*
X104473070Y-128812930D01*
X104458654Y-128797024D01*
X104445866Y-128779781D01*
X104434830Y-128761368D01*
X104425651Y-128741962D01*
X104418419Y-128721750D01*
X104413203Y-128700926D01*
X104410053Y-128679691D01*
X104409000Y-128658250D01*
X104409000Y-128145750D01*
X104410053Y-128124309D01*
X104413203Y-128103074D01*
X104418419Y-128082250D01*
X104425651Y-128062038D01*
X104434830Y-128042632D01*
X104445866Y-128024219D01*
X104458654Y-128006976D01*
X104473070Y-127991070D01*
X104488976Y-127976654D01*
X104506219Y-127963866D01*
X104524632Y-127952830D01*
X104544038Y-127943651D01*
X104564250Y-127936419D01*
X104585074Y-127931203D01*
X104606309Y-127928053D01*
X104627750Y-127927000D01*
X105065250Y-127927000D01*
X105086691Y-127928053D01*
X105086691Y-127928053D01*
G37*
D16*
G04 #@! TD*
G04 #@! TO.P,R6,2*
G04 #@! TO.N,/P31_1*
X104846500Y-128402000D03*
D15*
G04 #@! TO.N,/P31_1*
G04 #@! TO.C,R5*
G36*
X105149691Y-124943053D02*
X105170926Y-124946203D01*
X105191750Y-124951419D01*
X105211962Y-124958651D01*
X105231368Y-124967830D01*
X105249781Y-124978866D01*
X105267024Y-124991654D01*
X105282930Y-125006070D01*
X105297346Y-125021976D01*
X105310134Y-125039219D01*
X105321170Y-125057632D01*
X105330349Y-125077038D01*
X105337581Y-125097250D01*
X105342797Y-125118074D01*
X105345947Y-125139309D01*
X105347000Y-125160750D01*
X105347000Y-125598250D01*
X105345947Y-125619691D01*
X105342797Y-125640926D01*
X105337581Y-125661750D01*
X105330349Y-125681962D01*
X105321170Y-125701368D01*
X105310134Y-125719781D01*
X105297346Y-125737024D01*
X105282930Y-125752930D01*
X105267024Y-125767346D01*
X105249781Y-125780134D01*
X105231368Y-125791170D01*
X105211962Y-125800349D01*
X105191750Y-125807581D01*
X105170926Y-125812797D01*
X105149691Y-125815947D01*
X105128250Y-125817000D01*
X104615750Y-125817000D01*
X104594309Y-125815947D01*
X104573074Y-125812797D01*
X104552250Y-125807581D01*
X104532038Y-125800349D01*
X104512632Y-125791170D01*
X104494219Y-125780134D01*
X104476976Y-125767346D01*
X104461070Y-125752930D01*
X104446654Y-125737024D01*
X104433866Y-125719781D01*
X104422830Y-125701368D01*
X104413651Y-125681962D01*
X104406419Y-125661750D01*
X104401203Y-125640926D01*
X104398053Y-125619691D01*
X104397000Y-125598250D01*
X104397000Y-125160750D01*
X104398053Y-125139309D01*
X104401203Y-125118074D01*
X104406419Y-125097250D01*
X104413651Y-125077038D01*
X104422830Y-125057632D01*
X104433866Y-125039219D01*
X104446654Y-125021976D01*
X104461070Y-125006070D01*
X104476976Y-124991654D01*
X104494219Y-124978866D01*
X104512632Y-124967830D01*
X104532038Y-124958651D01*
X104552250Y-124951419D01*
X104573074Y-124946203D01*
X104594309Y-124943053D01*
X104615750Y-124942000D01*
X105128250Y-124942000D01*
X105149691Y-124943053D01*
X105149691Y-124943053D01*
G37*
D16*
G04 #@! TD*
G04 #@! TO.P,R5,2*
G04 #@! TO.N,/P31_1*
X104872000Y-125379500D03*
D15*
G04 #@! TO.N,/P31_2*
G04 #@! TO.C,R5*
G36*
X105149691Y-123368053D02*
X105170926Y-123371203D01*
X105191750Y-123376419D01*
X105211962Y-123383651D01*
X105231368Y-123392830D01*
X105249781Y-123403866D01*
X105267024Y-123416654D01*
X105282930Y-123431070D01*
X105297346Y-123446976D01*
X105310134Y-123464219D01*
X105321170Y-123482632D01*
X105330349Y-123502038D01*
X105337581Y-123522250D01*
X105342797Y-123543074D01*
X105345947Y-123564309D01*
X105347000Y-123585750D01*
X105347000Y-124023250D01*
X105345947Y-124044691D01*
X105342797Y-124065926D01*
X105337581Y-124086750D01*
X105330349Y-124106962D01*
X105321170Y-124126368D01*
X105310134Y-124144781D01*
X105297346Y-124162024D01*
X105282930Y-124177930D01*
X105267024Y-124192346D01*
X105249781Y-124205134D01*
X105231368Y-124216170D01*
X105211962Y-124225349D01*
X105191750Y-124232581D01*
X105170926Y-124237797D01*
X105149691Y-124240947D01*
X105128250Y-124242000D01*
X104615750Y-124242000D01*
X104594309Y-124240947D01*
X104573074Y-124237797D01*
X104552250Y-124232581D01*
X104532038Y-124225349D01*
X104512632Y-124216170D01*
X104494219Y-124205134D01*
X104476976Y-124192346D01*
X104461070Y-124177930D01*
X104446654Y-124162024D01*
X104433866Y-124144781D01*
X104422830Y-124126368D01*
X104413651Y-124106962D01*
X104406419Y-124086750D01*
X104401203Y-124065926D01*
X104398053Y-124044691D01*
X104397000Y-124023250D01*
X104397000Y-123585750D01*
X104398053Y-123564309D01*
X104401203Y-123543074D01*
X104406419Y-123522250D01*
X104413651Y-123502038D01*
X104422830Y-123482632D01*
X104433866Y-123464219D01*
X104446654Y-123446976D01*
X104461070Y-123431070D01*
X104476976Y-123416654D01*
X104494219Y-123403866D01*
X104512632Y-123392830D01*
X104532038Y-123383651D01*
X104552250Y-123376419D01*
X104573074Y-123371203D01*
X104594309Y-123368053D01*
X104615750Y-123367000D01*
X105128250Y-123367000D01*
X105149691Y-123368053D01*
X105149691Y-123368053D01*
G37*
D16*
G04 #@! TD*
G04 #@! TO.P,R5,1*
G04 #@! TO.N,/P31_2*
X104872000Y-123804500D03*
D10*
G04 #@! TO.P,J1,1*
G04 #@! TO.N,VSS*
X110968000Y-143642000D03*
D11*
G04 #@! TO.P,J1,2*
G04 #@! TO.N,/P_A18*
X108428000Y-143642000D03*
G04 #@! TD*
D10*
G04 #@! TO.P,J2,1*
G04 #@! TO.N,/P_RST*
X110968000Y-106812000D03*
D11*
G04 #@! TO.P,J2,2*
G04 #@! TO.N,/P_WE*
X108428000Y-106812000D03*
G04 #@! TD*
D14*
G04 #@! TO.P,U1,1*
G04 #@! TO.N,/P1_1*
X137413000Y-150246000D03*
G04 #@! TO.P,U1,2*
G04 #@! TO.N,/P2*
X137413000Y-147706000D03*
G04 #@! TO.P,U1,3*
G04 #@! TO.N,/P3*
X137413000Y-145166000D03*
G04 #@! TO.P,U1,4*
G04 #@! TO.N,/P4*
X137413000Y-142626000D03*
G04 #@! TO.P,U1,5*
G04 #@! TO.N,/P5*
X137413000Y-140086000D03*
G04 #@! TO.P,U1,6*
G04 #@! TO.N,/P6*
X137413000Y-137546000D03*
G04 #@! TO.P,U1,7*
G04 #@! TO.N,/P7*
X137413000Y-135006000D03*
G04 #@! TO.P,U1,8*
G04 #@! TO.N,/P8*
X137413000Y-132466000D03*
G04 #@! TO.P,U1,9*
G04 #@! TO.N,/P9*
X137413000Y-129926000D03*
G04 #@! TO.P,U1,10*
G04 #@! TO.N,/P10*
X137413000Y-127386000D03*
G04 #@! TO.P,U1,11*
G04 #@! TO.N,VSS*
X137413000Y-124846000D03*
G04 #@! TO.P,U1,12*
G04 #@! TO.N,/P12*
X137413000Y-122306000D03*
G04 #@! TO.P,U1,13*
G04 #@! TO.N,/P13*
X137413000Y-119766000D03*
G04 #@! TO.P,U1,14*
G04 #@! TO.N,/P14*
X137413000Y-117226000D03*
G04 #@! TO.P,U1,15*
G04 #@! TO.N,/P15*
X137413000Y-114686000D03*
G04 #@! TO.P,U1,16*
G04 #@! TO.N,/P16*
X137413000Y-112146000D03*
G04 #@! TO.P,U1,17*
G04 #@! TO.N,/P17*
X137413000Y-109606000D03*
G04 #@! TO.P,U1,18*
G04 #@! TO.N,/P18*
X137413000Y-107066000D03*
G04 #@! TO.P,U1,19*
G04 #@! TO.N,/P19*
X137413000Y-104526000D03*
G04 #@! TO.P,U1,20*
G04 #@! TO.N,/P20*
X137413000Y-101986000D03*
G04 #@! TO.P,U1,21*
G04 #@! TO.N,VCC*
X122173000Y-101986000D03*
G04 #@! TO.P,U1,22*
G04 #@! TO.N,/P22*
X122173000Y-104526000D03*
G04 #@! TO.P,U1,23*
G04 #@! TO.N,/P23*
X122173000Y-107066000D03*
G04 #@! TO.P,U1,24*
G04 #@! TO.N,/P24*
X122173000Y-109606000D03*
G04 #@! TO.P,U1,25*
G04 #@! TO.N,/P25*
X122173000Y-112146000D03*
G04 #@! TO.P,U1,26*
G04 #@! TO.N,/P26*
X122173000Y-114686000D03*
G04 #@! TO.P,U1,27*
G04 #@! TO.N,/P27*
X122173000Y-117226000D03*
G04 #@! TO.P,U1,28*
G04 #@! TO.N,/P28*
X122173000Y-119766000D03*
G04 #@! TO.P,U1,29*
G04 #@! TO.N,/P29*
X122173000Y-122306000D03*
G04 #@! TO.P,U1,30*
G04 #@! TO.N,VSS*
X122173000Y-124846000D03*
G04 #@! TO.P,U1,31*
G04 #@! TO.N,/P31_1*
X122173000Y-127386000D03*
G04 #@! TO.P,U1,32*
G04 #@! TO.N,/P32*
X122173000Y-129926000D03*
G04 #@! TO.P,U1,33*
G04 #@! TO.N,/P33*
X122173000Y-132466000D03*
G04 #@! TO.P,U1,34*
G04 #@! TO.N,/P34*
X122173000Y-135006000D03*
G04 #@! TO.P,U1,35*
G04 #@! TO.N,/P35*
X122173000Y-137546000D03*
G04 #@! TO.P,U1,36*
G04 #@! TO.N,/P36*
X122173000Y-140086000D03*
G04 #@! TO.P,U1,37*
G04 #@! TO.N,/P37*
X122173000Y-142626000D03*
G04 #@! TO.P,U1,38*
G04 #@! TO.N,/P38*
X122173000Y-145166000D03*
G04 #@! TO.P,U1,39*
G04 #@! TO.N,/P39*
X122173000Y-147706000D03*
G04 #@! TO.P,U1,40*
G04 #@! TO.N,/P40*
X122173000Y-150246000D03*
G04 #@! TD*
D15*
G04 #@! TO.N,VCC*
G04 #@! TO.C,R7*
G36*
X127831691Y-121070053D02*
X127852926Y-121073203D01*
X127873750Y-121078419D01*
X127893962Y-121085651D01*
X127913368Y-121094830D01*
X127931781Y-121105866D01*
X127949024Y-121118654D01*
X127964930Y-121133070D01*
X127979346Y-121148976D01*
X127992134Y-121166219D01*
X128003170Y-121184632D01*
X128012349Y-121204038D01*
X128019581Y-121224250D01*
X128024797Y-121245074D01*
X128027947Y-121266309D01*
X128029000Y-121287750D01*
X128029000Y-121800250D01*
X128027947Y-121821691D01*
X128024797Y-121842926D01*
X128019581Y-121863750D01*
X128012349Y-121883962D01*
X128003170Y-121903368D01*
X127992134Y-121921781D01*
X127979346Y-121939024D01*
X127964930Y-121954930D01*
X127949024Y-121969346D01*
X127931781Y-121982134D01*
X127913368Y-121993170D01*
X127893962Y-122002349D01*
X127873750Y-122009581D01*
X127852926Y-122014797D01*
X127831691Y-122017947D01*
X127810250Y-122019000D01*
X127372750Y-122019000D01*
X127351309Y-122017947D01*
X127330074Y-122014797D01*
X127309250Y-122009581D01*
X127289038Y-122002349D01*
X127269632Y-121993170D01*
X127251219Y-121982134D01*
X127233976Y-121969346D01*
X127218070Y-121954930D01*
X127203654Y-121939024D01*
X127190866Y-121921781D01*
X127179830Y-121903368D01*
X127170651Y-121883962D01*
X127163419Y-121863750D01*
X127158203Y-121842926D01*
X127155053Y-121821691D01*
X127154000Y-121800250D01*
X127154000Y-121287750D01*
X127155053Y-121266309D01*
X127158203Y-121245074D01*
X127163419Y-121224250D01*
X127170651Y-121204038D01*
X127179830Y-121184632D01*
X127190866Y-121166219D01*
X127203654Y-121148976D01*
X127218070Y-121133070D01*
X127233976Y-121118654D01*
X127251219Y-121105866D01*
X127269632Y-121094830D01*
X127289038Y-121085651D01*
X127309250Y-121078419D01*
X127330074Y-121073203D01*
X127351309Y-121070053D01*
X127372750Y-121069000D01*
X127810250Y-121069000D01*
X127831691Y-121070053D01*
X127831691Y-121070053D01*
G37*
D16*
G04 #@! TD*
G04 #@! TO.P,R7,2*
G04 #@! TO.N,VCC*
X127591500Y-121544000D03*
D15*
G04 #@! TO.N,/P31_2*
G04 #@! TO.C,R7*
G36*
X126256691Y-121070053D02*
X126277926Y-121073203D01*
X126298750Y-121078419D01*
X126318962Y-121085651D01*
X126338368Y-121094830D01*
X126356781Y-121105866D01*
X126374024Y-121118654D01*
X126389930Y-121133070D01*
X126404346Y-121148976D01*
X126417134Y-121166219D01*
X126428170Y-121184632D01*
X126437349Y-121204038D01*
X126444581Y-121224250D01*
X126449797Y-121245074D01*
X126452947Y-121266309D01*
X126454000Y-121287750D01*
X126454000Y-121800250D01*
X126452947Y-121821691D01*
X126449797Y-121842926D01*
X126444581Y-121863750D01*
X126437349Y-121883962D01*
X126428170Y-121903368D01*
X126417134Y-121921781D01*
X126404346Y-121939024D01*
X126389930Y-121954930D01*
X126374024Y-121969346D01*
X126356781Y-121982134D01*
X126338368Y-121993170D01*
X126318962Y-122002349D01*
X126298750Y-122009581D01*
X126277926Y-122014797D01*
X126256691Y-122017947D01*
X126235250Y-122019000D01*
X125797750Y-122019000D01*
X125776309Y-122017947D01*
X125755074Y-122014797D01*
X125734250Y-122009581D01*
X125714038Y-122002349D01*
X125694632Y-121993170D01*
X125676219Y-121982134D01*
X125658976Y-121969346D01*
X125643070Y-121954930D01*
X125628654Y-121939024D01*
X125615866Y-121921781D01*
X125604830Y-121903368D01*
X125595651Y-121883962D01*
X125588419Y-121863750D01*
X125583203Y-121842926D01*
X125580053Y-121821691D01*
X125579000Y-121800250D01*
X125579000Y-121287750D01*
X125580053Y-121266309D01*
X125583203Y-121245074D01*
X125588419Y-121224250D01*
X125595651Y-121204038D01*
X125604830Y-121184632D01*
X125615866Y-121166219D01*
X125628654Y-121148976D01*
X125643070Y-121133070D01*
X125658976Y-121118654D01*
X125676219Y-121105866D01*
X125694632Y-121094830D01*
X125714038Y-121085651D01*
X125734250Y-121078419D01*
X125755074Y-121073203D01*
X125776309Y-121070053D01*
X125797750Y-121069000D01*
X126235250Y-121069000D01*
X126256691Y-121070053D01*
X126256691Y-121070053D01*
G37*
D16*
G04 #@! TD*
G04 #@! TO.P,R7,1*
G04 #@! TO.N,/P31_2*
X126016500Y-121544000D03*
D15*
G04 #@! TO.N,/P1_2*
G04 #@! TO.C,R6*
G36*
X126561691Y-127928053D02*
X126582926Y-127931203D01*
X126603750Y-127936419D01*
X126623962Y-127943651D01*
X126643368Y-127952830D01*
X126661781Y-127963866D01*
X126679024Y-127976654D01*
X126694930Y-127991070D01*
X126709346Y-128006976D01*
X126722134Y-128024219D01*
X126733170Y-128042632D01*
X126742349Y-128062038D01*
X126749581Y-128082250D01*
X126754797Y-128103074D01*
X126757947Y-128124309D01*
X126759000Y-128145750D01*
X126759000Y-128658250D01*
X126757947Y-128679691D01*
X126754797Y-128700926D01*
X126749581Y-128721750D01*
X126742349Y-128741962D01*
X126733170Y-128761368D01*
X126722134Y-128779781D01*
X126709346Y-128797024D01*
X126694930Y-128812930D01*
X126679024Y-128827346D01*
X126661781Y-128840134D01*
X126643368Y-128851170D01*
X126623962Y-128860349D01*
X126603750Y-128867581D01*
X126582926Y-128872797D01*
X126561691Y-128875947D01*
X126540250Y-128877000D01*
X126102750Y-128877000D01*
X126081309Y-128875947D01*
X126060074Y-128872797D01*
X126039250Y-128867581D01*
X126019038Y-128860349D01*
X125999632Y-128851170D01*
X125981219Y-128840134D01*
X125963976Y-128827346D01*
X125948070Y-128812930D01*
X125933654Y-128797024D01*
X125920866Y-128779781D01*
X125909830Y-128761368D01*
X125900651Y-128741962D01*
X125893419Y-128721750D01*
X125888203Y-128700926D01*
X125885053Y-128679691D01*
X125884000Y-128658250D01*
X125884000Y-128145750D01*
X125885053Y-128124309D01*
X125888203Y-128103074D01*
X125893419Y-128082250D01*
X125900651Y-128062038D01*
X125909830Y-128042632D01*
X125920866Y-128024219D01*
X125933654Y-128006976D01*
X125948070Y-127991070D01*
X125963976Y-127976654D01*
X125981219Y-127963866D01*
X125999632Y-127952830D01*
X126019038Y-127943651D01*
X126039250Y-127936419D01*
X126060074Y-127931203D01*
X126081309Y-127928053D01*
X126102750Y-127927000D01*
X126540250Y-127927000D01*
X126561691Y-127928053D01*
X126561691Y-127928053D01*
G37*
D16*
G04 #@! TD*
G04 #@! TO.P,R6,1*
G04 #@! TO.N,/P1_2*
X126321500Y-128402000D03*
D15*
G04 #@! TO.N,/P31_1*
G04 #@! TO.C,R6*
G36*
X124986691Y-127928053D02*
X125007926Y-127931203D01*
X125028750Y-127936419D01*
X125048962Y-127943651D01*
X125068368Y-127952830D01*
X125086781Y-127963866D01*
X125104024Y-127976654D01*
X125119930Y-127991070D01*
X125134346Y-128006976D01*
X125147134Y-128024219D01*
X125158170Y-128042632D01*
X125167349Y-128062038D01*
X125174581Y-128082250D01*
X125179797Y-128103074D01*
X125182947Y-128124309D01*
X125184000Y-128145750D01*
X125184000Y-128658250D01*
X125182947Y-128679691D01*
X125179797Y-128700926D01*
X125174581Y-128721750D01*
X125167349Y-128741962D01*
X125158170Y-128761368D01*
X125147134Y-128779781D01*
X125134346Y-128797024D01*
X125119930Y-128812930D01*
X125104024Y-128827346D01*
X125086781Y-128840134D01*
X125068368Y-128851170D01*
X125048962Y-128860349D01*
X125028750Y-128867581D01*
X125007926Y-128872797D01*
X124986691Y-128875947D01*
X124965250Y-128877000D01*
X124527750Y-128877000D01*
X124506309Y-128875947D01*
X124485074Y-128872797D01*
X124464250Y-128867581D01*
X124444038Y-128860349D01*
X124424632Y-128851170D01*
X124406219Y-128840134D01*
X124388976Y-128827346D01*
X124373070Y-128812930D01*
X124358654Y-128797024D01*
X124345866Y-128779781D01*
X124334830Y-128761368D01*
X124325651Y-128741962D01*
X124318419Y-128721750D01*
X124313203Y-128700926D01*
X124310053Y-128679691D01*
X124309000Y-128658250D01*
X124309000Y-128145750D01*
X124310053Y-128124309D01*
X124313203Y-128103074D01*
X124318419Y-128082250D01*
X124325651Y-128062038D01*
X124334830Y-128042632D01*
X124345866Y-128024219D01*
X124358654Y-128006976D01*
X124373070Y-127991070D01*
X124388976Y-127976654D01*
X124406219Y-127963866D01*
X124424632Y-127952830D01*
X124444038Y-127943651D01*
X124464250Y-127936419D01*
X124485074Y-127931203D01*
X124506309Y-127928053D01*
X124527750Y-127927000D01*
X124965250Y-127927000D01*
X124986691Y-127928053D01*
X124986691Y-127928053D01*
G37*
D16*
G04 #@! TD*
G04 #@! TO.P,R6,2*
G04 #@! TO.N,/P31_1*
X124746500Y-128402000D03*
D15*
G04 #@! TO.N,/P31_1*
G04 #@! TO.C,R5*
G36*
X125049691Y-124943053D02*
X125070926Y-124946203D01*
X125091750Y-124951419D01*
X125111962Y-124958651D01*
X125131368Y-124967830D01*
X125149781Y-124978866D01*
X125167024Y-124991654D01*
X125182930Y-125006070D01*
X125197346Y-125021976D01*
X125210134Y-125039219D01*
X125221170Y-125057632D01*
X125230349Y-125077038D01*
X125237581Y-125097250D01*
X125242797Y-125118074D01*
X125245947Y-125139309D01*
X125247000Y-125160750D01*
X125247000Y-125598250D01*
X125245947Y-125619691D01*
X125242797Y-125640926D01*
X125237581Y-125661750D01*
X125230349Y-125681962D01*
X125221170Y-125701368D01*
X125210134Y-125719781D01*
X125197346Y-125737024D01*
X125182930Y-125752930D01*
X125167024Y-125767346D01*
X125149781Y-125780134D01*
X125131368Y-125791170D01*
X125111962Y-125800349D01*
X125091750Y-125807581D01*
X125070926Y-125812797D01*
X125049691Y-125815947D01*
X125028250Y-125817000D01*
X124515750Y-125817000D01*
X124494309Y-125815947D01*
X124473074Y-125812797D01*
X124452250Y-125807581D01*
X124432038Y-125800349D01*
X124412632Y-125791170D01*
X124394219Y-125780134D01*
X124376976Y-125767346D01*
X124361070Y-125752930D01*
X124346654Y-125737024D01*
X124333866Y-125719781D01*
X124322830Y-125701368D01*
X124313651Y-125681962D01*
X124306419Y-125661750D01*
X124301203Y-125640926D01*
X124298053Y-125619691D01*
X124297000Y-125598250D01*
X124297000Y-125160750D01*
X124298053Y-125139309D01*
X124301203Y-125118074D01*
X124306419Y-125097250D01*
X124313651Y-125077038D01*
X124322830Y-125057632D01*
X124333866Y-125039219D01*
X124346654Y-125021976D01*
X124361070Y-125006070D01*
X124376976Y-124991654D01*
X124394219Y-124978866D01*
X124412632Y-124967830D01*
X124432038Y-124958651D01*
X124452250Y-124951419D01*
X124473074Y-124946203D01*
X124494309Y-124943053D01*
X124515750Y-124942000D01*
X125028250Y-124942000D01*
X125049691Y-124943053D01*
X125049691Y-124943053D01*
G37*
D16*
G04 #@! TD*
G04 #@! TO.P,R5,2*
G04 #@! TO.N,/P31_1*
X124772000Y-125379500D03*
D15*
G04 #@! TO.N,/P31_2*
G04 #@! TO.C,R5*
G36*
X125049691Y-123368053D02*
X125070926Y-123371203D01*
X125091750Y-123376419D01*
X125111962Y-123383651D01*
X125131368Y-123392830D01*
X125149781Y-123403866D01*
X125167024Y-123416654D01*
X125182930Y-123431070D01*
X125197346Y-123446976D01*
X125210134Y-123464219D01*
X125221170Y-123482632D01*
X125230349Y-123502038D01*
X125237581Y-123522250D01*
X125242797Y-123543074D01*
X125245947Y-123564309D01*
X125247000Y-123585750D01*
X125247000Y-124023250D01*
X125245947Y-124044691D01*
X125242797Y-124065926D01*
X125237581Y-124086750D01*
X125230349Y-124106962D01*
X125221170Y-124126368D01*
X125210134Y-124144781D01*
X125197346Y-124162024D01*
X125182930Y-124177930D01*
X125167024Y-124192346D01*
X125149781Y-124205134D01*
X125131368Y-124216170D01*
X125111962Y-124225349D01*
X125091750Y-124232581D01*
X125070926Y-124237797D01*
X125049691Y-124240947D01*
X125028250Y-124242000D01*
X124515750Y-124242000D01*
X124494309Y-124240947D01*
X124473074Y-124237797D01*
X124452250Y-124232581D01*
X124432038Y-124225349D01*
X124412632Y-124216170D01*
X124394219Y-124205134D01*
X124376976Y-124192346D01*
X124361070Y-124177930D01*
X124346654Y-124162024D01*
X124333866Y-124144781D01*
X124322830Y-124126368D01*
X124313651Y-124106962D01*
X124306419Y-124086750D01*
X124301203Y-124065926D01*
X124298053Y-124044691D01*
X124297000Y-124023250D01*
X124297000Y-123585750D01*
X124298053Y-123564309D01*
X124301203Y-123543074D01*
X124306419Y-123522250D01*
X124313651Y-123502038D01*
X124322830Y-123482632D01*
X124333866Y-123464219D01*
X124346654Y-123446976D01*
X124361070Y-123431070D01*
X124376976Y-123416654D01*
X124394219Y-123403866D01*
X124412632Y-123392830D01*
X124432038Y-123383651D01*
X124452250Y-123376419D01*
X124473074Y-123371203D01*
X124494309Y-123368053D01*
X124515750Y-123367000D01*
X125028250Y-123367000D01*
X125049691Y-123368053D01*
X125049691Y-123368053D01*
G37*
D16*
G04 #@! TD*
G04 #@! TO.P,R5,1*
G04 #@! TO.N,/P31_2*
X124772000Y-123804500D03*
D10*
G04 #@! TO.P,J1,1*
G04 #@! TO.N,VSS*
X130868000Y-143642000D03*
D11*
G04 #@! TO.P,J1,2*
G04 #@! TO.N,/P_A18*
X128328000Y-143642000D03*
G04 #@! TD*
D10*
G04 #@! TO.P,J2,1*
G04 #@! TO.N,/P_RST*
X130868000Y-106812000D03*
D11*
G04 #@! TO.P,J2,2*
G04 #@! TO.N,/P_WE*
X128328000Y-106812000D03*
G04 #@! TD*
D14*
G04 #@! TO.P,U1,1*
G04 #@! TO.N,/P1_1*
X157313000Y-150246000D03*
G04 #@! TO.P,U1,2*
G04 #@! TO.N,/P2*
X157313000Y-147706000D03*
G04 #@! TO.P,U1,3*
G04 #@! TO.N,/P3*
X157313000Y-145166000D03*
G04 #@! TO.P,U1,4*
G04 #@! TO.N,/P4*
X157313000Y-142626000D03*
G04 #@! TO.P,U1,5*
G04 #@! TO.N,/P5*
X157313000Y-140086000D03*
G04 #@! TO.P,U1,6*
G04 #@! TO.N,/P6*
X157313000Y-137546000D03*
G04 #@! TO.P,U1,7*
G04 #@! TO.N,/P7*
X157313000Y-135006000D03*
G04 #@! TO.P,U1,8*
G04 #@! TO.N,/P8*
X157313000Y-132466000D03*
G04 #@! TO.P,U1,9*
G04 #@! TO.N,/P9*
X157313000Y-129926000D03*
G04 #@! TO.P,U1,10*
G04 #@! TO.N,/P10*
X157313000Y-127386000D03*
G04 #@! TO.P,U1,11*
G04 #@! TO.N,VSS*
X157313000Y-124846000D03*
G04 #@! TO.P,U1,12*
G04 #@! TO.N,/P12*
X157313000Y-122306000D03*
G04 #@! TO.P,U1,13*
G04 #@! TO.N,/P13*
X157313000Y-119766000D03*
G04 #@! TO.P,U1,14*
G04 #@! TO.N,/P14*
X157313000Y-117226000D03*
G04 #@! TO.P,U1,15*
G04 #@! TO.N,/P15*
X157313000Y-114686000D03*
G04 #@! TO.P,U1,16*
G04 #@! TO.N,/P16*
X157313000Y-112146000D03*
G04 #@! TO.P,U1,17*
G04 #@! TO.N,/P17*
X157313000Y-109606000D03*
G04 #@! TO.P,U1,18*
G04 #@! TO.N,/P18*
X157313000Y-107066000D03*
G04 #@! TO.P,U1,19*
G04 #@! TO.N,/P19*
X157313000Y-104526000D03*
G04 #@! TO.P,U1,20*
G04 #@! TO.N,/P20*
X157313000Y-101986000D03*
G04 #@! TO.P,U1,21*
G04 #@! TO.N,VCC*
X142073000Y-101986000D03*
G04 #@! TO.P,U1,22*
G04 #@! TO.N,/P22*
X142073000Y-104526000D03*
G04 #@! TO.P,U1,23*
G04 #@! TO.N,/P23*
X142073000Y-107066000D03*
G04 #@! TO.P,U1,24*
G04 #@! TO.N,/P24*
X142073000Y-109606000D03*
G04 #@! TO.P,U1,25*
G04 #@! TO.N,/P25*
X142073000Y-112146000D03*
G04 #@! TO.P,U1,26*
G04 #@! TO.N,/P26*
X142073000Y-114686000D03*
G04 #@! TO.P,U1,27*
G04 #@! TO.N,/P27*
X142073000Y-117226000D03*
G04 #@! TO.P,U1,28*
G04 #@! TO.N,/P28*
X142073000Y-119766000D03*
G04 #@! TO.P,U1,29*
G04 #@! TO.N,/P29*
X142073000Y-122306000D03*
G04 #@! TO.P,U1,30*
G04 #@! TO.N,VSS*
X142073000Y-124846000D03*
G04 #@! TO.P,U1,31*
G04 #@! TO.N,/P31_1*
X142073000Y-127386000D03*
G04 #@! TO.P,U1,32*
G04 #@! TO.N,/P32*
X142073000Y-129926000D03*
G04 #@! TO.P,U1,33*
G04 #@! TO.N,/P33*
X142073000Y-132466000D03*
G04 #@! TO.P,U1,34*
G04 #@! TO.N,/P34*
X142073000Y-135006000D03*
G04 #@! TO.P,U1,35*
G04 #@! TO.N,/P35*
X142073000Y-137546000D03*
G04 #@! TO.P,U1,36*
G04 #@! TO.N,/P36*
X142073000Y-140086000D03*
G04 #@! TO.P,U1,37*
G04 #@! TO.N,/P37*
X142073000Y-142626000D03*
G04 #@! TO.P,U1,38*
G04 #@! TO.N,/P38*
X142073000Y-145166000D03*
G04 #@! TO.P,U1,39*
G04 #@! TO.N,/P39*
X142073000Y-147706000D03*
G04 #@! TO.P,U1,40*
G04 #@! TO.N,/P40*
X142073000Y-150246000D03*
G04 #@! TD*
D15*
G04 #@! TO.N,VCC*
G04 #@! TO.C,R7*
G36*
X147731691Y-121070053D02*
X147752926Y-121073203D01*
X147773750Y-121078419D01*
X147793962Y-121085651D01*
X147813368Y-121094830D01*
X147831781Y-121105866D01*
X147849024Y-121118654D01*
X147864930Y-121133070D01*
X147879346Y-121148976D01*
X147892134Y-121166219D01*
X147903170Y-121184632D01*
X147912349Y-121204038D01*
X147919581Y-121224250D01*
X147924797Y-121245074D01*
X147927947Y-121266309D01*
X147929000Y-121287750D01*
X147929000Y-121800250D01*
X147927947Y-121821691D01*
X147924797Y-121842926D01*
X147919581Y-121863750D01*
X147912349Y-121883962D01*
X147903170Y-121903368D01*
X147892134Y-121921781D01*
X147879346Y-121939024D01*
X147864930Y-121954930D01*
X147849024Y-121969346D01*
X147831781Y-121982134D01*
X147813368Y-121993170D01*
X147793962Y-122002349D01*
X147773750Y-122009581D01*
X147752926Y-122014797D01*
X147731691Y-122017947D01*
X147710250Y-122019000D01*
X147272750Y-122019000D01*
X147251309Y-122017947D01*
X147230074Y-122014797D01*
X147209250Y-122009581D01*
X147189038Y-122002349D01*
X147169632Y-121993170D01*
X147151219Y-121982134D01*
X147133976Y-121969346D01*
X147118070Y-121954930D01*
X147103654Y-121939024D01*
X147090866Y-121921781D01*
X147079830Y-121903368D01*
X147070651Y-121883962D01*
X147063419Y-121863750D01*
X147058203Y-121842926D01*
X147055053Y-121821691D01*
X147054000Y-121800250D01*
X147054000Y-121287750D01*
X147055053Y-121266309D01*
X147058203Y-121245074D01*
X147063419Y-121224250D01*
X147070651Y-121204038D01*
X147079830Y-121184632D01*
X147090866Y-121166219D01*
X147103654Y-121148976D01*
X147118070Y-121133070D01*
X147133976Y-121118654D01*
X147151219Y-121105866D01*
X147169632Y-121094830D01*
X147189038Y-121085651D01*
X147209250Y-121078419D01*
X147230074Y-121073203D01*
X147251309Y-121070053D01*
X147272750Y-121069000D01*
X147710250Y-121069000D01*
X147731691Y-121070053D01*
X147731691Y-121070053D01*
G37*
D16*
G04 #@! TD*
G04 #@! TO.P,R7,2*
G04 #@! TO.N,VCC*
X147491500Y-121544000D03*
D15*
G04 #@! TO.N,/P31_2*
G04 #@! TO.C,R7*
G36*
X146156691Y-121070053D02*
X146177926Y-121073203D01*
X146198750Y-121078419D01*
X146218962Y-121085651D01*
X146238368Y-121094830D01*
X146256781Y-121105866D01*
X146274024Y-121118654D01*
X146289930Y-121133070D01*
X146304346Y-121148976D01*
X146317134Y-121166219D01*
X146328170Y-121184632D01*
X146337349Y-121204038D01*
X146344581Y-121224250D01*
X146349797Y-121245074D01*
X146352947Y-121266309D01*
X146354000Y-121287750D01*
X146354000Y-121800250D01*
X146352947Y-121821691D01*
X146349797Y-121842926D01*
X146344581Y-121863750D01*
X146337349Y-121883962D01*
X146328170Y-121903368D01*
X146317134Y-121921781D01*
X146304346Y-121939024D01*
X146289930Y-121954930D01*
X146274024Y-121969346D01*
X146256781Y-121982134D01*
X146238368Y-121993170D01*
X146218962Y-122002349D01*
X146198750Y-122009581D01*
X146177926Y-122014797D01*
X146156691Y-122017947D01*
X146135250Y-122019000D01*
X145697750Y-122019000D01*
X145676309Y-122017947D01*
X145655074Y-122014797D01*
X145634250Y-122009581D01*
X145614038Y-122002349D01*
X145594632Y-121993170D01*
X145576219Y-121982134D01*
X145558976Y-121969346D01*
X145543070Y-121954930D01*
X145528654Y-121939024D01*
X145515866Y-121921781D01*
X145504830Y-121903368D01*
X145495651Y-121883962D01*
X145488419Y-121863750D01*
X145483203Y-121842926D01*
X145480053Y-121821691D01*
X145479000Y-121800250D01*
X145479000Y-121287750D01*
X145480053Y-121266309D01*
X145483203Y-121245074D01*
X145488419Y-121224250D01*
X145495651Y-121204038D01*
X145504830Y-121184632D01*
X145515866Y-121166219D01*
X145528654Y-121148976D01*
X145543070Y-121133070D01*
X145558976Y-121118654D01*
X145576219Y-121105866D01*
X145594632Y-121094830D01*
X145614038Y-121085651D01*
X145634250Y-121078419D01*
X145655074Y-121073203D01*
X145676309Y-121070053D01*
X145697750Y-121069000D01*
X146135250Y-121069000D01*
X146156691Y-121070053D01*
X146156691Y-121070053D01*
G37*
D16*
G04 #@! TD*
G04 #@! TO.P,R7,1*
G04 #@! TO.N,/P31_2*
X145916500Y-121544000D03*
D15*
G04 #@! TO.N,/P1_2*
G04 #@! TO.C,R6*
G36*
X146461691Y-127928053D02*
X146482926Y-127931203D01*
X146503750Y-127936419D01*
X146523962Y-127943651D01*
X146543368Y-127952830D01*
X146561781Y-127963866D01*
X146579024Y-127976654D01*
X146594930Y-127991070D01*
X146609346Y-128006976D01*
X146622134Y-128024219D01*
X146633170Y-128042632D01*
X146642349Y-128062038D01*
X146649581Y-128082250D01*
X146654797Y-128103074D01*
X146657947Y-128124309D01*
X146659000Y-128145750D01*
X146659000Y-128658250D01*
X146657947Y-128679691D01*
X146654797Y-128700926D01*
X146649581Y-128721750D01*
X146642349Y-128741962D01*
X146633170Y-128761368D01*
X146622134Y-128779781D01*
X146609346Y-128797024D01*
X146594930Y-128812930D01*
X146579024Y-128827346D01*
X146561781Y-128840134D01*
X146543368Y-128851170D01*
X146523962Y-128860349D01*
X146503750Y-128867581D01*
X146482926Y-128872797D01*
X146461691Y-128875947D01*
X146440250Y-128877000D01*
X146002750Y-128877000D01*
X145981309Y-128875947D01*
X145960074Y-128872797D01*
X145939250Y-128867581D01*
X145919038Y-128860349D01*
X145899632Y-128851170D01*
X145881219Y-128840134D01*
X145863976Y-128827346D01*
X145848070Y-128812930D01*
X145833654Y-128797024D01*
X145820866Y-128779781D01*
X145809830Y-128761368D01*
X145800651Y-128741962D01*
X145793419Y-128721750D01*
X145788203Y-128700926D01*
X145785053Y-128679691D01*
X145784000Y-128658250D01*
X145784000Y-128145750D01*
X145785053Y-128124309D01*
X145788203Y-128103074D01*
X145793419Y-128082250D01*
X145800651Y-128062038D01*
X145809830Y-128042632D01*
X145820866Y-128024219D01*
X145833654Y-128006976D01*
X145848070Y-127991070D01*
X145863976Y-127976654D01*
X145881219Y-127963866D01*
X145899632Y-127952830D01*
X145919038Y-127943651D01*
X145939250Y-127936419D01*
X145960074Y-127931203D01*
X145981309Y-127928053D01*
X146002750Y-127927000D01*
X146440250Y-127927000D01*
X146461691Y-127928053D01*
X146461691Y-127928053D01*
G37*
D16*
G04 #@! TD*
G04 #@! TO.P,R6,1*
G04 #@! TO.N,/P1_2*
X146221500Y-128402000D03*
D15*
G04 #@! TO.N,/P31_1*
G04 #@! TO.C,R6*
G36*
X144886691Y-127928053D02*
X144907926Y-127931203D01*
X144928750Y-127936419D01*
X144948962Y-127943651D01*
X144968368Y-127952830D01*
X144986781Y-127963866D01*
X145004024Y-127976654D01*
X145019930Y-127991070D01*
X145034346Y-128006976D01*
X145047134Y-128024219D01*
X145058170Y-128042632D01*
X145067349Y-128062038D01*
X145074581Y-128082250D01*
X145079797Y-128103074D01*
X145082947Y-128124309D01*
X145084000Y-128145750D01*
X145084000Y-128658250D01*
X145082947Y-128679691D01*
X145079797Y-128700926D01*
X145074581Y-128721750D01*
X145067349Y-128741962D01*
X145058170Y-128761368D01*
X145047134Y-128779781D01*
X145034346Y-128797024D01*
X145019930Y-128812930D01*
X145004024Y-128827346D01*
X144986781Y-128840134D01*
X144968368Y-128851170D01*
X144948962Y-128860349D01*
X144928750Y-128867581D01*
X144907926Y-128872797D01*
X144886691Y-128875947D01*
X144865250Y-128877000D01*
X144427750Y-128877000D01*
X144406309Y-128875947D01*
X144385074Y-128872797D01*
X144364250Y-128867581D01*
X144344038Y-128860349D01*
X144324632Y-128851170D01*
X144306219Y-128840134D01*
X144288976Y-128827346D01*
X144273070Y-128812930D01*
X144258654Y-128797024D01*
X144245866Y-128779781D01*
X144234830Y-128761368D01*
X144225651Y-128741962D01*
X144218419Y-128721750D01*
X144213203Y-128700926D01*
X144210053Y-128679691D01*
X144209000Y-128658250D01*
X144209000Y-128145750D01*
X144210053Y-128124309D01*
X144213203Y-128103074D01*
X144218419Y-128082250D01*
X144225651Y-128062038D01*
X144234830Y-128042632D01*
X144245866Y-128024219D01*
X144258654Y-128006976D01*
X144273070Y-127991070D01*
X144288976Y-127976654D01*
X144306219Y-127963866D01*
X144324632Y-127952830D01*
X144344038Y-127943651D01*
X144364250Y-127936419D01*
X144385074Y-127931203D01*
X144406309Y-127928053D01*
X144427750Y-127927000D01*
X144865250Y-127927000D01*
X144886691Y-127928053D01*
X144886691Y-127928053D01*
G37*
D16*
G04 #@! TD*
G04 #@! TO.P,R6,2*
G04 #@! TO.N,/P31_1*
X144646500Y-128402000D03*
D15*
G04 #@! TO.N,/P31_1*
G04 #@! TO.C,R5*
G36*
X144949691Y-124943053D02*
X144970926Y-124946203D01*
X144991750Y-124951419D01*
X145011962Y-124958651D01*
X145031368Y-124967830D01*
X145049781Y-124978866D01*
X145067024Y-124991654D01*
X145082930Y-125006070D01*
X145097346Y-125021976D01*
X145110134Y-125039219D01*
X145121170Y-125057632D01*
X145130349Y-125077038D01*
X145137581Y-125097250D01*
X145142797Y-125118074D01*
X145145947Y-125139309D01*
X145147000Y-125160750D01*
X145147000Y-125598250D01*
X145145947Y-125619691D01*
X145142797Y-125640926D01*
X145137581Y-125661750D01*
X145130349Y-125681962D01*
X145121170Y-125701368D01*
X145110134Y-125719781D01*
X145097346Y-125737024D01*
X145082930Y-125752930D01*
X145067024Y-125767346D01*
X145049781Y-125780134D01*
X145031368Y-125791170D01*
X145011962Y-125800349D01*
X144991750Y-125807581D01*
X144970926Y-125812797D01*
X144949691Y-125815947D01*
X144928250Y-125817000D01*
X144415750Y-125817000D01*
X144394309Y-125815947D01*
X144373074Y-125812797D01*
X144352250Y-125807581D01*
X144332038Y-125800349D01*
X144312632Y-125791170D01*
X144294219Y-125780134D01*
X144276976Y-125767346D01*
X144261070Y-125752930D01*
X144246654Y-125737024D01*
X144233866Y-125719781D01*
X144222830Y-125701368D01*
X144213651Y-125681962D01*
X144206419Y-125661750D01*
X144201203Y-125640926D01*
X144198053Y-125619691D01*
X144197000Y-125598250D01*
X144197000Y-125160750D01*
X144198053Y-125139309D01*
X144201203Y-125118074D01*
X144206419Y-125097250D01*
X144213651Y-125077038D01*
X144222830Y-125057632D01*
X144233866Y-125039219D01*
X144246654Y-125021976D01*
X144261070Y-125006070D01*
X144276976Y-124991654D01*
X144294219Y-124978866D01*
X144312632Y-124967830D01*
X144332038Y-124958651D01*
X144352250Y-124951419D01*
X144373074Y-124946203D01*
X144394309Y-124943053D01*
X144415750Y-124942000D01*
X144928250Y-124942000D01*
X144949691Y-124943053D01*
X144949691Y-124943053D01*
G37*
D16*
G04 #@! TD*
G04 #@! TO.P,R5,2*
G04 #@! TO.N,/P31_1*
X144672000Y-125379500D03*
D15*
G04 #@! TO.N,/P31_2*
G04 #@! TO.C,R5*
G36*
X144949691Y-123368053D02*
X144970926Y-123371203D01*
X144991750Y-123376419D01*
X145011962Y-123383651D01*
X145031368Y-123392830D01*
X145049781Y-123403866D01*
X145067024Y-123416654D01*
X145082930Y-123431070D01*
X145097346Y-123446976D01*
X145110134Y-123464219D01*
X145121170Y-123482632D01*
X145130349Y-123502038D01*
X145137581Y-123522250D01*
X145142797Y-123543074D01*
X145145947Y-123564309D01*
X145147000Y-123585750D01*
X145147000Y-124023250D01*
X145145947Y-124044691D01*
X145142797Y-124065926D01*
X145137581Y-124086750D01*
X145130349Y-124106962D01*
X145121170Y-124126368D01*
X145110134Y-124144781D01*
X145097346Y-124162024D01*
X145082930Y-124177930D01*
X145067024Y-124192346D01*
X145049781Y-124205134D01*
X145031368Y-124216170D01*
X145011962Y-124225349D01*
X144991750Y-124232581D01*
X144970926Y-124237797D01*
X144949691Y-124240947D01*
X144928250Y-124242000D01*
X144415750Y-124242000D01*
X144394309Y-124240947D01*
X144373074Y-124237797D01*
X144352250Y-124232581D01*
X144332038Y-124225349D01*
X144312632Y-124216170D01*
X144294219Y-124205134D01*
X144276976Y-124192346D01*
X144261070Y-124177930D01*
X144246654Y-124162024D01*
X144233866Y-124144781D01*
X144222830Y-124126368D01*
X144213651Y-124106962D01*
X144206419Y-124086750D01*
X144201203Y-124065926D01*
X144198053Y-124044691D01*
X144197000Y-124023250D01*
X144197000Y-123585750D01*
X144198053Y-123564309D01*
X144201203Y-123543074D01*
X144206419Y-123522250D01*
X144213651Y-123502038D01*
X144222830Y-123482632D01*
X144233866Y-123464219D01*
X144246654Y-123446976D01*
X144261070Y-123431070D01*
X144276976Y-123416654D01*
X144294219Y-123403866D01*
X144312632Y-123392830D01*
X144332038Y-123383651D01*
X144352250Y-123376419D01*
X144373074Y-123371203D01*
X144394309Y-123368053D01*
X144415750Y-123367000D01*
X144928250Y-123367000D01*
X144949691Y-123368053D01*
X144949691Y-123368053D01*
G37*
D16*
G04 #@! TD*
G04 #@! TO.P,R5,1*
G04 #@! TO.N,/P31_2*
X144672000Y-123804500D03*
D10*
G04 #@! TO.P,J1,1*
G04 #@! TO.N,VSS*
X150768000Y-143642000D03*
D11*
G04 #@! TO.P,J1,2*
G04 #@! TO.N,/P_A18*
X148228000Y-143642000D03*
G04 #@! TD*
D10*
G04 #@! TO.P,J2,1*
G04 #@! TO.N,/P_RST*
X150768000Y-106812000D03*
D11*
G04 #@! TO.P,J2,2*
G04 #@! TO.N,/P_WE*
X148228000Y-106812000D03*
G04 #@! TD*
D14*
G04 #@! TO.P,U1,1*
G04 #@! TO.N,/P1_1*
X177313000Y-150246000D03*
G04 #@! TO.P,U1,2*
G04 #@! TO.N,/P2*
X177313000Y-147706000D03*
G04 #@! TO.P,U1,3*
G04 #@! TO.N,/P3*
X177313000Y-145166000D03*
G04 #@! TO.P,U1,4*
G04 #@! TO.N,/P4*
X177313000Y-142626000D03*
G04 #@! TO.P,U1,5*
G04 #@! TO.N,/P5*
X177313000Y-140086000D03*
G04 #@! TO.P,U1,6*
G04 #@! TO.N,/P6*
X177313000Y-137546000D03*
G04 #@! TO.P,U1,7*
G04 #@! TO.N,/P7*
X177313000Y-135006000D03*
G04 #@! TO.P,U1,8*
G04 #@! TO.N,/P8*
X177313000Y-132466000D03*
G04 #@! TO.P,U1,9*
G04 #@! TO.N,/P9*
X177313000Y-129926000D03*
G04 #@! TO.P,U1,10*
G04 #@! TO.N,/P10*
X177313000Y-127386000D03*
G04 #@! TO.P,U1,11*
G04 #@! TO.N,VSS*
X177313000Y-124846000D03*
G04 #@! TO.P,U1,12*
G04 #@! TO.N,/P12*
X177313000Y-122306000D03*
G04 #@! TO.P,U1,13*
G04 #@! TO.N,/P13*
X177313000Y-119766000D03*
G04 #@! TO.P,U1,14*
G04 #@! TO.N,/P14*
X177313000Y-117226000D03*
G04 #@! TO.P,U1,15*
G04 #@! TO.N,/P15*
X177313000Y-114686000D03*
G04 #@! TO.P,U1,16*
G04 #@! TO.N,/P16*
X177313000Y-112146000D03*
G04 #@! TO.P,U1,17*
G04 #@! TO.N,/P17*
X177313000Y-109606000D03*
G04 #@! TO.P,U1,18*
G04 #@! TO.N,/P18*
X177313000Y-107066000D03*
G04 #@! TO.P,U1,19*
G04 #@! TO.N,/P19*
X177313000Y-104526000D03*
G04 #@! TO.P,U1,20*
G04 #@! TO.N,/P20*
X177313000Y-101986000D03*
G04 #@! TO.P,U1,21*
G04 #@! TO.N,VCC*
X162073000Y-101986000D03*
G04 #@! TO.P,U1,22*
G04 #@! TO.N,/P22*
X162073000Y-104526000D03*
G04 #@! TO.P,U1,23*
G04 #@! TO.N,/P23*
X162073000Y-107066000D03*
G04 #@! TO.P,U1,24*
G04 #@! TO.N,/P24*
X162073000Y-109606000D03*
G04 #@! TO.P,U1,25*
G04 #@! TO.N,/P25*
X162073000Y-112146000D03*
G04 #@! TO.P,U1,26*
G04 #@! TO.N,/P26*
X162073000Y-114686000D03*
G04 #@! TO.P,U1,27*
G04 #@! TO.N,/P27*
X162073000Y-117226000D03*
G04 #@! TO.P,U1,28*
G04 #@! TO.N,/P28*
X162073000Y-119766000D03*
G04 #@! TO.P,U1,29*
G04 #@! TO.N,/P29*
X162073000Y-122306000D03*
G04 #@! TO.P,U1,30*
G04 #@! TO.N,VSS*
X162073000Y-124846000D03*
G04 #@! TO.P,U1,31*
G04 #@! TO.N,/P31_1*
X162073000Y-127386000D03*
G04 #@! TO.P,U1,32*
G04 #@! TO.N,/P32*
X162073000Y-129926000D03*
G04 #@! TO.P,U1,33*
G04 #@! TO.N,/P33*
X162073000Y-132466000D03*
G04 #@! TO.P,U1,34*
G04 #@! TO.N,/P34*
X162073000Y-135006000D03*
G04 #@! TO.P,U1,35*
G04 #@! TO.N,/P35*
X162073000Y-137546000D03*
G04 #@! TO.P,U1,36*
G04 #@! TO.N,/P36*
X162073000Y-140086000D03*
G04 #@! TO.P,U1,37*
G04 #@! TO.N,/P37*
X162073000Y-142626000D03*
G04 #@! TO.P,U1,38*
G04 #@! TO.N,/P38*
X162073000Y-145166000D03*
G04 #@! TO.P,U1,39*
G04 #@! TO.N,/P39*
X162073000Y-147706000D03*
G04 #@! TO.P,U1,40*
G04 #@! TO.N,/P40*
X162073000Y-150246000D03*
G04 #@! TD*
D15*
G04 #@! TO.N,VCC*
G04 #@! TO.C,R7*
G36*
X167731691Y-121070053D02*
X167752926Y-121073203D01*
X167773750Y-121078419D01*
X167793962Y-121085651D01*
X167813368Y-121094830D01*
X167831781Y-121105866D01*
X167849024Y-121118654D01*
X167864930Y-121133070D01*
X167879346Y-121148976D01*
X167892134Y-121166219D01*
X167903170Y-121184632D01*
X167912349Y-121204038D01*
X167919581Y-121224250D01*
X167924797Y-121245074D01*
X167927947Y-121266309D01*
X167929000Y-121287750D01*
X167929000Y-121800250D01*
X167927947Y-121821691D01*
X167924797Y-121842926D01*
X167919581Y-121863750D01*
X167912349Y-121883962D01*
X167903170Y-121903368D01*
X167892134Y-121921781D01*
X167879346Y-121939024D01*
X167864930Y-121954930D01*
X167849024Y-121969346D01*
X167831781Y-121982134D01*
X167813368Y-121993170D01*
X167793962Y-122002349D01*
X167773750Y-122009581D01*
X167752926Y-122014797D01*
X167731691Y-122017947D01*
X167710250Y-122019000D01*
X167272750Y-122019000D01*
X167251309Y-122017947D01*
X167230074Y-122014797D01*
X167209250Y-122009581D01*
X167189038Y-122002349D01*
X167169632Y-121993170D01*
X167151219Y-121982134D01*
X167133976Y-121969346D01*
X167118070Y-121954930D01*
X167103654Y-121939024D01*
X167090866Y-121921781D01*
X167079830Y-121903368D01*
X167070651Y-121883962D01*
X167063419Y-121863750D01*
X167058203Y-121842926D01*
X167055053Y-121821691D01*
X167054000Y-121800250D01*
X167054000Y-121287750D01*
X167055053Y-121266309D01*
X167058203Y-121245074D01*
X167063419Y-121224250D01*
X167070651Y-121204038D01*
X167079830Y-121184632D01*
X167090866Y-121166219D01*
X167103654Y-121148976D01*
X167118070Y-121133070D01*
X167133976Y-121118654D01*
X167151219Y-121105866D01*
X167169632Y-121094830D01*
X167189038Y-121085651D01*
X167209250Y-121078419D01*
X167230074Y-121073203D01*
X167251309Y-121070053D01*
X167272750Y-121069000D01*
X167710250Y-121069000D01*
X167731691Y-121070053D01*
X167731691Y-121070053D01*
G37*
D16*
G04 #@! TD*
G04 #@! TO.P,R7,2*
G04 #@! TO.N,VCC*
X167491500Y-121544000D03*
D15*
G04 #@! TO.N,/P31_2*
G04 #@! TO.C,R7*
G36*
X166156691Y-121070053D02*
X166177926Y-121073203D01*
X166198750Y-121078419D01*
X166218962Y-121085651D01*
X166238368Y-121094830D01*
X166256781Y-121105866D01*
X166274024Y-121118654D01*
X166289930Y-121133070D01*
X166304346Y-121148976D01*
X166317134Y-121166219D01*
X166328170Y-121184632D01*
X166337349Y-121204038D01*
X166344581Y-121224250D01*
X166349797Y-121245074D01*
X166352947Y-121266309D01*
X166354000Y-121287750D01*
X166354000Y-121800250D01*
X166352947Y-121821691D01*
X166349797Y-121842926D01*
X166344581Y-121863750D01*
X166337349Y-121883962D01*
X166328170Y-121903368D01*
X166317134Y-121921781D01*
X166304346Y-121939024D01*
X166289930Y-121954930D01*
X166274024Y-121969346D01*
X166256781Y-121982134D01*
X166238368Y-121993170D01*
X166218962Y-122002349D01*
X166198750Y-122009581D01*
X166177926Y-122014797D01*
X166156691Y-122017947D01*
X166135250Y-122019000D01*
X165697750Y-122019000D01*
X165676309Y-122017947D01*
X165655074Y-122014797D01*
X165634250Y-122009581D01*
X165614038Y-122002349D01*
X165594632Y-121993170D01*
X165576219Y-121982134D01*
X165558976Y-121969346D01*
X165543070Y-121954930D01*
X165528654Y-121939024D01*
X165515866Y-121921781D01*
X165504830Y-121903368D01*
X165495651Y-121883962D01*
X165488419Y-121863750D01*
X165483203Y-121842926D01*
X165480053Y-121821691D01*
X165479000Y-121800250D01*
X165479000Y-121287750D01*
X165480053Y-121266309D01*
X165483203Y-121245074D01*
X165488419Y-121224250D01*
X165495651Y-121204038D01*
X165504830Y-121184632D01*
X165515866Y-121166219D01*
X165528654Y-121148976D01*
X165543070Y-121133070D01*
X165558976Y-121118654D01*
X165576219Y-121105866D01*
X165594632Y-121094830D01*
X165614038Y-121085651D01*
X165634250Y-121078419D01*
X165655074Y-121073203D01*
X165676309Y-121070053D01*
X165697750Y-121069000D01*
X166135250Y-121069000D01*
X166156691Y-121070053D01*
X166156691Y-121070053D01*
G37*
D16*
G04 #@! TD*
G04 #@! TO.P,R7,1*
G04 #@! TO.N,/P31_2*
X165916500Y-121544000D03*
D15*
G04 #@! TO.N,/P1_2*
G04 #@! TO.C,R6*
G36*
X166461691Y-127928053D02*
X166482926Y-127931203D01*
X166503750Y-127936419D01*
X166523962Y-127943651D01*
X166543368Y-127952830D01*
X166561781Y-127963866D01*
X166579024Y-127976654D01*
X166594930Y-127991070D01*
X166609346Y-128006976D01*
X166622134Y-128024219D01*
X166633170Y-128042632D01*
X166642349Y-128062038D01*
X166649581Y-128082250D01*
X166654797Y-128103074D01*
X166657947Y-128124309D01*
X166659000Y-128145750D01*
X166659000Y-128658250D01*
X166657947Y-128679691D01*
X166654797Y-128700926D01*
X166649581Y-128721750D01*
X166642349Y-128741962D01*
X166633170Y-128761368D01*
X166622134Y-128779781D01*
X166609346Y-128797024D01*
X166594930Y-128812930D01*
X166579024Y-128827346D01*
X166561781Y-128840134D01*
X166543368Y-128851170D01*
X166523962Y-128860349D01*
X166503750Y-128867581D01*
X166482926Y-128872797D01*
X166461691Y-128875947D01*
X166440250Y-128877000D01*
X166002750Y-128877000D01*
X165981309Y-128875947D01*
X165960074Y-128872797D01*
X165939250Y-128867581D01*
X165919038Y-128860349D01*
X165899632Y-128851170D01*
X165881219Y-128840134D01*
X165863976Y-128827346D01*
X165848070Y-128812930D01*
X165833654Y-128797024D01*
X165820866Y-128779781D01*
X165809830Y-128761368D01*
X165800651Y-128741962D01*
X165793419Y-128721750D01*
X165788203Y-128700926D01*
X165785053Y-128679691D01*
X165784000Y-128658250D01*
X165784000Y-128145750D01*
X165785053Y-128124309D01*
X165788203Y-128103074D01*
X165793419Y-128082250D01*
X165800651Y-128062038D01*
X165809830Y-128042632D01*
X165820866Y-128024219D01*
X165833654Y-128006976D01*
X165848070Y-127991070D01*
X165863976Y-127976654D01*
X165881219Y-127963866D01*
X165899632Y-127952830D01*
X165919038Y-127943651D01*
X165939250Y-127936419D01*
X165960074Y-127931203D01*
X165981309Y-127928053D01*
X166002750Y-127927000D01*
X166440250Y-127927000D01*
X166461691Y-127928053D01*
X166461691Y-127928053D01*
G37*
D16*
G04 #@! TD*
G04 #@! TO.P,R6,1*
G04 #@! TO.N,/P1_2*
X166221500Y-128402000D03*
D15*
G04 #@! TO.N,/P31_1*
G04 #@! TO.C,R6*
G36*
X164886691Y-127928053D02*
X164907926Y-127931203D01*
X164928750Y-127936419D01*
X164948962Y-127943651D01*
X164968368Y-127952830D01*
X164986781Y-127963866D01*
X165004024Y-127976654D01*
X165019930Y-127991070D01*
X165034346Y-128006976D01*
X165047134Y-128024219D01*
X165058170Y-128042632D01*
X165067349Y-128062038D01*
X165074581Y-128082250D01*
X165079797Y-128103074D01*
X165082947Y-128124309D01*
X165084000Y-128145750D01*
X165084000Y-128658250D01*
X165082947Y-128679691D01*
X165079797Y-128700926D01*
X165074581Y-128721750D01*
X165067349Y-128741962D01*
X165058170Y-128761368D01*
X165047134Y-128779781D01*
X165034346Y-128797024D01*
X165019930Y-128812930D01*
X165004024Y-128827346D01*
X164986781Y-128840134D01*
X164968368Y-128851170D01*
X164948962Y-128860349D01*
X164928750Y-128867581D01*
X164907926Y-128872797D01*
X164886691Y-128875947D01*
X164865250Y-128877000D01*
X164427750Y-128877000D01*
X164406309Y-128875947D01*
X164385074Y-128872797D01*
X164364250Y-128867581D01*
X164344038Y-128860349D01*
X164324632Y-128851170D01*
X164306219Y-128840134D01*
X164288976Y-128827346D01*
X164273070Y-128812930D01*
X164258654Y-128797024D01*
X164245866Y-128779781D01*
X164234830Y-128761368D01*
X164225651Y-128741962D01*
X164218419Y-128721750D01*
X164213203Y-128700926D01*
X164210053Y-128679691D01*
X164209000Y-128658250D01*
X164209000Y-128145750D01*
X164210053Y-128124309D01*
X164213203Y-128103074D01*
X164218419Y-128082250D01*
X164225651Y-128062038D01*
X164234830Y-128042632D01*
X164245866Y-128024219D01*
X164258654Y-128006976D01*
X164273070Y-127991070D01*
X164288976Y-127976654D01*
X164306219Y-127963866D01*
X164324632Y-127952830D01*
X164344038Y-127943651D01*
X164364250Y-127936419D01*
X164385074Y-127931203D01*
X164406309Y-127928053D01*
X164427750Y-127927000D01*
X164865250Y-127927000D01*
X164886691Y-127928053D01*
X164886691Y-127928053D01*
G37*
D16*
G04 #@! TD*
G04 #@! TO.P,R6,2*
G04 #@! TO.N,/P31_1*
X164646500Y-128402000D03*
D15*
G04 #@! TO.N,/P31_1*
G04 #@! TO.C,R5*
G36*
X164949691Y-124943053D02*
X164970926Y-124946203D01*
X164991750Y-124951419D01*
X165011962Y-124958651D01*
X165031368Y-124967830D01*
X165049781Y-124978866D01*
X165067024Y-124991654D01*
X165082930Y-125006070D01*
X165097346Y-125021976D01*
X165110134Y-125039219D01*
X165121170Y-125057632D01*
X165130349Y-125077038D01*
X165137581Y-125097250D01*
X165142797Y-125118074D01*
X165145947Y-125139309D01*
X165147000Y-125160750D01*
X165147000Y-125598250D01*
X165145947Y-125619691D01*
X165142797Y-125640926D01*
X165137581Y-125661750D01*
X165130349Y-125681962D01*
X165121170Y-125701368D01*
X165110134Y-125719781D01*
X165097346Y-125737024D01*
X165082930Y-125752930D01*
X165067024Y-125767346D01*
X165049781Y-125780134D01*
X165031368Y-125791170D01*
X165011962Y-125800349D01*
X164991750Y-125807581D01*
X164970926Y-125812797D01*
X164949691Y-125815947D01*
X164928250Y-125817000D01*
X164415750Y-125817000D01*
X164394309Y-125815947D01*
X164373074Y-125812797D01*
X164352250Y-125807581D01*
X164332038Y-125800349D01*
X164312632Y-125791170D01*
X164294219Y-125780134D01*
X164276976Y-125767346D01*
X164261070Y-125752930D01*
X164246654Y-125737024D01*
X164233866Y-125719781D01*
X164222830Y-125701368D01*
X164213651Y-125681962D01*
X164206419Y-125661750D01*
X164201203Y-125640926D01*
X164198053Y-125619691D01*
X164197000Y-125598250D01*
X164197000Y-125160750D01*
X164198053Y-125139309D01*
X164201203Y-125118074D01*
X164206419Y-125097250D01*
X164213651Y-125077038D01*
X164222830Y-125057632D01*
X164233866Y-125039219D01*
X164246654Y-125021976D01*
X164261070Y-125006070D01*
X164276976Y-124991654D01*
X164294219Y-124978866D01*
X164312632Y-124967830D01*
X164332038Y-124958651D01*
X164352250Y-124951419D01*
X164373074Y-124946203D01*
X164394309Y-124943053D01*
X164415750Y-124942000D01*
X164928250Y-124942000D01*
X164949691Y-124943053D01*
X164949691Y-124943053D01*
G37*
D16*
G04 #@! TD*
G04 #@! TO.P,R5,2*
G04 #@! TO.N,/P31_1*
X164672000Y-125379500D03*
D15*
G04 #@! TO.N,/P31_2*
G04 #@! TO.C,R5*
G36*
X164949691Y-123368053D02*
X164970926Y-123371203D01*
X164991750Y-123376419D01*
X165011962Y-123383651D01*
X165031368Y-123392830D01*
X165049781Y-123403866D01*
X165067024Y-123416654D01*
X165082930Y-123431070D01*
X165097346Y-123446976D01*
X165110134Y-123464219D01*
X165121170Y-123482632D01*
X165130349Y-123502038D01*
X165137581Y-123522250D01*
X165142797Y-123543074D01*
X165145947Y-123564309D01*
X165147000Y-123585750D01*
X165147000Y-124023250D01*
X165145947Y-124044691D01*
X165142797Y-124065926D01*
X165137581Y-124086750D01*
X165130349Y-124106962D01*
X165121170Y-124126368D01*
X165110134Y-124144781D01*
X165097346Y-124162024D01*
X165082930Y-124177930D01*
X165067024Y-124192346D01*
X165049781Y-124205134D01*
X165031368Y-124216170D01*
X165011962Y-124225349D01*
X164991750Y-124232581D01*
X164970926Y-124237797D01*
X164949691Y-124240947D01*
X164928250Y-124242000D01*
X164415750Y-124242000D01*
X164394309Y-124240947D01*
X164373074Y-124237797D01*
X164352250Y-124232581D01*
X164332038Y-124225349D01*
X164312632Y-124216170D01*
X164294219Y-124205134D01*
X164276976Y-124192346D01*
X164261070Y-124177930D01*
X164246654Y-124162024D01*
X164233866Y-124144781D01*
X164222830Y-124126368D01*
X164213651Y-124106962D01*
X164206419Y-124086750D01*
X164201203Y-124065926D01*
X164198053Y-124044691D01*
X164197000Y-124023250D01*
X164197000Y-123585750D01*
X164198053Y-123564309D01*
X164201203Y-123543074D01*
X164206419Y-123522250D01*
X164213651Y-123502038D01*
X164222830Y-123482632D01*
X164233866Y-123464219D01*
X164246654Y-123446976D01*
X164261070Y-123431070D01*
X164276976Y-123416654D01*
X164294219Y-123403866D01*
X164312632Y-123392830D01*
X164332038Y-123383651D01*
X164352250Y-123376419D01*
X164373074Y-123371203D01*
X164394309Y-123368053D01*
X164415750Y-123367000D01*
X164928250Y-123367000D01*
X164949691Y-123368053D01*
X164949691Y-123368053D01*
G37*
D16*
G04 #@! TD*
G04 #@! TO.P,R5,1*
G04 #@! TO.N,/P31_2*
X164672000Y-123804500D03*
D10*
G04 #@! TO.P,J1,1*
G04 #@! TO.N,VSS*
X170768000Y-143642000D03*
D11*
G04 #@! TO.P,J1,2*
G04 #@! TO.N,/P_A18*
X168228000Y-143642000D03*
G04 #@! TD*
D10*
G04 #@! TO.P,J2,1*
G04 #@! TO.N,/P_RST*
X170768000Y-106812000D03*
D11*
G04 #@! TO.P,J2,2*
G04 #@! TO.N,/P_WE*
X168228000Y-106812000D03*
G04 #@! TD*
D14*
G04 #@! TO.P,U1,1*
G04 #@! TO.N,/P1_1*
X197413000Y-150246000D03*
G04 #@! TO.P,U1,2*
G04 #@! TO.N,/P2*
X197413000Y-147706000D03*
G04 #@! TO.P,U1,3*
G04 #@! TO.N,/P3*
X197413000Y-145166000D03*
G04 #@! TO.P,U1,4*
G04 #@! TO.N,/P4*
X197413000Y-142626000D03*
G04 #@! TO.P,U1,5*
G04 #@! TO.N,/P5*
X197413000Y-140086000D03*
G04 #@! TO.P,U1,6*
G04 #@! TO.N,/P6*
X197413000Y-137546000D03*
G04 #@! TO.P,U1,7*
G04 #@! TO.N,/P7*
X197413000Y-135006000D03*
G04 #@! TO.P,U1,8*
G04 #@! TO.N,/P8*
X197413000Y-132466000D03*
G04 #@! TO.P,U1,9*
G04 #@! TO.N,/P9*
X197413000Y-129926000D03*
G04 #@! TO.P,U1,10*
G04 #@! TO.N,/P10*
X197413000Y-127386000D03*
G04 #@! TO.P,U1,11*
G04 #@! TO.N,VSS*
X197413000Y-124846000D03*
G04 #@! TO.P,U1,12*
G04 #@! TO.N,/P12*
X197413000Y-122306000D03*
G04 #@! TO.P,U1,13*
G04 #@! TO.N,/P13*
X197413000Y-119766000D03*
G04 #@! TO.P,U1,14*
G04 #@! TO.N,/P14*
X197413000Y-117226000D03*
G04 #@! TO.P,U1,15*
G04 #@! TO.N,/P15*
X197413000Y-114686000D03*
G04 #@! TO.P,U1,16*
G04 #@! TO.N,/P16*
X197413000Y-112146000D03*
G04 #@! TO.P,U1,17*
G04 #@! TO.N,/P17*
X197413000Y-109606000D03*
G04 #@! TO.P,U1,18*
G04 #@! TO.N,/P18*
X197413000Y-107066000D03*
G04 #@! TO.P,U1,19*
G04 #@! TO.N,/P19*
X197413000Y-104526000D03*
G04 #@! TO.P,U1,20*
G04 #@! TO.N,/P20*
X197413000Y-101986000D03*
G04 #@! TO.P,U1,21*
G04 #@! TO.N,VCC*
X182173000Y-101986000D03*
G04 #@! TO.P,U1,22*
G04 #@! TO.N,/P22*
X182173000Y-104526000D03*
G04 #@! TO.P,U1,23*
G04 #@! TO.N,/P23*
X182173000Y-107066000D03*
G04 #@! TO.P,U1,24*
G04 #@! TO.N,/P24*
X182173000Y-109606000D03*
G04 #@! TO.P,U1,25*
G04 #@! TO.N,/P25*
X182173000Y-112146000D03*
G04 #@! TO.P,U1,26*
G04 #@! TO.N,/P26*
X182173000Y-114686000D03*
G04 #@! TO.P,U1,27*
G04 #@! TO.N,/P27*
X182173000Y-117226000D03*
G04 #@! TO.P,U1,28*
G04 #@! TO.N,/P28*
X182173000Y-119766000D03*
G04 #@! TO.P,U1,29*
G04 #@! TO.N,/P29*
X182173000Y-122306000D03*
G04 #@! TO.P,U1,30*
G04 #@! TO.N,VSS*
X182173000Y-124846000D03*
G04 #@! TO.P,U1,31*
G04 #@! TO.N,/P31_1*
X182173000Y-127386000D03*
G04 #@! TO.P,U1,32*
G04 #@! TO.N,/P32*
X182173000Y-129926000D03*
G04 #@! TO.P,U1,33*
G04 #@! TO.N,/P33*
X182173000Y-132466000D03*
G04 #@! TO.P,U1,34*
G04 #@! TO.N,/P34*
X182173000Y-135006000D03*
G04 #@! TO.P,U1,35*
G04 #@! TO.N,/P35*
X182173000Y-137546000D03*
G04 #@! TO.P,U1,36*
G04 #@! TO.N,/P36*
X182173000Y-140086000D03*
G04 #@! TO.P,U1,37*
G04 #@! TO.N,/P37*
X182173000Y-142626000D03*
G04 #@! TO.P,U1,38*
G04 #@! TO.N,/P38*
X182173000Y-145166000D03*
G04 #@! TO.P,U1,39*
G04 #@! TO.N,/P39*
X182173000Y-147706000D03*
G04 #@! TO.P,U1,40*
G04 #@! TO.N,/P40*
X182173000Y-150246000D03*
G04 #@! TD*
D15*
G04 #@! TO.N,VCC*
G04 #@! TO.C,R7*
G36*
X187831691Y-121070053D02*
X187852926Y-121073203D01*
X187873750Y-121078419D01*
X187893962Y-121085651D01*
X187913368Y-121094830D01*
X187931781Y-121105866D01*
X187949024Y-121118654D01*
X187964930Y-121133070D01*
X187979346Y-121148976D01*
X187992134Y-121166219D01*
X188003170Y-121184632D01*
X188012349Y-121204038D01*
X188019581Y-121224250D01*
X188024797Y-121245074D01*
X188027947Y-121266309D01*
X188029000Y-121287750D01*
X188029000Y-121800250D01*
X188027947Y-121821691D01*
X188024797Y-121842926D01*
X188019581Y-121863750D01*
X188012349Y-121883962D01*
X188003170Y-121903368D01*
X187992134Y-121921781D01*
X187979346Y-121939024D01*
X187964930Y-121954930D01*
X187949024Y-121969346D01*
X187931781Y-121982134D01*
X187913368Y-121993170D01*
X187893962Y-122002349D01*
X187873750Y-122009581D01*
X187852926Y-122014797D01*
X187831691Y-122017947D01*
X187810250Y-122019000D01*
X187372750Y-122019000D01*
X187351309Y-122017947D01*
X187330074Y-122014797D01*
X187309250Y-122009581D01*
X187289038Y-122002349D01*
X187269632Y-121993170D01*
X187251219Y-121982134D01*
X187233976Y-121969346D01*
X187218070Y-121954930D01*
X187203654Y-121939024D01*
X187190866Y-121921781D01*
X187179830Y-121903368D01*
X187170651Y-121883962D01*
X187163419Y-121863750D01*
X187158203Y-121842926D01*
X187155053Y-121821691D01*
X187154000Y-121800250D01*
X187154000Y-121287750D01*
X187155053Y-121266309D01*
X187158203Y-121245074D01*
X187163419Y-121224250D01*
X187170651Y-121204038D01*
X187179830Y-121184632D01*
X187190866Y-121166219D01*
X187203654Y-121148976D01*
X187218070Y-121133070D01*
X187233976Y-121118654D01*
X187251219Y-121105866D01*
X187269632Y-121094830D01*
X187289038Y-121085651D01*
X187309250Y-121078419D01*
X187330074Y-121073203D01*
X187351309Y-121070053D01*
X187372750Y-121069000D01*
X187810250Y-121069000D01*
X187831691Y-121070053D01*
X187831691Y-121070053D01*
G37*
D16*
G04 #@! TD*
G04 #@! TO.P,R7,2*
G04 #@! TO.N,VCC*
X187591500Y-121544000D03*
D15*
G04 #@! TO.N,/P31_2*
G04 #@! TO.C,R7*
G36*
X186256691Y-121070053D02*
X186277926Y-121073203D01*
X186298750Y-121078419D01*
X186318962Y-121085651D01*
X186338368Y-121094830D01*
X186356781Y-121105866D01*
X186374024Y-121118654D01*
X186389930Y-121133070D01*
X186404346Y-121148976D01*
X186417134Y-121166219D01*
X186428170Y-121184632D01*
X186437349Y-121204038D01*
X186444581Y-121224250D01*
X186449797Y-121245074D01*
X186452947Y-121266309D01*
X186454000Y-121287750D01*
X186454000Y-121800250D01*
X186452947Y-121821691D01*
X186449797Y-121842926D01*
X186444581Y-121863750D01*
X186437349Y-121883962D01*
X186428170Y-121903368D01*
X186417134Y-121921781D01*
X186404346Y-121939024D01*
X186389930Y-121954930D01*
X186374024Y-121969346D01*
X186356781Y-121982134D01*
X186338368Y-121993170D01*
X186318962Y-122002349D01*
X186298750Y-122009581D01*
X186277926Y-122014797D01*
X186256691Y-122017947D01*
X186235250Y-122019000D01*
X185797750Y-122019000D01*
X185776309Y-122017947D01*
X185755074Y-122014797D01*
X185734250Y-122009581D01*
X185714038Y-122002349D01*
X185694632Y-121993170D01*
X185676219Y-121982134D01*
X185658976Y-121969346D01*
X185643070Y-121954930D01*
X185628654Y-121939024D01*
X185615866Y-121921781D01*
X185604830Y-121903368D01*
X185595651Y-121883962D01*
X185588419Y-121863750D01*
X185583203Y-121842926D01*
X185580053Y-121821691D01*
X185579000Y-121800250D01*
X185579000Y-121287750D01*
X185580053Y-121266309D01*
X185583203Y-121245074D01*
X185588419Y-121224250D01*
X185595651Y-121204038D01*
X185604830Y-121184632D01*
X185615866Y-121166219D01*
X185628654Y-121148976D01*
X185643070Y-121133070D01*
X185658976Y-121118654D01*
X185676219Y-121105866D01*
X185694632Y-121094830D01*
X185714038Y-121085651D01*
X185734250Y-121078419D01*
X185755074Y-121073203D01*
X185776309Y-121070053D01*
X185797750Y-121069000D01*
X186235250Y-121069000D01*
X186256691Y-121070053D01*
X186256691Y-121070053D01*
G37*
D16*
G04 #@! TD*
G04 #@! TO.P,R7,1*
G04 #@! TO.N,/P31_2*
X186016500Y-121544000D03*
D15*
G04 #@! TO.N,/P1_2*
G04 #@! TO.C,R6*
G36*
X186561691Y-127928053D02*
X186582926Y-127931203D01*
X186603750Y-127936419D01*
X186623962Y-127943651D01*
X186643368Y-127952830D01*
X186661781Y-127963866D01*
X186679024Y-127976654D01*
X186694930Y-127991070D01*
X186709346Y-128006976D01*
X186722134Y-128024219D01*
X186733170Y-128042632D01*
X186742349Y-128062038D01*
X186749581Y-128082250D01*
X186754797Y-128103074D01*
X186757947Y-128124309D01*
X186759000Y-128145750D01*
X186759000Y-128658250D01*
X186757947Y-128679691D01*
X186754797Y-128700926D01*
X186749581Y-128721750D01*
X186742349Y-128741962D01*
X186733170Y-128761368D01*
X186722134Y-128779781D01*
X186709346Y-128797024D01*
X186694930Y-128812930D01*
X186679024Y-128827346D01*
X186661781Y-128840134D01*
X186643368Y-128851170D01*
X186623962Y-128860349D01*
X186603750Y-128867581D01*
X186582926Y-128872797D01*
X186561691Y-128875947D01*
X186540250Y-128877000D01*
X186102750Y-128877000D01*
X186081309Y-128875947D01*
X186060074Y-128872797D01*
X186039250Y-128867581D01*
X186019038Y-128860349D01*
X185999632Y-128851170D01*
X185981219Y-128840134D01*
X185963976Y-128827346D01*
X185948070Y-128812930D01*
X185933654Y-128797024D01*
X185920866Y-128779781D01*
X185909830Y-128761368D01*
X185900651Y-128741962D01*
X185893419Y-128721750D01*
X185888203Y-128700926D01*
X185885053Y-128679691D01*
X185884000Y-128658250D01*
X185884000Y-128145750D01*
X185885053Y-128124309D01*
X185888203Y-128103074D01*
X185893419Y-128082250D01*
X185900651Y-128062038D01*
X185909830Y-128042632D01*
X185920866Y-128024219D01*
X185933654Y-128006976D01*
X185948070Y-127991070D01*
X185963976Y-127976654D01*
X185981219Y-127963866D01*
X185999632Y-127952830D01*
X186019038Y-127943651D01*
X186039250Y-127936419D01*
X186060074Y-127931203D01*
X186081309Y-127928053D01*
X186102750Y-127927000D01*
X186540250Y-127927000D01*
X186561691Y-127928053D01*
X186561691Y-127928053D01*
G37*
D16*
G04 #@! TD*
G04 #@! TO.P,R6,1*
G04 #@! TO.N,/P1_2*
X186321500Y-128402000D03*
D15*
G04 #@! TO.N,/P31_1*
G04 #@! TO.C,R6*
G36*
X184986691Y-127928053D02*
X185007926Y-127931203D01*
X185028750Y-127936419D01*
X185048962Y-127943651D01*
X185068368Y-127952830D01*
X185086781Y-127963866D01*
X185104024Y-127976654D01*
X185119930Y-127991070D01*
X185134346Y-128006976D01*
X185147134Y-128024219D01*
X185158170Y-128042632D01*
X185167349Y-128062038D01*
X185174581Y-128082250D01*
X185179797Y-128103074D01*
X185182947Y-128124309D01*
X185184000Y-128145750D01*
X185184000Y-128658250D01*
X185182947Y-128679691D01*
X185179797Y-128700926D01*
X185174581Y-128721750D01*
X185167349Y-128741962D01*
X185158170Y-128761368D01*
X185147134Y-128779781D01*
X185134346Y-128797024D01*
X185119930Y-128812930D01*
X185104024Y-128827346D01*
X185086781Y-128840134D01*
X185068368Y-128851170D01*
X185048962Y-128860349D01*
X185028750Y-128867581D01*
X185007926Y-128872797D01*
X184986691Y-128875947D01*
X184965250Y-128877000D01*
X184527750Y-128877000D01*
X184506309Y-128875947D01*
X184485074Y-128872797D01*
X184464250Y-128867581D01*
X184444038Y-128860349D01*
X184424632Y-128851170D01*
X184406219Y-128840134D01*
X184388976Y-128827346D01*
X184373070Y-128812930D01*
X184358654Y-128797024D01*
X184345866Y-128779781D01*
X184334830Y-128761368D01*
X184325651Y-128741962D01*
X184318419Y-128721750D01*
X184313203Y-128700926D01*
X184310053Y-128679691D01*
X184309000Y-128658250D01*
X184309000Y-128145750D01*
X184310053Y-128124309D01*
X184313203Y-128103074D01*
X184318419Y-128082250D01*
X184325651Y-128062038D01*
X184334830Y-128042632D01*
X184345866Y-128024219D01*
X184358654Y-128006976D01*
X184373070Y-127991070D01*
X184388976Y-127976654D01*
X184406219Y-127963866D01*
X184424632Y-127952830D01*
X184444038Y-127943651D01*
X184464250Y-127936419D01*
X184485074Y-127931203D01*
X184506309Y-127928053D01*
X184527750Y-127927000D01*
X184965250Y-127927000D01*
X184986691Y-127928053D01*
X184986691Y-127928053D01*
G37*
D16*
G04 #@! TD*
G04 #@! TO.P,R6,2*
G04 #@! TO.N,/P31_1*
X184746500Y-128402000D03*
D15*
G04 #@! TO.N,/P31_1*
G04 #@! TO.C,R5*
G36*
X185049691Y-124943053D02*
X185070926Y-124946203D01*
X185091750Y-124951419D01*
X185111962Y-124958651D01*
X185131368Y-124967830D01*
X185149781Y-124978866D01*
X185167024Y-124991654D01*
X185182930Y-125006070D01*
X185197346Y-125021976D01*
X185210134Y-125039219D01*
X185221170Y-125057632D01*
X185230349Y-125077038D01*
X185237581Y-125097250D01*
X185242797Y-125118074D01*
X185245947Y-125139309D01*
X185247000Y-125160750D01*
X185247000Y-125598250D01*
X185245947Y-125619691D01*
X185242797Y-125640926D01*
X185237581Y-125661750D01*
X185230349Y-125681962D01*
X185221170Y-125701368D01*
X185210134Y-125719781D01*
X185197346Y-125737024D01*
X185182930Y-125752930D01*
X185167024Y-125767346D01*
X185149781Y-125780134D01*
X185131368Y-125791170D01*
X185111962Y-125800349D01*
X185091750Y-125807581D01*
X185070926Y-125812797D01*
X185049691Y-125815947D01*
X185028250Y-125817000D01*
X184515750Y-125817000D01*
X184494309Y-125815947D01*
X184473074Y-125812797D01*
X184452250Y-125807581D01*
X184432038Y-125800349D01*
X184412632Y-125791170D01*
X184394219Y-125780134D01*
X184376976Y-125767346D01*
X184361070Y-125752930D01*
X184346654Y-125737024D01*
X184333866Y-125719781D01*
X184322830Y-125701368D01*
X184313651Y-125681962D01*
X184306419Y-125661750D01*
X184301203Y-125640926D01*
X184298053Y-125619691D01*
X184297000Y-125598250D01*
X184297000Y-125160750D01*
X184298053Y-125139309D01*
X184301203Y-125118074D01*
X184306419Y-125097250D01*
X184313651Y-125077038D01*
X184322830Y-125057632D01*
X184333866Y-125039219D01*
X184346654Y-125021976D01*
X184361070Y-125006070D01*
X184376976Y-124991654D01*
X184394219Y-124978866D01*
X184412632Y-124967830D01*
X184432038Y-124958651D01*
X184452250Y-124951419D01*
X184473074Y-124946203D01*
X184494309Y-124943053D01*
X184515750Y-124942000D01*
X185028250Y-124942000D01*
X185049691Y-124943053D01*
X185049691Y-124943053D01*
G37*
D16*
G04 #@! TD*
G04 #@! TO.P,R5,2*
G04 #@! TO.N,/P31_1*
X184772000Y-125379500D03*
D15*
G04 #@! TO.N,/P31_2*
G04 #@! TO.C,R5*
G36*
X185049691Y-123368053D02*
X185070926Y-123371203D01*
X185091750Y-123376419D01*
X185111962Y-123383651D01*
X185131368Y-123392830D01*
X185149781Y-123403866D01*
X185167024Y-123416654D01*
X185182930Y-123431070D01*
X185197346Y-123446976D01*
X185210134Y-123464219D01*
X185221170Y-123482632D01*
X185230349Y-123502038D01*
X185237581Y-123522250D01*
X185242797Y-123543074D01*
X185245947Y-123564309D01*
X185247000Y-123585750D01*
X185247000Y-124023250D01*
X185245947Y-124044691D01*
X185242797Y-124065926D01*
X185237581Y-124086750D01*
X185230349Y-124106962D01*
X185221170Y-124126368D01*
X185210134Y-124144781D01*
X185197346Y-124162024D01*
X185182930Y-124177930D01*
X185167024Y-124192346D01*
X185149781Y-124205134D01*
X185131368Y-124216170D01*
X185111962Y-124225349D01*
X185091750Y-124232581D01*
X185070926Y-124237797D01*
X185049691Y-124240947D01*
X185028250Y-124242000D01*
X184515750Y-124242000D01*
X184494309Y-124240947D01*
X184473074Y-124237797D01*
X184452250Y-124232581D01*
X184432038Y-124225349D01*
X184412632Y-124216170D01*
X184394219Y-124205134D01*
X184376976Y-124192346D01*
X184361070Y-124177930D01*
X184346654Y-124162024D01*
X184333866Y-124144781D01*
X184322830Y-124126368D01*
X184313651Y-124106962D01*
X184306419Y-124086750D01*
X184301203Y-124065926D01*
X184298053Y-124044691D01*
X184297000Y-124023250D01*
X184297000Y-123585750D01*
X184298053Y-123564309D01*
X184301203Y-123543074D01*
X184306419Y-123522250D01*
X184313651Y-123502038D01*
X184322830Y-123482632D01*
X184333866Y-123464219D01*
X184346654Y-123446976D01*
X184361070Y-123431070D01*
X184376976Y-123416654D01*
X184394219Y-123403866D01*
X184412632Y-123392830D01*
X184432038Y-123383651D01*
X184452250Y-123376419D01*
X184473074Y-123371203D01*
X184494309Y-123368053D01*
X184515750Y-123367000D01*
X185028250Y-123367000D01*
X185049691Y-123368053D01*
X185049691Y-123368053D01*
G37*
D16*
G04 #@! TD*
G04 #@! TO.P,R5,1*
G04 #@! TO.N,/P31_2*
X184772000Y-123804500D03*
D10*
G04 #@! TO.P,J1,1*
G04 #@! TO.N,VSS*
X190868000Y-143642000D03*
D11*
G04 #@! TO.P,J1,2*
G04 #@! TO.N,/P_A18*
X188328000Y-143642000D03*
G04 #@! TD*
D10*
G04 #@! TO.P,J2,1*
G04 #@! TO.N,/P_RST*
X190868000Y-106812000D03*
D11*
G04 #@! TO.P,J2,2*
G04 #@! TO.N,/P_WE*
X188328000Y-106812000D03*
G04 #@! TD*
D17*
G04 #@! TO.N,/P28*
X106520300Y-118294900D03*
X126420300Y-118294900D03*
X146320300Y-118294900D03*
X166320300Y-118294900D03*
X186420300Y-118294900D03*
G04 #@! TO.N,/P10*
X115202000Y-125604600D03*
X135102000Y-125604600D03*
X155002000Y-125604600D03*
X175002000Y-125604600D03*
X195102000Y-125604600D03*
G04 #@! TO.N,/P8*
X160908958Y-189805791D03*
G04 #@! TO.N,/P16*
X169321158Y-190338791D03*
G04 #@! TO.N,/P7*
X115372500Y-135386100D03*
X135272500Y-135386100D03*
X155172500Y-135386100D03*
X175172500Y-135386100D03*
X195272500Y-135386100D03*
G04 #@! TO.N,/P12*
X165648258Y-190321591D03*
X113851900Y-118295000D03*
X133751900Y-118295000D03*
X153651900Y-118295000D03*
X173651900Y-118295000D03*
X193751900Y-118295000D03*
G04 #@! TO.N,/P36*
X175362958Y-168022991D03*
G04 #@! TO.N,/P_WE*
X108550200Y-119777000D03*
X128450200Y-119777000D03*
X148350200Y-119777000D03*
X168350200Y-119777000D03*
X188450200Y-119777000D03*
G04 #@! TO.N,/P_RST*
X109359100Y-120390600D03*
X129259100Y-120390600D03*
X149159100Y-120390600D03*
X169159100Y-120390600D03*
X189259100Y-120390600D03*
G04 #@! TO.N,VCC*
X110434500Y-138066600D03*
X130334500Y-138066600D03*
X150234500Y-138066600D03*
X170234500Y-138066600D03*
X190334500Y-138066600D03*
G04 #@! TO.N,VSS*
X110652100Y-109313100D03*
X111737500Y-119042100D03*
X130552100Y-109313100D03*
X131637500Y-119042100D03*
X150452100Y-109313100D03*
X151537500Y-119042100D03*
X170452100Y-109313100D03*
X171537500Y-119042100D03*
X190552100Y-109313100D03*
X191637500Y-119042100D03*
G04 #@! TO.N,/P1_2*
X110115300Y-133510800D03*
X130015300Y-133510800D03*
X149915300Y-133510800D03*
X169915300Y-133510800D03*
X190015300Y-133510800D03*
G04 #@! TO.N,/P31_2*
X104950900Y-120378400D03*
X124850900Y-120378400D03*
X144750900Y-120378400D03*
X164750900Y-120378400D03*
X184850900Y-120378400D03*
G04 #@! TD*
D18*
G04 #@! TO.N,/A6*
X131495237Y-159902313D02*
X132670537Y-159902313D01*
X132670537Y-159902313D02*
X132750537Y-159982313D01*
X132750537Y-159982313D02*
X142995237Y-159982313D01*
G04 #@! TO.N,/A5*
X131495237Y-162442313D02*
X131495237Y-163617613D01*
X120095237Y-182002313D02*
X120095237Y-180827013D01*
X120095237Y-180827013D02*
X120903337Y-180827013D01*
X120903337Y-180827013D02*
X121270537Y-180459813D01*
X121270537Y-180459813D02*
X121270537Y-179156613D01*
X121270537Y-179156613D02*
X122187037Y-178240113D01*
X122187037Y-178240113D02*
X124130837Y-178240113D01*
X124130837Y-178240113D02*
X127291637Y-175079313D01*
X127291637Y-175079313D02*
X127291637Y-172603513D01*
X127291637Y-172603513D02*
X128657437Y-171237713D01*
X128657437Y-171237713D02*
X129539337Y-171237713D01*
X129539337Y-171237713D02*
X130319937Y-170457113D01*
X130319937Y-170457113D02*
X130319937Y-164425513D01*
X130319937Y-164425513D02*
X131127837Y-163617613D01*
X131127837Y-163617613D02*
X131495237Y-163617613D01*
X131495237Y-162442313D02*
X132670537Y-162442313D01*
X132670537Y-162442313D02*
X132750537Y-162522313D01*
X132750537Y-162522313D02*
X142995237Y-162522313D01*
G04 #@! TO.N,/A4*
X131495237Y-164982313D02*
X132670537Y-164982313D01*
X132670537Y-164982313D02*
X132750537Y-165062313D01*
X132750537Y-165062313D02*
X142995237Y-165062313D01*
G04 #@! TO.N,/A11*
X132670537Y-170062313D02*
X132750537Y-170142313D01*
X132750537Y-170142313D02*
X142995237Y-170142313D01*
X131495237Y-170062313D02*
X132670537Y-170062313D01*
G04 #@! TO.N,/A12*
X131495237Y-167522313D02*
X132670537Y-167522313D01*
X132670537Y-167522313D02*
X132750537Y-167602313D01*
X132750537Y-167602313D02*
X142995237Y-167602313D01*
G04 #@! TO.N,/A1*
X142995237Y-172682313D02*
X141819937Y-172682313D01*
X131495237Y-172602313D02*
X141739937Y-172602313D01*
X141739937Y-172602313D02*
X141819937Y-172682313D01*
G04 #@! TO.N,/A0*
X142995237Y-175222313D02*
X141819937Y-175222313D01*
X131495237Y-175142313D02*
X141739937Y-175142313D01*
X141739937Y-175142313D02*
X141819937Y-175222313D01*
X130907537Y-175142313D02*
X131495237Y-175142313D01*
X130907537Y-175142313D02*
X130319937Y-175142313D01*
X122635237Y-182002313D02*
X123827237Y-182002313D01*
X123827237Y-182002313D02*
X130319937Y-175509613D01*
X130319937Y-175509613D02*
X130319937Y-175142313D01*
G04 #@! TO.N,/A7*
X131495237Y-157362313D02*
X132670537Y-157362313D01*
X132670537Y-157362313D02*
X132750537Y-157442313D01*
X132750537Y-157442313D02*
X142995237Y-157442313D01*
G04 #@! TO.N,GND*
X123810537Y-179462313D02*
X127779937Y-175492913D01*
X127779937Y-175492913D02*
X127779937Y-175142313D01*
X122635237Y-179462313D02*
X123810537Y-179462313D01*
X128955237Y-175142313D02*
X127779937Y-175142313D01*
G04 #@! TO.N,/5V*
X142995237Y-187922313D02*
X141819937Y-187922313D01*
X120095237Y-179462313D02*
X118883037Y-180674513D01*
X118883037Y-180674513D02*
X118883037Y-182454913D01*
X118883037Y-182454913D02*
X119616237Y-183188113D01*
X119616237Y-183188113D02*
X137085737Y-183188113D01*
X137085737Y-183188113D02*
X141819937Y-187922313D01*
G04 #@! TO.N,/P28*
X177575358Y-184565591D02*
X177575358Y-184846991D01*
X177575358Y-184846991D02*
X178871458Y-186143091D01*
X178871458Y-186143091D02*
X186624158Y-186143091D01*
X186624158Y-186143091D02*
X187742858Y-185024391D01*
X187742858Y-185024391D02*
X187742858Y-162973691D01*
X187742858Y-162973691D02*
X183810058Y-159040891D01*
X183810058Y-157865591D02*
X183810058Y-159040891D01*
X176450058Y-184565591D02*
X177575358Y-184565591D01*
X103623300Y-119766000D02*
X105094400Y-118294900D01*
X105094400Y-118294900D02*
X106520300Y-118294900D01*
X102273000Y-119766000D02*
X103623300Y-119766000D01*
X123523300Y-119766000D02*
X124994400Y-118294900D01*
X124994400Y-118294900D02*
X126420300Y-118294900D01*
X122173000Y-119766000D02*
X123523300Y-119766000D01*
X143423300Y-119766000D02*
X144894400Y-118294900D01*
X144894400Y-118294900D02*
X146320300Y-118294900D01*
X142073000Y-119766000D02*
X143423300Y-119766000D01*
X163423300Y-119766000D02*
X164894400Y-118294900D01*
X164894400Y-118294900D02*
X166320300Y-118294900D01*
X162073000Y-119766000D02*
X163423300Y-119766000D01*
X183523300Y-119766000D02*
X184994400Y-118294900D01*
X184994400Y-118294900D02*
X186420300Y-118294900D01*
X182173000Y-119766000D02*
X183523300Y-119766000D01*
G04 #@! TO.N,/P27*
X183810058Y-155325591D02*
X184985358Y-155325591D01*
X173910058Y-184565591D02*
X172765758Y-183421291D01*
X172765758Y-183421291D02*
X170887958Y-183421291D01*
X170887958Y-183421291D02*
X170205758Y-184103491D01*
X170205758Y-184103491D02*
X170205758Y-185004191D01*
X170205758Y-185004191D02*
X172740358Y-187538791D01*
X172740358Y-187538791D02*
X192869858Y-187538791D01*
X192869858Y-187538791D02*
X195404858Y-185003791D01*
X195404858Y-185003791D02*
X195404858Y-165193991D01*
X195404858Y-165193991D02*
X186711758Y-156500891D01*
X186711758Y-156500891D02*
X185793258Y-156500891D01*
X185793258Y-156500891D02*
X184985358Y-155692991D01*
X184985358Y-155692991D02*
X184985358Y-155325591D01*
G04 #@! TO.N,/P26*
X186350058Y-159040891D02*
X192854258Y-165545091D01*
X192854258Y-165545091D02*
X192854258Y-185027091D01*
X192854258Y-185027091D02*
X190792958Y-187088391D01*
X190792958Y-187088391D02*
X174736858Y-187088391D01*
X174736858Y-187088391D02*
X172495358Y-184846891D01*
X172495358Y-184846891D02*
X172495358Y-184565591D01*
X186350058Y-157865591D02*
X186350058Y-159040891D01*
X171370058Y-184565591D02*
X172495358Y-184565591D01*
G04 #@! TO.N,/P25*
X168830058Y-184565591D02*
X172253658Y-187989191D01*
X172253658Y-187989191D02*
X190653458Y-187989191D01*
X190653458Y-187989191D02*
X192810358Y-190146091D01*
X192810358Y-190146091D02*
X194008558Y-190146091D01*
X194008558Y-190146091D02*
X197912458Y-186242191D01*
X197912458Y-186242191D02*
X197912458Y-166887991D01*
X197912458Y-166887991D02*
X186350058Y-155325591D01*
G04 #@! TO.N,/P22*
X183810058Y-195325591D02*
X182634758Y-195325591D01*
X161210058Y-184565591D02*
X162335358Y-184565591D01*
X162335358Y-184565591D02*
X162335358Y-184846891D01*
X162335358Y-184846891D02*
X165928058Y-188439591D01*
X165928058Y-188439591D02*
X176116058Y-188439591D01*
X176116058Y-188439591D02*
X182634758Y-194958291D01*
X182634758Y-194958291D02*
X182634758Y-195325591D01*
G04 #@! TO.N,/P10*
X117513000Y-127386000D02*
X116162700Y-127386000D01*
X116162700Y-127386000D02*
X116162700Y-126565300D01*
X116162700Y-126565300D02*
X115202000Y-125604600D01*
X137413000Y-127386000D02*
X136062700Y-127386000D01*
X136062700Y-127386000D02*
X136062700Y-126565300D01*
X136062700Y-126565300D02*
X135102000Y-125604600D01*
X157313000Y-127386000D02*
X155962700Y-127386000D01*
X155962700Y-127386000D02*
X155962700Y-126565300D01*
X155962700Y-126565300D02*
X155002000Y-125604600D01*
X177313000Y-127386000D02*
X175962700Y-127386000D01*
X175962700Y-127386000D02*
X175962700Y-126565300D01*
X175962700Y-126565300D02*
X175002000Y-125604600D01*
X197413000Y-127386000D02*
X196062700Y-127386000D01*
X196062700Y-127386000D02*
X196062700Y-126565300D01*
X196062700Y-126565300D02*
X195102000Y-125604600D01*
G04 #@! TO.N,/P8*
X166030058Y-194150291D02*
X165253458Y-194150291D01*
X165253458Y-194150291D02*
X160908958Y-189805791D01*
X166030058Y-195325591D02*
X166030058Y-194150291D01*
G04 #@! TO.N,/P16*
X169321158Y-190338791D02*
X170395258Y-190338791D01*
X170395258Y-190338791D02*
X175014758Y-194958291D01*
X175014758Y-194958291D02*
X175014758Y-195325591D01*
X176190058Y-195325591D02*
X175014758Y-195325591D01*
G04 #@! TO.N,/P7*
X166030058Y-197865591D02*
X164854758Y-197865591D01*
X151050058Y-169325591D02*
X151050058Y-170450891D01*
X151050058Y-170450891D02*
X149900658Y-171600291D01*
X149900658Y-171600291D02*
X149900658Y-185065291D01*
X149900658Y-185065291D02*
X159680058Y-194844691D01*
X159680058Y-194844691D02*
X159680058Y-195776391D01*
X159680058Y-195776391D02*
X160404658Y-196500991D01*
X160404658Y-196500991D02*
X161249658Y-196500991D01*
X161249658Y-196500991D02*
X162220058Y-197471391D01*
X162220058Y-197471391D02*
X162220058Y-198338491D01*
X162220058Y-198338491D02*
X162922458Y-199040891D01*
X162922458Y-199040891D02*
X164046858Y-199040891D01*
X164046858Y-199040891D02*
X164854758Y-198232991D01*
X164854758Y-198232991D02*
X164854758Y-197865591D01*
X117513000Y-135006000D02*
X115752600Y-135006000D01*
X115752600Y-135006000D02*
X115372500Y-135386100D01*
X137413000Y-135006000D02*
X135652600Y-135006000D01*
X135652600Y-135006000D02*
X135272500Y-135386100D01*
X157313000Y-135006000D02*
X155552600Y-135006000D01*
X155552600Y-135006000D02*
X155172500Y-135386100D01*
X177313000Y-135006000D02*
X175552600Y-135006000D01*
X175552600Y-135006000D02*
X175172500Y-135386100D01*
X197413000Y-135006000D02*
X195652600Y-135006000D01*
X195652600Y-135006000D02*
X195272500Y-135386100D01*
G04 #@! TO.N,/P15*
X176190058Y-197865591D02*
X177365358Y-197865591D01*
X193510058Y-191485591D02*
X193510058Y-192660891D01*
X193510058Y-192660891D02*
X193110958Y-192660891D01*
X193110958Y-192660891D02*
X192334758Y-193437091D01*
X192334758Y-193437091D02*
X192334758Y-193548091D01*
X192334758Y-193548091D02*
X186841958Y-199040891D01*
X186841958Y-199040891D02*
X178173258Y-199040891D01*
X178173258Y-199040891D02*
X177365358Y-198232991D01*
X177365358Y-198232991D02*
X177365358Y-197865591D01*
G04 #@! TO.N,/P6*
X153590058Y-170450891D02*
X154715358Y-171576191D01*
X154715358Y-171576191D02*
X154715358Y-185375591D01*
X154715358Y-185375591D02*
X163490058Y-194150291D01*
X163490058Y-195325591D02*
X163490058Y-194150291D01*
X153590058Y-169325591D02*
X153590058Y-170450891D01*
G04 #@! TO.N,/P5*
X163490058Y-197865591D02*
X163490058Y-196690291D01*
X156130058Y-169325591D02*
X156130058Y-170450891D01*
X156130058Y-170450891D02*
X157255358Y-171576191D01*
X157255358Y-171576191D02*
X157255358Y-187190591D01*
X157255358Y-187190591D02*
X164665358Y-194600591D01*
X164665358Y-194600591D02*
X164665358Y-195882391D01*
X164665358Y-195882391D02*
X163857458Y-196690291D01*
X163857458Y-196690291D02*
X163490058Y-196690291D01*
G04 #@! TO.N,/P4*
X160950058Y-195325591D02*
X160950058Y-194150291D01*
X158670058Y-169325591D02*
X157544758Y-169325591D01*
X157544758Y-169325591D02*
X157544758Y-169044291D01*
X157544758Y-169044291D02*
X156692558Y-168192091D01*
X156692558Y-168192091D02*
X153115758Y-168192091D01*
X153115758Y-168192091D02*
X152408658Y-168899191D01*
X152408658Y-168899191D02*
X152408658Y-185608891D01*
X152408658Y-185608891D02*
X160950058Y-194150291D01*
G04 #@! TO.N,/P12*
X171110058Y-195325591D02*
X169934758Y-195325591D01*
X169934758Y-195325591D02*
X169934758Y-194608091D01*
X169934758Y-194608091D02*
X165648258Y-190321591D01*
X117513000Y-122306000D02*
X117513000Y-121956100D01*
X117513000Y-121956100D02*
X113851900Y-118295000D01*
X137413000Y-122306000D02*
X137413000Y-121956100D01*
X137413000Y-121956100D02*
X133751900Y-118295000D01*
X157313000Y-122306000D02*
X157313000Y-121956100D01*
X157313000Y-121956100D02*
X153651900Y-118295000D01*
X177313000Y-122306000D02*
X177313000Y-121956100D01*
X177313000Y-121956100D02*
X173651900Y-118295000D01*
X197413000Y-122306000D02*
X197413000Y-121956100D01*
X197413000Y-121956100D02*
X193751900Y-118295000D01*
G04 #@! TO.N,/P36*
X173650058Y-157865591D02*
X173650058Y-159040891D01*
X173650058Y-159040891D02*
X175362958Y-160753791D01*
X175362958Y-160753791D02*
X175362958Y-168022991D01*
G04 #@! TO.N,/P34*
X176190058Y-157865591D02*
X176190058Y-159040891D01*
X191690058Y-184565591D02*
X190564758Y-184565591D01*
X190564758Y-184565591D02*
X190564758Y-184846891D01*
X190564758Y-184846891D02*
X188773658Y-186637991D01*
X188773658Y-186637991D02*
X176911458Y-186637991D01*
X176911458Y-186637991D02*
X175318158Y-185044691D01*
X175318158Y-185044691D02*
X175318158Y-182032191D01*
X175318158Y-182032191D02*
X177581058Y-179769291D01*
X177581058Y-179769291D02*
X177581058Y-160431891D01*
X177581058Y-160431891D02*
X176190058Y-159040891D01*
G04 #@! TO.N,/P33*
X176190058Y-155325591D02*
X177365358Y-155325591D01*
X189150058Y-184565591D02*
X189150058Y-183440291D01*
X189150058Y-183440291D02*
X190314358Y-182275991D01*
X190314358Y-182275991D02*
X190314358Y-164425491D01*
X190314358Y-164425491D02*
X184985458Y-159096591D01*
X184985458Y-159096591D02*
X184985458Y-157339991D01*
X184985458Y-157339991D02*
X184233058Y-156587591D01*
X184233058Y-156587591D02*
X183409258Y-156587591D01*
X183409258Y-156587591D02*
X182540058Y-155718391D01*
X182540058Y-155718391D02*
X182540058Y-154836191D01*
X182540058Y-154836191D02*
X181854158Y-154150291D01*
X181854158Y-154150291D02*
X178173258Y-154150291D01*
X178173258Y-154150291D02*
X177365358Y-154958191D01*
X177365358Y-154958191D02*
X177365358Y-155325591D01*
G04 #@! TO.N,/P32*
X178730058Y-157865591D02*
X178730058Y-159040891D01*
X186610058Y-184565591D02*
X185484758Y-184565591D01*
X185484758Y-184565591D02*
X185484758Y-184830591D01*
X185484758Y-184830591D02*
X184623558Y-185691791D01*
X184623558Y-185691791D02*
X181051158Y-185691791D01*
X181051158Y-185691791D02*
X180260058Y-184900691D01*
X180260058Y-184900691D02*
X180260058Y-160570891D01*
X180260058Y-160570891D02*
X178730058Y-159040891D01*
G04 #@! TO.N,/P_WE*
X108428000Y-107987300D02*
X108550200Y-108109500D01*
X108550200Y-108109500D02*
X108550200Y-119777000D01*
X108428000Y-106812000D02*
X108428000Y-107987300D01*
X128328000Y-107987300D02*
X128450200Y-108109500D01*
X128450200Y-108109500D02*
X128450200Y-119777000D01*
X128328000Y-106812000D02*
X128328000Y-107987300D01*
X148228000Y-107987300D02*
X148350200Y-108109500D01*
X148350200Y-108109500D02*
X148350200Y-119777000D01*
X148228000Y-106812000D02*
X148228000Y-107987300D01*
X168228000Y-107987300D02*
X168350200Y-108109500D01*
X168350200Y-108109500D02*
X168350200Y-119777000D01*
X168228000Y-106812000D02*
X168228000Y-107987300D01*
X188328000Y-107987300D02*
X188450200Y-108109500D01*
X188450200Y-108109500D02*
X188450200Y-119777000D01*
X188328000Y-106812000D02*
X188328000Y-107987300D01*
G04 #@! TO.N,/P_RST*
X110968000Y-107987300D02*
X110952100Y-107987300D01*
X110952100Y-107987300D02*
X109359100Y-109580300D01*
X109359100Y-109580300D02*
X109359100Y-120390600D01*
X110968000Y-106812000D02*
X110968000Y-107987300D01*
X130868000Y-107987300D02*
X130852100Y-107987300D01*
X130852100Y-107987300D02*
X129259100Y-109580300D01*
X129259100Y-109580300D02*
X129259100Y-120390600D01*
X130868000Y-106812000D02*
X130868000Y-107987300D01*
X150768000Y-107987300D02*
X150752100Y-107987300D01*
X150752100Y-107987300D02*
X149159100Y-109580300D01*
X149159100Y-109580300D02*
X149159100Y-120390600D01*
X150768000Y-106812000D02*
X150768000Y-107987300D01*
X170768000Y-107987300D02*
X170752100Y-107987300D01*
X170752100Y-107987300D02*
X169159100Y-109580300D01*
X169159100Y-109580300D02*
X169159100Y-120390600D01*
X170768000Y-106812000D02*
X170768000Y-107987300D01*
X190868000Y-107987300D02*
X190852100Y-107987300D01*
X190852100Y-107987300D02*
X189259100Y-109580300D01*
X189259100Y-109580300D02*
X189259100Y-120390600D01*
X190868000Y-106812000D02*
X190868000Y-107987300D01*
G04 #@! TO.N,VCC*
X110434500Y-138066600D02*
X110873800Y-137627300D01*
X110873800Y-137627300D02*
X110873800Y-124726300D01*
X110873800Y-124726300D02*
X107691500Y-121544000D01*
X102273000Y-101986000D02*
X107245600Y-106958600D01*
X107245600Y-106958600D02*
X107245600Y-121098100D01*
X107245600Y-121098100D02*
X107691500Y-121544000D01*
X130334500Y-138066600D02*
X130773800Y-137627300D01*
X130773800Y-137627300D02*
X130773800Y-124726300D01*
X130773800Y-124726300D02*
X127591500Y-121544000D01*
X122173000Y-101986000D02*
X127145600Y-106958600D01*
X127145600Y-106958600D02*
X127145600Y-121098100D01*
X127145600Y-121098100D02*
X127591500Y-121544000D01*
X150234500Y-138066600D02*
X150673800Y-137627300D01*
X150673800Y-137627300D02*
X150673800Y-124726300D01*
X150673800Y-124726300D02*
X147491500Y-121544000D01*
X142073000Y-101986000D02*
X147045600Y-106958600D01*
X147045600Y-106958600D02*
X147045600Y-121098100D01*
X147045600Y-121098100D02*
X147491500Y-121544000D01*
X170234500Y-138066600D02*
X170673800Y-137627300D01*
X170673800Y-137627300D02*
X170673800Y-124726300D01*
X170673800Y-124726300D02*
X167491500Y-121544000D01*
X162073000Y-101986000D02*
X167045600Y-106958600D01*
X167045600Y-106958600D02*
X167045600Y-121098100D01*
X167045600Y-121098100D02*
X167491500Y-121544000D01*
X190334500Y-138066600D02*
X190773800Y-137627300D01*
X190773800Y-137627300D02*
X190773800Y-124726300D01*
X190773800Y-124726300D02*
X187591500Y-121544000D01*
X182173000Y-101986000D02*
X187145600Y-106958600D01*
X187145600Y-106958600D02*
X187145600Y-121098100D01*
X187145600Y-121098100D02*
X187591500Y-121544000D01*
G04 #@! TO.N,VSS*
X115419100Y-124237900D02*
X112900400Y-126756600D01*
X112900400Y-126756600D02*
X112900400Y-136632100D01*
X112900400Y-136632100D02*
X110399100Y-139133400D01*
X116162700Y-124846000D02*
X115554600Y-124237900D01*
X115554600Y-124237900D02*
X115419100Y-124237900D01*
X115419100Y-124237900D02*
X115419100Y-122723700D01*
X115419100Y-122723700D02*
X111737500Y-119042100D01*
X111737500Y-119042100D02*
X111737500Y-110398500D01*
X111737500Y-110398500D02*
X110652100Y-109313100D01*
X110399100Y-139133400D02*
X110968000Y-139702300D01*
X110968000Y-139702300D02*
X110968000Y-142466700D01*
X103623300Y-124846000D02*
X103877300Y-124592000D01*
X103877300Y-124592000D02*
X105414100Y-124592000D01*
X105414100Y-124592000D02*
X105712200Y-124890100D01*
X105712200Y-124890100D02*
X105712200Y-125783900D01*
X105712200Y-125783900D02*
X105648700Y-125847400D01*
X105648700Y-125847400D02*
X105648700Y-134383000D01*
X105648700Y-134383000D02*
X110399100Y-139133400D01*
X110968000Y-143642000D02*
X110968000Y-142466700D01*
X102273000Y-124846000D02*
X103623300Y-124846000D01*
X117513000Y-124846000D02*
X116162700Y-124846000D01*
X135319100Y-124237900D02*
X132800400Y-126756600D01*
X132800400Y-126756600D02*
X132800400Y-136632100D01*
X132800400Y-136632100D02*
X130299100Y-139133400D01*
X136062700Y-124846000D02*
X135454600Y-124237900D01*
X135454600Y-124237900D02*
X135319100Y-124237900D01*
X135319100Y-124237900D02*
X135319100Y-122723700D01*
X135319100Y-122723700D02*
X131637500Y-119042100D01*
X131637500Y-119042100D02*
X131637500Y-110398500D01*
X131637500Y-110398500D02*
X130552100Y-109313100D01*
X130299100Y-139133400D02*
X130868000Y-139702300D01*
X130868000Y-139702300D02*
X130868000Y-142466700D01*
X123523300Y-124846000D02*
X123777300Y-124592000D01*
X123777300Y-124592000D02*
X125314100Y-124592000D01*
X125314100Y-124592000D02*
X125612200Y-124890100D01*
X125612200Y-124890100D02*
X125612200Y-125783900D01*
X125612200Y-125783900D02*
X125548700Y-125847400D01*
X125548700Y-125847400D02*
X125548700Y-134383000D01*
X125548700Y-134383000D02*
X130299100Y-139133400D01*
X130868000Y-143642000D02*
X130868000Y-142466700D01*
X122173000Y-124846000D02*
X123523300Y-124846000D01*
X137413000Y-124846000D02*
X136062700Y-124846000D01*
X155219100Y-124237900D02*
X152700400Y-126756600D01*
X152700400Y-126756600D02*
X152700400Y-136632100D01*
X152700400Y-136632100D02*
X150199100Y-139133400D01*
X155962700Y-124846000D02*
X155354600Y-124237900D01*
X155354600Y-124237900D02*
X155219100Y-124237900D01*
X155219100Y-124237900D02*
X155219100Y-122723700D01*
X155219100Y-122723700D02*
X151537500Y-119042100D01*
X151537500Y-119042100D02*
X151537500Y-110398500D01*
X151537500Y-110398500D02*
X150452100Y-109313100D01*
X150199100Y-139133400D02*
X150768000Y-139702300D01*
X150768000Y-139702300D02*
X150768000Y-142466700D01*
X143423300Y-124846000D02*
X143677300Y-124592000D01*
X143677300Y-124592000D02*
X145214100Y-124592000D01*
X145214100Y-124592000D02*
X145512200Y-124890100D01*
X145512200Y-124890100D02*
X145512200Y-125783900D01*
X145512200Y-125783900D02*
X145448700Y-125847400D01*
X145448700Y-125847400D02*
X145448700Y-134383000D01*
X145448700Y-134383000D02*
X150199100Y-139133400D01*
X150768000Y-143642000D02*
X150768000Y-142466700D01*
X142073000Y-124846000D02*
X143423300Y-124846000D01*
X157313000Y-124846000D02*
X155962700Y-124846000D01*
X175219100Y-124237900D02*
X172700400Y-126756600D01*
X172700400Y-126756600D02*
X172700400Y-136632100D01*
X172700400Y-136632100D02*
X170199100Y-139133400D01*
X175962700Y-124846000D02*
X175354600Y-124237900D01*
X175354600Y-124237900D02*
X175219100Y-124237900D01*
X175219100Y-124237900D02*
X175219100Y-122723700D01*
X175219100Y-122723700D02*
X171537500Y-119042100D01*
X171537500Y-119042100D02*
X171537500Y-110398500D01*
X171537500Y-110398500D02*
X170452100Y-109313100D01*
X170199100Y-139133400D02*
X170768000Y-139702300D01*
X170768000Y-139702300D02*
X170768000Y-142466700D01*
X163423300Y-124846000D02*
X163677300Y-124592000D01*
X163677300Y-124592000D02*
X165214100Y-124592000D01*
X165214100Y-124592000D02*
X165512200Y-124890100D01*
X165512200Y-124890100D02*
X165512200Y-125783900D01*
X165512200Y-125783900D02*
X165448700Y-125847400D01*
X165448700Y-125847400D02*
X165448700Y-134383000D01*
X165448700Y-134383000D02*
X170199100Y-139133400D01*
X170768000Y-143642000D02*
X170768000Y-142466700D01*
X162073000Y-124846000D02*
X163423300Y-124846000D01*
X177313000Y-124846000D02*
X175962700Y-124846000D01*
X195319100Y-124237900D02*
X192800400Y-126756600D01*
X192800400Y-126756600D02*
X192800400Y-136632100D01*
X192800400Y-136632100D02*
X190299100Y-139133400D01*
X196062700Y-124846000D02*
X195454600Y-124237900D01*
X195454600Y-124237900D02*
X195319100Y-124237900D01*
X195319100Y-124237900D02*
X195319100Y-122723700D01*
X195319100Y-122723700D02*
X191637500Y-119042100D01*
X191637500Y-119042100D02*
X191637500Y-110398500D01*
X191637500Y-110398500D02*
X190552100Y-109313100D01*
X190299100Y-139133400D02*
X190868000Y-139702300D01*
X190868000Y-139702300D02*
X190868000Y-142466700D01*
X183523300Y-124846000D02*
X183777300Y-124592000D01*
X183777300Y-124592000D02*
X185314100Y-124592000D01*
X185314100Y-124592000D02*
X185612200Y-124890100D01*
X185612200Y-124890100D02*
X185612200Y-125783900D01*
X185612200Y-125783900D02*
X185548700Y-125847400D01*
X185548700Y-125847400D02*
X185548700Y-134383000D01*
X185548700Y-134383000D02*
X190299100Y-139133400D01*
X190868000Y-143642000D02*
X190868000Y-142466700D01*
X182173000Y-124846000D02*
X183523300Y-124846000D01*
X197413000Y-124846000D02*
X196062700Y-124846000D01*
G04 #@! TO.N,/P1_2*
X106421500Y-128402000D02*
X106421500Y-129817000D01*
X106421500Y-129817000D02*
X110115300Y-133510800D01*
X126321500Y-128402000D02*
X126321500Y-129817000D01*
X126321500Y-129817000D02*
X130015300Y-133510800D01*
X146221500Y-128402000D02*
X146221500Y-129817000D01*
X146221500Y-129817000D02*
X149915300Y-133510800D01*
X166221500Y-128402000D02*
X166221500Y-129817000D01*
X166221500Y-129817000D02*
X169915300Y-133510800D01*
X186321500Y-128402000D02*
X186321500Y-129817000D01*
X186321500Y-129817000D02*
X190015300Y-133510800D01*
G04 #@! TO.N,/P31_1*
X103830500Y-127386000D02*
X104846500Y-128402000D01*
X102273000Y-127386000D02*
X103830500Y-127386000D01*
X103830500Y-127386000D02*
X103830500Y-126421000D01*
X103830500Y-126421000D02*
X104872000Y-125379500D01*
X123730500Y-127386000D02*
X124746500Y-128402000D01*
X122173000Y-127386000D02*
X123730500Y-127386000D01*
X123730500Y-127386000D02*
X123730500Y-126421000D01*
X123730500Y-126421000D02*
X124772000Y-125379500D01*
X143630500Y-127386000D02*
X144646500Y-128402000D01*
X142073000Y-127386000D02*
X143630500Y-127386000D01*
X143630500Y-127386000D02*
X143630500Y-126421000D01*
X143630500Y-126421000D02*
X144672000Y-125379500D01*
X163630500Y-127386000D02*
X164646500Y-128402000D01*
X162073000Y-127386000D02*
X163630500Y-127386000D01*
X163630500Y-127386000D02*
X163630500Y-126421000D01*
X163630500Y-126421000D02*
X164672000Y-125379500D01*
X183730500Y-127386000D02*
X184746500Y-128402000D01*
X182173000Y-127386000D02*
X183730500Y-127386000D01*
X183730500Y-127386000D02*
X183730500Y-126421000D01*
X183730500Y-126421000D02*
X184772000Y-125379500D01*
G04 #@! TO.N,/P31_2*
X106116500Y-121544000D02*
X104950900Y-120378400D01*
X104872000Y-123804500D02*
X106116500Y-122560000D01*
X106116500Y-122560000D02*
X106116500Y-121544000D01*
X126016500Y-121544000D02*
X124850900Y-120378400D01*
X124772000Y-123804500D02*
X126016500Y-122560000D01*
X126016500Y-122560000D02*
X126016500Y-121544000D01*
X145916500Y-121544000D02*
X144750900Y-120378400D01*
X144672000Y-123804500D02*
X145916500Y-122560000D01*
X145916500Y-122560000D02*
X145916500Y-121544000D01*
X165916500Y-121544000D02*
X164750900Y-120378400D01*
X164672000Y-123804500D02*
X165916500Y-122560000D01*
X165916500Y-122560000D02*
X165916500Y-121544000D01*
X186016500Y-121544000D02*
X184850900Y-120378400D01*
X184772000Y-123804500D02*
X186016500Y-122560000D01*
X186016500Y-122560000D02*
X186016500Y-121544000D01*
G04 #@! TO.N,/P21*
X183810058Y-197865591D02*
X182634758Y-197865591D01*
X158670058Y-184565591D02*
X159795358Y-184565591D01*
X159795358Y-184565591D02*
X159795358Y-184846891D01*
X159795358Y-184846891D02*
X164337358Y-189388891D01*
X164337358Y-189388891D02*
X171926358Y-189388891D01*
X171926358Y-189388891D02*
X177554658Y-195017191D01*
X177554658Y-195017191D02*
X177554658Y-195814991D01*
X177554658Y-195814991D02*
X178429958Y-196690291D01*
X178429958Y-196690291D02*
X181826858Y-196690291D01*
X181826858Y-196690291D02*
X182634758Y-197498191D01*
X182634758Y-197498191D02*
X182634758Y-197865591D01*
G04 #@! TO.N,/P45*
X160950058Y-155325591D02*
X162125358Y-155325591D01*
X176450058Y-169325591D02*
X175324758Y-169325591D01*
X175324758Y-169325591D02*
X175324758Y-169030191D01*
X175324758Y-169030191D02*
X164665458Y-158370891D01*
X164665458Y-158370891D02*
X164665458Y-157376191D01*
X164665458Y-157376191D02*
X163790158Y-156500891D01*
X163790158Y-156500891D02*
X162933258Y-156500891D01*
X162933258Y-156500891D02*
X162125358Y-155692991D01*
X162125358Y-155692991D02*
X162125358Y-155325591D01*
G04 #@! TO.N,/P47*
X158410058Y-155325591D02*
X159585358Y-155325591D01*
X171370058Y-169325591D02*
X171370058Y-168200291D01*
X171370058Y-168200291D02*
X162125458Y-158955691D01*
X162125458Y-158955691D02*
X162125458Y-157339991D01*
X162125458Y-157339991D02*
X161286358Y-156500891D01*
X161286358Y-156500891D02*
X160393258Y-156500891D01*
X160393258Y-156500891D02*
X159585358Y-155692991D01*
X159585358Y-155692991D02*
X159585358Y-155325591D01*
G04 #@! TO.N,/P48*
X158410058Y-157865591D02*
X159585358Y-157865591D01*
X168830058Y-169325591D02*
X168830058Y-168200291D01*
X168830058Y-168200291D02*
X159585358Y-158955591D01*
X159585358Y-158955591D02*
X159585358Y-157865591D01*
G04 #@! TO.N,/P1*
X165164758Y-169325591D02*
X165164758Y-169044291D01*
X165164758Y-169044291D02*
X163846658Y-167726191D01*
X163846658Y-167726191D02*
X148500358Y-167726191D01*
X148500358Y-167726191D02*
X147384658Y-168841891D01*
X147384658Y-168841891D02*
X147384658Y-186032191D01*
X147384658Y-186032191D02*
X158042758Y-196690291D01*
X158042758Y-196690291D02*
X158410058Y-196690291D01*
X158410058Y-197865591D02*
X158410058Y-196690291D01*
X166290058Y-169325591D02*
X165164758Y-169325591D01*
G04 #@! TO.N,/P30*
X181270058Y-159040891D02*
X182704858Y-160475691D01*
X182704858Y-160475691D02*
X182704858Y-182265491D01*
X182704858Y-182265491D02*
X181530058Y-183440291D01*
X181270058Y-157865591D02*
X181270058Y-159040891D01*
X181530058Y-184565591D02*
X181530058Y-183440291D01*
G04 #@! TO.N,/P31*
X178730058Y-155325591D02*
X179905358Y-155325591D01*
X184070058Y-184565591D02*
X184070058Y-183440291D01*
X184070058Y-183440291D02*
X185201658Y-182308691D01*
X185201658Y-182308691D02*
X185201658Y-161157391D01*
X185201658Y-161157391D02*
X182540058Y-158495791D01*
X182540058Y-158495791D02*
X182540058Y-157454391D01*
X182540058Y-157454391D02*
X181586558Y-156500891D01*
X181586558Y-156500891D02*
X180713258Y-156500891D01*
X180713258Y-156500891D02*
X179905358Y-155692991D01*
X179905358Y-155692991D02*
X179905358Y-155325591D01*
G04 #@! TD*
M02*
